<svg width="630" height="616" viewBox="0 0 630 616" fill="none" xmlns="http://www.w3.org/2000/svg">
<path d="M75.5928 12.3111L103.652 42.3261L111.627 6.08154L75.5928 12.3111Z" stroke="#65FFFF" stroke-width="0.1472" stroke-miterlimit="10" stroke-linejoin="round"/>
<path d="M111.627 6.08154L134.296 25.0164L103.652 42.3261L111.627 6.08154Z" stroke="#65FFFF" stroke-width="0.1472" stroke-miterlimit="10" stroke-linejoin="round"/>
<path d="M134.296 25.0165L145.52 2.31445L111.627 6.08172L134.296 25.0165Z" stroke="#65FFFF" stroke-width="0.1472" stroke-miterlimit="10" stroke-linejoin="round"/>
<path d="M134.297 25.0165L154.603 12.7791L145.521 2.31445L134.297 25.0165Z" stroke="#65FFFF" stroke-width="0.1472" stroke-miterlimit="10" stroke-linejoin="round"/>
<path d="M134.296 25.0166L124.008 49.787L103.652 42.3263L134.296 25.0166Z" stroke="#65FFFF" stroke-width="0.1472" stroke-miterlimit="10" stroke-linejoin="round"/>
<path d="M44.2109 35.0624L73.4766 45.0838L75.5933 12.311L44.2109 35.0624Z" stroke="#65FFFF" stroke-width="0.1472" stroke-miterlimit="10" stroke-linejoin="round"/>
<path d="M73.4766 45.0838L103.653 42.3261L75.5933 12.311L73.4766 45.0838Z" stroke="#65FFFF" stroke-width="0.1472" stroke-miterlimit="10" stroke-linejoin="round"/>
<path d="M44.2109 35.0625L60.0621 66.8503L73.4766 45.0839L44.2109 35.0625Z" stroke="#65FFFF" stroke-width="0.1472" stroke-miterlimit="10" stroke-linejoin="round"/>
<path d="M11.3271 30.3599L21.591 59.193L44.211 35.0628L11.3271 30.3599Z" stroke="#65FFFF" stroke-width="0.1472" stroke-miterlimit="10" stroke-linejoin="round"/>
<path d="M21.5908 59.1929L33.6515 96.3731L60.0619 66.8505L21.5908 59.1929Z" stroke="#65FFFF" stroke-width="0.1472" stroke-miterlimit="10" stroke-linejoin="round"/>
<path d="M33.6514 96.3729L66.166 103.12L60.0618 66.8503L33.6514 96.3729Z" stroke="#65FFFF" stroke-width="0.1472" stroke-miterlimit="10" stroke-linejoin="round"/>
<path d="M66.166 103.12L33.6514 96.373L40.9862 105.459L66.166 103.12Z" stroke="#65FFFF" stroke-width="0.1472" stroke-miterlimit="10" stroke-linejoin="round"/>
<path d="M66.1658 103.12L86.6443 115.751L59.5693 138.749L66.1658 103.12Z" stroke="#65FFFF" stroke-width="0.1472" stroke-miterlimit="10" stroke-linejoin="round"/>
<path d="M59.5693 138.749L102.939 137.591L86.6443 115.751L59.5693 138.749Z" stroke="#65FFFF" stroke-width="0.1472" stroke-miterlimit="10" stroke-linejoin="round"/>
<path d="M78.3003 161.475L102.939 137.591L59.5693 138.749L78.3003 161.475Z" stroke="#65FFFF" stroke-width="0.1472" stroke-miterlimit="10" stroke-linejoin="round"/>
<path d="M86.6446 115.751L96.6623 78.5955L66.166 103.12L86.6446 115.751Z" stroke="#65FFFF" stroke-width="0.1472" stroke-miterlimit="10" stroke-linejoin="round"/>
<path d="M96.6621 78.5954L119.947 83.1506L124.008 49.7869L96.6621 78.5954Z" stroke="#65FFFF" stroke-width="0.1472" stroke-miterlimit="10" stroke-linejoin="round"/>
<path d="M96.6623 78.5955L86.6445 115.751L119.947 83.1507L96.6623 78.5955Z" stroke="#65FFFF" stroke-width="0.1472" stroke-miterlimit="10" stroke-linejoin="round"/>
<path d="M102.939 137.591L119.947 83.1506L86.6445 115.751L102.939 137.591Z" stroke="#65FFFF" stroke-width="0.1472" stroke-miterlimit="10" stroke-linejoin="round"/>
<path d="M124.008 49.787L154.504 42.4494L134.296 25.0166L124.008 49.787Z" stroke="#65FFFF" stroke-width="0.1472" stroke-miterlimit="10" stroke-linejoin="round"/>
<path d="M124.008 49.7868L154.504 42.4492L119.946 83.1505L124.008 49.7868Z" stroke="#65FFFF" stroke-width="0.1472" stroke-miterlimit="10" stroke-linejoin="round"/>
<path d="M134.297 25.0168L154.505 42.4496L154.603 12.7793L134.297 25.0168Z" stroke="#65FFFF" stroke-width="0.1472" stroke-miterlimit="10" stroke-linejoin="round"/>
<path d="M265.29 58.5034L248.085 83.3723L295.392 86.4994L265.29 58.5034Z" stroke="#65FFFF" stroke-width="0.1472" stroke-miterlimit="10" stroke-linejoin="round"/>
<path d="M248.085 83.3723L288.525 112.156L295.392 86.4994L248.085 83.3723Z" stroke="#65FFFF" stroke-width="0.1472" stroke-miterlimit="10" stroke-linejoin="round"/>
<path d="M288.526 112.156L271.518 133.233L307.552 127.003L288.526 112.156Z" stroke="#65FFFF" stroke-width="0.1472" stroke-miterlimit="10" stroke-linejoin="round"/>
<path d="M271.517 133.233L248.085 83.3723L288.525 112.156L271.517 133.233Z" stroke="#65FFFF" stroke-width="0.1472" stroke-miterlimit="10" stroke-linejoin="round"/>
<path d="M271.518 133.233L299.577 163.273L307.552 127.004L271.518 133.233Z" stroke="#65FFFF" stroke-width="0.1472" stroke-miterlimit="10" stroke-linejoin="round"/>
<path d="M307.552 127.004L330.221 145.938L299.577 163.273L307.552 127.004Z" stroke="#65FFFF" stroke-width="0.1472" stroke-miterlimit="10" stroke-linejoin="round"/>
<path d="M330.221 145.938L319.933 170.709L299.577 163.273L330.221 145.938Z" stroke="#65FFFF" stroke-width="0.1472" stroke-miterlimit="10" stroke-linejoin="round"/>
<path d="M271.517 133.233L226.425 112.993L248.085 83.3723L271.517 133.233Z" stroke="#65FFFF" stroke-width="0.1472" stroke-miterlimit="10" stroke-linejoin="round"/>
<path d="M248.085 83.3723L238.806 51.5845L265.29 58.5034L248.085 83.3723Z" stroke="#65FFFF" stroke-width="0.1472" stroke-miterlimit="10" stroke-linejoin="round"/>
<path d="M238.806 51.5845L214.34 71.3318L248.085 83.3723L238.806 51.5845Z" stroke="#65FFFF" stroke-width="0.1472" stroke-miterlimit="10" stroke-linejoin="round"/>
<path d="M238.806 51.5845L204.766 35.6782L214.34 71.3318L238.806 51.5845Z" stroke="#65FFFF" stroke-width="0.1472" stroke-miterlimit="10" stroke-linejoin="round"/>
<path d="M204.765 35.6782L182.047 56.9768L214.34 71.3318L204.765 35.6782Z" stroke="#65FFFF" stroke-width="0.1472" stroke-miterlimit="10" stroke-linejoin="round"/>
<path d="M214.34 71.3318L211.337 96.1022L248.085 83.3723L214.34 71.3318Z" stroke="#65FFFF" stroke-width="0.1472" stroke-miterlimit="10" stroke-linejoin="round"/>
<path d="M211.337 96.1022L226.425 112.993L248.085 83.3723L211.337 96.1022Z" stroke="#65FFFF" stroke-width="0.1472" stroke-miterlimit="10" stroke-linejoin="round"/>
<path d="M240.135 156.009L269.4 166.006L271.517 133.233L240.135 156.009Z" stroke="#65FFFF" stroke-width="0.1472" stroke-miterlimit="10" stroke-linejoin="round"/>
<path d="M269.4 166.006L299.577 163.273L271.517 133.233L269.4 166.006Z" stroke="#65FFFF" stroke-width="0.1472" stroke-miterlimit="10" stroke-linejoin="round"/>
<path d="M211.337 96.1022L183.327 92.0394L214.34 71.3318L211.337 96.1022Z" stroke="#65FFFF" stroke-width="0.1472" stroke-miterlimit="10" stroke-linejoin="round"/>
<path d="M183.327 92.0395L182.047 56.9768L214.34 71.3318L183.327 92.0395Z" stroke="#65FFFF" stroke-width="0.1472" stroke-miterlimit="10" stroke-linejoin="round"/>
<path d="M240.135 156.009L255.986 187.772L269.4 166.006L240.135 156.009Z" stroke="#65FFFF" stroke-width="0.1472" stroke-miterlimit="10" stroke-linejoin="round"/>
<path d="M255.986 187.772L283.874 184.325L269.401 166.006L255.986 187.772Z" stroke="#65FFFF" stroke-width="0.1472" stroke-miterlimit="10" stroke-linejoin="round"/>
<path d="M283.873 184.325L299.577 163.273L269.4 166.006L283.873 184.325Z" stroke="#65FFFF" stroke-width="0.1472" stroke-miterlimit="10" stroke-linejoin="round"/>
<path d="M319.932 170.709L283.873 184.325L299.577 163.273L319.932 170.709Z" stroke="#65FFFF" stroke-width="0.1472" stroke-miterlimit="10" stroke-linejoin="round"/>
<path d="M207.251 151.281L217.515 180.115L240.135 156.009L207.251 151.281Z" stroke="#65FFFF" stroke-width="0.1472" stroke-miterlimit="10" stroke-linejoin="round"/>
<path d="M217.516 180.115L255.987 187.772L240.136 156.009L217.516 180.115Z" stroke="#65FFFF" stroke-width="0.1472" stroke-miterlimit="10" stroke-linejoin="round"/>
<path d="M217.516 180.115L229.576 217.295L255.987 187.772L217.516 180.115Z" stroke="#65FFFF" stroke-width="0.1472" stroke-miterlimit="10" stroke-linejoin="round"/>
<path d="M229.576 217.295L262.091 224.041L255.987 187.772L229.576 217.295Z" stroke="#65FFFF" stroke-width="0.1472" stroke-miterlimit="10" stroke-linejoin="round"/>
<path d="M262.091 224.041L292.587 199.517L255.986 187.772L262.091 224.041Z" stroke="#65FFFF" stroke-width="0.1472" stroke-miterlimit="10" stroke-linejoin="round"/>
<path d="M292.587 199.517L283.874 184.325L255.986 187.772L292.587 199.517Z" stroke="#65FFFF" stroke-width="0.1472" stroke-miterlimit="10" stroke-linejoin="round"/>
<path d="M170.429 187.28L156.695 144.289L125.337 167.04L170.429 187.28Z" stroke="#65FFFF" stroke-width="0.1472" stroke-miterlimit="10" stroke-linejoin="round"/>
<path d="M156.695 144.289L127.429 134.267L125.337 167.04L156.695 144.289Z" stroke="#65FFFF" stroke-width="0.1472" stroke-miterlimit="10" stroke-linejoin="round"/>
<path d="M156.695 144.289L140.844 112.525L127.43 134.267L156.695 144.289Z" stroke="#65FFFF" stroke-width="0.1472" stroke-miterlimit="10" stroke-linejoin="round"/>
<path d="M179.315 120.158L140.844 112.525L156.695 144.289L179.315 120.158Z" stroke="#65FFFF" stroke-width="0.1472" stroke-miterlimit="10" stroke-linejoin="round"/>
<path d="M262.091 224.042L229.576 217.295L224.432 227.538L262.091 224.042Z" stroke="#65FFFF" stroke-width="0.1472" stroke-miterlimit="10" stroke-linejoin="round"/>
<path d="M224.431 227.538L200.285 210.77L229.575 217.295L224.431 227.538Z" stroke="#65FFFF" stroke-width="0.1472" stroke-miterlimit="10" stroke-linejoin="round"/>
<path d="M200.286 210.77L189.013 226.947L224.432 227.538L200.286 210.77Z" stroke="#65FFFF" stroke-width="0.1472" stroke-miterlimit="10" stroke-linejoin="round"/>
<path d="M159.132 194.248L200.286 210.77L189.013 226.947L159.132 194.248Z" stroke="#65FFFF" stroke-width="0.1472" stroke-miterlimit="10" stroke-linejoin="round"/>
<path d="M200.285 210.77L217.515 180.115L229.575 217.295L200.285 210.77Z" stroke="#65FFFF" stroke-width="0.1472" stroke-miterlimit="10" stroke-linejoin="round"/>
<path d="M170.43 187.28L217.516 180.115L207.252 151.281L170.43 187.28Z" stroke="#65FFFF" stroke-width="0.1472" stroke-miterlimit="10" stroke-linejoin="round"/>
<path d="M156.695 144.289L185.986 148.278L179.315 120.158L156.695 144.289Z" stroke="#65FFFF" stroke-width="0.1472" stroke-miterlimit="10" stroke-linejoin="round"/>
<path d="M156.695 144.289L184.016 159.801L170.43 187.28L156.695 144.289Z" stroke="#65FFFF" stroke-width="0.1472" stroke-miterlimit="10" stroke-linejoin="round"/>
<path d="M184.016 159.801L185.986 148.277L156.695 144.289L184.016 159.801Z" stroke="#65FFFF" stroke-width="0.1472" stroke-miterlimit="10" stroke-linejoin="round"/>
<path d="M184.016 159.801L207.251 151.282L185.985 148.278L184.016 159.801Z" stroke="#65FFFF" stroke-width="0.1472" stroke-miterlimit="10" stroke-linejoin="round"/>
<path d="M184.016 159.801L207.252 151.281L170.43 187.28L184.016 159.801Z" stroke="#65FFFF" stroke-width="0.1472" stroke-miterlimit="10" stroke-linejoin="round"/>
<path d="M170.43 187.28L200.286 210.77L217.516 180.115L170.43 187.28Z" stroke="#65FFFF" stroke-width="0.1472" stroke-miterlimit="10" stroke-linejoin="round"/>
<path d="M159.132 194.248L170.43 187.28L200.286 210.77L159.132 194.248Z" stroke="#65FFFF" stroke-width="0.1472" stroke-miterlimit="10" stroke-linejoin="round"/>
<path d="M159.131 194.248L125.337 167.04L170.429 187.28L159.131 194.248Z" stroke="#65FFFF" stroke-width="0.1472" stroke-miterlimit="10" stroke-linejoin="round"/>
<path d="M124.353 190.752L125.337 167.04L159.132 194.248L124.353 190.752Z" stroke="#65FFFF" stroke-width="0.1472" stroke-miterlimit="10" stroke-linejoin="round"/>
<path d="M292.586 199.517L319.932 170.709L283.873 184.325L292.586 199.517Z" stroke="#65FFFF" stroke-width="0.1472" stroke-miterlimit="10" stroke-linejoin="round"/>
<path d="M292.587 199.517L315.896 204.097L319.933 170.709L292.587 199.517Z" stroke="#65FFFF" stroke-width="0.1472" stroke-miterlimit="10" stroke-linejoin="round"/>
<path d="M319.933 170.709L350.429 163.371L330.221 145.938L319.933 170.709Z" stroke="#65FFFF" stroke-width="0.1472" stroke-miterlimit="10" stroke-linejoin="round"/>
<path d="M319.932 170.709L350.428 163.371L315.896 204.097L319.932 170.709Z" stroke="#65FFFF" stroke-width="0.1472" stroke-miterlimit="10" stroke-linejoin="round"/>
<path d="M154.504 42.4492L147.883 82.8058L182.047 56.9766L154.504 42.4492Z" stroke="#65FFFF" stroke-width="0.1472" stroke-miterlimit="10" stroke-linejoin="round"/>
<path d="M154.504 42.4495L204.765 35.6782L182.047 56.9768L154.504 42.4495Z" stroke="#65FFFF" stroke-width="0.1472" stroke-miterlimit="10" stroke-linejoin="round"/>
<path d="M154.504 42.4496L204.765 35.6784L154.602 12.7793L154.504 42.4496Z" stroke="#65FFFF" stroke-width="0.1472" stroke-miterlimit="10" stroke-linejoin="round"/>
<path d="M119.946 83.1505L147.883 82.8058L154.504 42.4492L119.946 83.1505Z" stroke="#65FFFF" stroke-width="0.1472" stroke-miterlimit="10" stroke-linejoin="round"/>
<path d="M102.938 137.591L127.429 134.267L140.843 112.525L102.938 137.591Z" stroke="#65FFFF" stroke-width="0.1472" stroke-miterlimit="10" stroke-linejoin="round"/>
<path d="M102.938 137.591L125.337 167.04L127.429 134.267L102.938 137.591Z" stroke="#65FFFF" stroke-width="0.1472" stroke-miterlimit="10" stroke-linejoin="round"/>
<path d="M78.3008 161.475L125.337 167.04L102.939 137.591L78.3008 161.475Z" stroke="#65FFFF" stroke-width="0.1472" stroke-miterlimit="10" stroke-linejoin="round"/>
<path d="M78.3008 161.475L124.353 190.752L125.337 167.04L78.3008 161.475Z" stroke="#65FFFF" stroke-width="0.1472" stroke-miterlimit="10" stroke-linejoin="round"/>
<path d="M238.806 51.5845L222.856 31L205.996 36.2692L238.806 51.5845Z" stroke="#65FFFF" stroke-width="0.1472" stroke-miterlimit="10" stroke-linejoin="round"/>
<path d="M222.856 30.9997L188.176 17.4326L205.996 36.2689L222.856 30.9997Z" stroke="#65FFFF" stroke-width="0.1472" stroke-miterlimit="10" stroke-linejoin="round"/>
<path d="M204.765 35.6784L188.176 17.433L154.603 12.7793L204.765 35.6784Z" stroke="#65FFFF" stroke-width="0.1472" stroke-miterlimit="10" stroke-linejoin="round"/>
<path d="M265.29 58.5035L245.304 36.7617L238.806 51.5846L265.29 58.5035Z" stroke="#65FFFF" stroke-width="0.1472" stroke-miterlimit="10" stroke-linejoin="round"/>
<path d="M245.304 36.7617L271.05 44.8626L265.29 58.5035L245.304 36.7617Z" stroke="#65FFFF" stroke-width="0.1472" stroke-miterlimit="10" stroke-linejoin="round"/>
<path d="M307.552 127.004L328.572 128.703L330.221 145.938L307.552 127.004Z" stroke="#65FFFF" stroke-width="0.1472" stroke-miterlimit="10" stroke-linejoin="round"/>
<path d="M307.551 127.004L306.395 100.091L328.571 128.703L307.551 127.004Z" stroke="#65FFFF" stroke-width="0.1472" stroke-miterlimit="10" stroke-linejoin="round"/>
<path d="M306.395 100.091L332.288 114.742L328.571 128.703L306.395 100.091Z" stroke="#65FFFF" stroke-width="0.1472" stroke-miterlimit="10" stroke-linejoin="round"/>
<path d="M306.395 100.091L306.739 79.7773L332.288 114.742L306.395 100.091Z" stroke="#65FFFF" stroke-width="0.1472" stroke-miterlimit="10" stroke-linejoin="round"/>
<path d="M295.393 86.4993L306.395 100.091L288.525 112.156L295.393 86.4993Z" stroke="#65FFFF" stroke-width="0.1472" stroke-miterlimit="10" stroke-linejoin="round"/>
<path d="M295.393 86.4993L306.739 79.7773L306.395 100.091L295.393 86.4993Z" stroke="#65FFFF" stroke-width="0.1472" stroke-miterlimit="10" stroke-linejoin="round"/>
<path d="M265.29 58.5034L289.042 66.8505L295.393 86.4994L265.29 58.5034Z" stroke="#65FFFF" stroke-width="0.1472" stroke-miterlimit="10" stroke-linejoin="round"/>
<path d="M289.042 66.8503L271.05 44.8623L265.29 58.5033L289.042 66.8503Z" stroke="#65FFFF" stroke-width="0.1472" stroke-miterlimit="10" stroke-linejoin="round"/>
<path d="M289.042 66.8503L306.739 79.7772L295.392 86.4992L289.042 66.8503Z" stroke="#65FFFF" stroke-width="0.1472" stroke-miterlimit="10" stroke-linejoin="round"/>
<path d="M124.353 190.752L142.173 212.715L159.132 194.248L124.353 190.752Z" stroke="#65FFFF" stroke-width="0.1472" stroke-miterlimit="10" stroke-linejoin="round"/>
<path d="M159.132 194.248L189.013 226.947L161.076 211.558L159.132 194.248Z" stroke="#65FFFF" stroke-width="0.1472" stroke-miterlimit="10" stroke-linejoin="round"/>
<path d="M161.076 211.558L164.374 222.121L189.013 226.947L161.076 211.558Z" stroke="#65FFFF" stroke-width="0.1472" stroke-miterlimit="10" stroke-linejoin="round"/>
<path d="M161.076 211.558L142.173 212.715L159.132 194.248L161.076 211.558Z" stroke="#65FFFF" stroke-width="0.1472" stroke-miterlimit="10" stroke-linejoin="round"/>
<path d="M124.352 190.752L111.233 192.968L142.173 212.715L124.352 190.752Z" stroke="#65FFFF" stroke-width="0.1472" stroke-miterlimit="10" stroke-linejoin="round"/>
<path d="M75.593 12.3111L72.1963 4.40723L111.627 6.08157L75.593 12.3111Z" stroke="#65FFFF" stroke-width="0.1472" stroke-miterlimit="10" stroke-linejoin="round"/>
<path d="M75.5928 12.3111L52.7021 12.1634L72.1962 4.40723L75.5928 12.3111Z" stroke="#65FFFF" stroke-width="0.1472" stroke-miterlimit="10" stroke-linejoin="round"/>
<path d="M52.7023 12.1636L48.4688 21.1016L75.593 12.3113L52.7023 12.1636Z" stroke="#65FFFF" stroke-width="0.1472" stroke-miterlimit="10" stroke-linejoin="round"/>
<path d="M48.4691 21.1013L44.2109 35.0624L75.5933 12.311L48.4691 21.1013Z" stroke="#65FFFF" stroke-width="0.1472" stroke-miterlimit="10" stroke-linejoin="round"/>
<path d="M48.4684 21.1015L24.79 19.3779L44.2102 35.0626L48.4684 21.1015Z" stroke="#65FFFF" stroke-width="0.1472" stroke-miterlimit="10" stroke-linejoin="round"/>
<path d="M24.79 19.378L52.7019 12.1636L48.4684 21.1016L24.79 19.378Z" stroke="#65FFFF" stroke-width="0.1472" stroke-miterlimit="10" stroke-linejoin="round"/>
<path d="M24.7908 19.3779L11.3271 30.3596L44.211 35.0626L24.7908 19.3779Z" stroke="#65FFFF" stroke-width="0.1472" stroke-miterlimit="10" stroke-linejoin="round"/>
<path d="M52.7019 12.1634L33.7002 4.97363L24.79 19.3779L52.7019 12.1634Z" stroke="#65FFFF" stroke-width="0.1472" stroke-miterlimit="10" stroke-linejoin="round"/>
<path d="M52.7019 12.1634L72.1959 4.40723L33.7002 4.97355L52.7019 12.1634Z" stroke="#65FFFF" stroke-width="0.1472" stroke-miterlimit="10" stroke-linejoin="round"/>
<path d="M24.7903 19.3778L5.00098 16.4478L11.3267 30.3596L24.7903 19.3778Z" stroke="#65FFFF" stroke-width="0.1472" stroke-miterlimit="10" stroke-linejoin="round"/>
<path d="M24.7903 19.3781L9.99755 3.79199L5.00098 16.448L24.7903 19.3781Z" stroke="#65FFFF" stroke-width="0.1472" stroke-miterlimit="10" stroke-linejoin="round"/>
<path d="M186.797 10.0459L188.175 17.4327L215.521 18.2206L222.856 30.9998" stroke="#65FFFF" stroke-width="0.1472" stroke-miterlimit="10" stroke-linejoin="round"/>
<path d="M308.783 173.269L294.876 173.196L284.661 153.793" stroke="#65FFFF" stroke-width="0.368" stroke-miterlimit="10" stroke-linejoin="round"/>
<path d="M213.749 133.553L187.068 124.935L176.386 104.966L213.749 133.553ZM213.749 133.553L244.098 133.356L284.661 153.793L308.783 173.27L324.954 172.58L338.737 182.331L347.278 182.405L359.56 190.432" stroke="#65FFFF" stroke-width="0.368" stroke-miterlimit="10" stroke-linejoin="round"/>
<path d="M176.386 104.966L134.985 96.6686L103.308 67.8354L128.783 77.0936" stroke="#65FFFF" stroke-width="0.368" stroke-miterlimit="10" stroke-linejoin="round"/>
<path d="M103.308 67.8352L80.3188 72.9321L56.1729 48.0386L74.6577 51.5596" stroke="#65FFFF" stroke-width="0.368" stroke-miterlimit="10" stroke-linejoin="round"/>
<path d="M359.56 190.432C302.309 -66.9981 40.0505 25.8293 0.939453 0.443359C28.1868 117.647 130.063 318.543 359.56 190.432Z" stroke="#65FFFF" stroke-width="0.368" stroke-miterlimit="10" stroke-linejoin="round"/>
<path d="M0.939453 0.443359C40.0259 25.8293 302.309 -66.9981 359.56 190.432C359.56 190.432 127.257 128.432 0.939453 0.443359Z" fill="url(#paint0_linear_772_1066)"/>
<path d="M0.939453 0.443359C127.257 128.407 359.56 190.432 359.56 190.432C130.063 318.543 28.1868 117.647 0.939453 0.443359Z" fill="url(#paint1_linear_772_1066)"/>
<path d="M572.665 57.1741L551.448 79.8516L545.418 52.4465L572.665 57.1741Z" stroke="#65FFFF" stroke-width="0.1112" stroke-miterlimit="10" stroke-linejoin="round"/>
<path d="M545.417 52.4465L528.286 66.7769L551.448 79.8516L545.417 52.4465Z" stroke="#65FFFF" stroke-width="0.1112" stroke-miterlimit="10" stroke-linejoin="round"/>
<path d="M528.287 66.777L519.795 49.615L545.418 52.4466L528.287 66.777Z" stroke="#65FFFF" stroke-width="0.1112" stroke-miterlimit="10" stroke-linejoin="round"/>
<path d="M528.286 66.777L512.952 57.5189L519.795 49.615L528.286 66.777Z" stroke="#65FFFF" stroke-width="0.1112" stroke-miterlimit="10" stroke-linejoin="round"/>
<path d="M528.286 66.7771L536.064 85.4903L551.448 79.8517L528.286 66.7771Z" stroke="#65FFFF" stroke-width="0.1112" stroke-miterlimit="10" stroke-linejoin="round"/>
<path d="M596.368 74.3607L574.24 81.9198L572.665 57.1741L596.368 74.3607Z" stroke="#65FFFF" stroke-width="0.1112" stroke-miterlimit="10" stroke-linejoin="round"/>
<path d="M574.24 81.9198L551.448 79.8515L572.665 57.1741L574.24 81.9198Z" stroke="#65FFFF" stroke-width="0.1112" stroke-miterlimit="10" stroke-linejoin="round"/>
<path d="M596.368 74.3608L584.381 98.3679L574.24 81.92L596.368 74.3608Z" stroke="#65FFFF" stroke-width="0.1112" stroke-miterlimit="10" stroke-linejoin="round"/>
<path d="M621.228 70.7905L613.45 92.5816L596.368 74.3608L621.228 70.7905Z" stroke="#65FFFF" stroke-width="0.1112" stroke-miterlimit="10" stroke-linejoin="round"/>
<path d="M613.45 92.5815L604.343 120.676L584.381 98.3679L613.45 92.5815Z" stroke="#65FFFF" stroke-width="0.1112" stroke-miterlimit="10" stroke-linejoin="round"/>
<path d="M604.343 120.676L579.778 125.773L584.381 98.3679L604.343 120.676Z" stroke="#65FFFF" stroke-width="0.1112" stroke-miterlimit="10" stroke-linejoin="round"/>
<path d="M579.778 125.773L604.343 120.676L598.805 127.546L579.778 125.773Z" stroke="#65FFFF" stroke-width="0.1112" stroke-miterlimit="10" stroke-linejoin="round"/>
<path d="M579.778 125.773L564.296 135.327L584.75 152.71L579.778 125.773Z" stroke="#65FFFF" stroke-width="0.1112" stroke-miterlimit="10" stroke-linejoin="round"/>
<path d="M584.75 152.71L551.965 151.824L564.296 135.326L584.75 152.71Z" stroke="#65FFFF" stroke-width="0.1112" stroke-miterlimit="10" stroke-linejoin="round"/>
<path d="M570.597 169.872L551.965 151.824L584.75 152.71L570.597 169.872Z" stroke="#65FFFF" stroke-width="0.1112" stroke-miterlimit="10" stroke-linejoin="round"/>
<path d="M564.296 135.326L556.715 107.257L579.778 125.773L564.296 135.326Z" stroke="#65FFFF" stroke-width="0.1112" stroke-miterlimit="10" stroke-linejoin="round"/>
<path d="M556.715 107.257L539.117 110.704L536.064 85.4902L556.715 107.257Z" stroke="#65FFFF" stroke-width="0.1112" stroke-miterlimit="10" stroke-linejoin="round"/>
<path d="M556.715 107.257L564.296 135.326L539.116 110.704L556.715 107.257Z" stroke="#65FFFF" stroke-width="0.1112" stroke-miterlimit="10" stroke-linejoin="round"/>
<path d="M551.965 151.824L539.116 110.704L564.296 135.327L551.965 151.824Z" stroke="#65FFFF" stroke-width="0.1112" stroke-miterlimit="10" stroke-linejoin="round"/>
<path d="M536.064 85.4903L513.001 79.9256L528.286 66.7771L536.064 85.4903Z" stroke="#65FFFF" stroke-width="0.1112" stroke-miterlimit="10" stroke-linejoin="round"/>
<path d="M536.064 85.4903L513.001 79.9255L539.116 110.704L536.064 85.4903Z" stroke="#65FFFF" stroke-width="0.1112" stroke-miterlimit="10" stroke-linejoin="round"/>
<path d="M528.286 66.7769L513.001 79.9254L512.952 57.5188L528.286 66.7769Z" stroke="#65FFFF" stroke-width="0.1112" stroke-miterlimit="10" stroke-linejoin="round"/>
<path d="M429.291 92.0645L442.287 110.876L406.548 113.24L429.291 92.0645Z" stroke="#65FFFF" stroke-width="0.1112" stroke-miterlimit="10" stroke-linejoin="round"/>
<path d="M442.287 110.876L411.741 132.618L406.548 113.24L442.287 110.876Z" stroke="#65FFFF" stroke-width="0.1112" stroke-miterlimit="10" stroke-linejoin="round"/>
<path d="M411.741 132.618L424.589 148.549L397.366 143.821L411.741 132.618Z" stroke="#65FFFF" stroke-width="0.1112" stroke-miterlimit="10" stroke-linejoin="round"/>
<path d="M424.59 148.549L442.287 110.876L411.741 132.618L424.59 148.549Z" stroke="#65FFFF" stroke-width="0.1112" stroke-miterlimit="10" stroke-linejoin="round"/>
<path d="M424.589 148.549L403.372 171.226L397.366 143.821L424.589 148.549Z" stroke="#65FFFF" stroke-width="0.1112" stroke-miterlimit="10" stroke-linejoin="round"/>
<path d="M397.367 143.821L380.211 158.152L403.372 171.226L397.367 143.821Z" stroke="#65FFFF" stroke-width="0.1112" stroke-miterlimit="10" stroke-linejoin="round"/>
<path d="M380.211 158.152L388.013 176.865L403.372 171.226L380.211 158.152Z" stroke="#65FFFF" stroke-width="0.1112" stroke-miterlimit="10" stroke-linejoin="round"/>
<path d="M424.589 148.549L458.679 133.258L442.286 110.876L424.589 148.549Z" stroke="#65FFFF" stroke-width="0.1112" stroke-miterlimit="10" stroke-linejoin="round"/>
<path d="M442.286 110.876L449.301 86.8445L429.29 92.0645L442.286 110.876Z" stroke="#65FFFF" stroke-width="0.1112" stroke-miterlimit="10" stroke-linejoin="round"/>
<path d="M449.301 86.8445L467.786 101.766L442.286 110.876L449.301 86.8445Z" stroke="#65FFFF" stroke-width="0.1112" stroke-miterlimit="10" stroke-linejoin="round"/>
<path d="M449.302 86.8445L475.023 74.8286L467.787 101.766L449.302 86.8445Z" stroke="#65FFFF" stroke-width="0.1112" stroke-miterlimit="10" stroke-linejoin="round"/>
<path d="M475.023 74.8286L492.203 90.9072L467.786 101.766L475.023 74.8286Z" stroke="#65FFFF" stroke-width="0.1112" stroke-miterlimit="10" stroke-linejoin="round"/>
<path d="M467.786 101.766L470.05 120.479L442.286 110.876L467.786 101.766Z" stroke="#65FFFF" stroke-width="0.1112" stroke-miterlimit="10" stroke-linejoin="round"/>
<path d="M470.05 120.479L458.679 133.258L442.286 110.876L470.05 120.479Z" stroke="#65FFFF" stroke-width="0.1112" stroke-miterlimit="10" stroke-linejoin="round"/>
<path d="M448.292 165.735L426.189 173.319L424.589 148.549L448.292 165.735Z" stroke="#65FFFF" stroke-width="0.1112" stroke-miterlimit="10" stroke-linejoin="round"/>
<path d="M426.189 173.319L403.372 171.226L424.589 148.549L426.189 173.319Z" stroke="#65FFFF" stroke-width="0.1112" stroke-miterlimit="10" stroke-linejoin="round"/>
<path d="M470.051 120.479L491.243 117.401L467.786 101.766L470.051 120.479Z" stroke="#65FFFF" stroke-width="0.1112" stroke-miterlimit="10" stroke-linejoin="round"/>
<path d="M491.243 117.401L492.203 90.9072L467.786 101.766L491.243 117.401Z" stroke="#65FFFF" stroke-width="0.1112" stroke-miterlimit="10" stroke-linejoin="round"/>
<path d="M448.292 165.735L436.33 189.742L426.189 173.319L448.292 165.735Z" stroke="#65FFFF" stroke-width="0.1112" stroke-miterlimit="10" stroke-linejoin="round"/>
<path d="M436.33 189.742L415.261 187.157L426.189 173.319L436.33 189.742Z" stroke="#65FFFF" stroke-width="0.1112" stroke-miterlimit="10" stroke-linejoin="round"/>
<path d="M415.26 187.157L403.372 171.226L426.189 173.319L415.26 187.157Z" stroke="#65FFFF" stroke-width="0.1112" stroke-miterlimit="10" stroke-linejoin="round"/>
<path d="M388.014 176.865L415.261 187.157L403.373 171.226L388.014 176.865Z" stroke="#65FFFF" stroke-width="0.1112" stroke-miterlimit="10" stroke-linejoin="round"/>
<path d="M473.152 162.19L465.399 183.981L448.292 165.735L473.152 162.19Z" stroke="#65FFFF" stroke-width="0.1112" stroke-miterlimit="10" stroke-linejoin="round"/>
<path d="M465.399 183.981L436.33 189.742L448.292 165.735L465.399 183.981Z" stroke="#65FFFF" stroke-width="0.1112" stroke-miterlimit="10" stroke-linejoin="round"/>
<path d="M465.399 183.981L456.292 212.075L436.33 189.742L465.399 183.981Z" stroke="#65FFFF" stroke-width="0.1112" stroke-miterlimit="10" stroke-linejoin="round"/>
<path d="M456.291 212.075L431.702 217.172L436.329 189.742L456.291 212.075Z" stroke="#65FFFF" stroke-width="0.1112" stroke-miterlimit="10" stroke-linejoin="round"/>
<path d="M431.702 217.172L408.664 198.631L436.33 189.742L431.702 217.172Z" stroke="#65FFFF" stroke-width="0.1112" stroke-miterlimit="10" stroke-linejoin="round"/>
<path d="M408.664 198.631L415.261 187.157L436.33 189.743L408.664 198.631Z" stroke="#65FFFF" stroke-width="0.1112" stroke-miterlimit="10" stroke-linejoin="round"/>
<path d="M500.99 189.398L511.353 156.896L535.056 174.083L500.99 189.398Z" stroke="#65FFFF" stroke-width="0.1112" stroke-miterlimit="10" stroke-linejoin="round"/>
<path d="M511.353 156.896L533.48 149.337L535.055 174.082L511.353 156.896Z" stroke="#65FFFF" stroke-width="0.1112" stroke-miterlimit="10" stroke-linejoin="round"/>
<path d="M511.353 156.896L523.339 132.889L533.48 149.337L511.353 156.896Z" stroke="#65FFFF" stroke-width="0.1112" stroke-miterlimit="10" stroke-linejoin="round"/>
<path d="M494.271 138.651L523.339 132.889L511.352 156.896L494.271 138.651Z" stroke="#65FFFF" stroke-width="0.1112" stroke-miterlimit="10" stroke-linejoin="round"/>
<path d="M431.702 217.172L456.291 212.075L460.18 219.807L431.702 217.172Z" stroke="#65FFFF" stroke-width="0.1112" stroke-miterlimit="10" stroke-linejoin="round"/>
<path d="M460.181 219.807L478.42 207.126L456.292 212.075L460.181 219.807Z" stroke="#65FFFF" stroke-width="0.1112" stroke-miterlimit="10" stroke-linejoin="round"/>
<path d="M478.419 207.126L486.936 219.364L460.181 219.807L478.419 207.126Z" stroke="#65FFFF" stroke-width="0.1112" stroke-miterlimit="10" stroke-linejoin="round"/>
<path d="M509.531 194.642L478.419 207.126L486.935 219.363L509.531 194.642Z" stroke="#65FFFF" stroke-width="0.1112" stroke-miterlimit="10" stroke-linejoin="round"/>
<path d="M478.42 207.126L465.399 183.981L456.292 212.075L478.42 207.126Z" stroke="#65FFFF" stroke-width="0.1112" stroke-miterlimit="10" stroke-linejoin="round"/>
<path d="M500.99 189.398L465.398 183.981L473.152 162.19L500.99 189.398Z" stroke="#65FFFF" stroke-width="0.1112" stroke-miterlimit="10" stroke-linejoin="round"/>
<path d="M511.352 156.896L489.225 159.9L494.27 138.651L511.352 156.896Z" stroke="#65FFFF" stroke-width="0.1112" stroke-miterlimit="10" stroke-linejoin="round"/>
<path d="M511.353 156.896L490.727 168.616L500.99 189.398L511.353 156.896Z" stroke="#65FFFF" stroke-width="0.1112" stroke-miterlimit="10" stroke-linejoin="round"/>
<path d="M490.726 168.616L489.225 159.9L511.352 156.896L490.726 168.616Z" stroke="#65FFFF" stroke-width="0.1112" stroke-miterlimit="10" stroke-linejoin="round"/>
<path d="M490.726 168.616L473.152 162.19L489.225 159.9L490.726 168.616Z" stroke="#65FFFF" stroke-width="0.1112" stroke-miterlimit="10" stroke-linejoin="round"/>
<path d="M490.726 168.616L473.152 162.19L500.99 189.398L490.726 168.616Z" stroke="#65FFFF" stroke-width="0.1112" stroke-miterlimit="10" stroke-linejoin="round"/>
<path d="M500.99 189.398L478.419 207.126L465.398 183.981L500.99 189.398Z" stroke="#65FFFF" stroke-width="0.1112" stroke-miterlimit="10" stroke-linejoin="round"/>
<path d="M509.531 194.642L500.99 189.398L478.419 207.126L509.531 194.642Z" stroke="#65FFFF" stroke-width="0.1112" stroke-miterlimit="10" stroke-linejoin="round"/>
<path d="M509.531 194.642L535.056 174.083L500.99 189.398L509.531 194.642Z" stroke="#65FFFF" stroke-width="0.1112" stroke-miterlimit="10" stroke-linejoin="round"/>
<path d="M535.794 192.008L535.056 174.083L509.531 194.642L535.794 192.008Z" stroke="#65FFFF" stroke-width="0.1112" stroke-miterlimit="10" stroke-linejoin="round"/>
<path d="M408.665 198.631L388.014 176.865L415.261 187.157L408.665 198.631Z" stroke="#65FFFF" stroke-width="0.1112" stroke-miterlimit="10" stroke-linejoin="round"/>
<path d="M408.665 198.631L391.066 202.078L388.014 176.865L408.665 198.631Z" stroke="#65FFFF" stroke-width="0.1112" stroke-miterlimit="10" stroke-linejoin="round"/>
<path d="M388.013 176.865L364.95 171.325L380.211 158.152L388.013 176.865Z" stroke="#65FFFF" stroke-width="0.1112" stroke-miterlimit="10" stroke-linejoin="round"/>
<path d="M388.013 176.865L364.95 171.325L391.065 202.078L388.013 176.865Z" stroke="#65FFFF" stroke-width="0.1112" stroke-miterlimit="10" stroke-linejoin="round"/>
<path d="M513.002 79.9255L518.023 110.433L492.203 90.9072L513.002 79.9255Z" stroke="#65FFFF" stroke-width="0.1112" stroke-miterlimit="10" stroke-linejoin="round"/>
<path d="M513.001 79.9255L475.022 74.8286L492.203 90.9072L513.001 79.9255Z" stroke="#65FFFF" stroke-width="0.1112" stroke-miterlimit="10" stroke-linejoin="round"/>
<path d="M513.001 79.9254L475.022 74.8285L512.952 57.5188L513.001 79.9254Z" stroke="#65FFFF" stroke-width="0.1112" stroke-miterlimit="10" stroke-linejoin="round"/>
<path d="M539.116 110.704L518.022 110.433L513.001 79.9255L539.116 110.704Z" stroke="#65FFFF" stroke-width="0.1112" stroke-miterlimit="10" stroke-linejoin="round"/>
<path d="M551.965 151.824L533.48 149.337L523.339 132.889L551.965 151.824Z" stroke="#65FFFF" stroke-width="0.1112" stroke-miterlimit="10" stroke-linejoin="round"/>
<path d="M551.965 151.824L535.056 174.082L533.48 149.337L551.965 151.824Z" stroke="#65FFFF" stroke-width="0.1112" stroke-miterlimit="10" stroke-linejoin="round"/>
<path d="M570.598 169.872L535.056 174.083L551.965 151.824L570.598 169.872Z" stroke="#65FFFF" stroke-width="0.1112" stroke-miterlimit="10" stroke-linejoin="round"/>
<path d="M570.598 169.872L535.794 192.008L535.056 174.083L570.598 169.872Z" stroke="#65FFFF" stroke-width="0.1112" stroke-miterlimit="10" stroke-linejoin="round"/>
<path d="M449.302 86.8445L461.362 71.283L474.112 75.2718L449.302 86.8445Z" stroke="#65FFFF" stroke-width="0.1112" stroke-miterlimit="10" stroke-linejoin="round"/>
<path d="M461.362 71.2828L487.576 61.0398L474.112 75.2717L461.362 71.2828Z" stroke="#65FFFF" stroke-width="0.1112" stroke-miterlimit="10" stroke-linejoin="round"/>
<path d="M475.022 74.8285L487.575 61.0398L512.952 57.5188L475.022 74.8285Z" stroke="#65FFFF" stroke-width="0.1112" stroke-miterlimit="10" stroke-linejoin="round"/>
<path d="M429.29 92.0644L444.403 75.6411L449.301 86.8444L429.29 92.0644Z" stroke="#65FFFF" stroke-width="0.1112" stroke-miterlimit="10" stroke-linejoin="round"/>
<path d="M444.403 75.6411L424.958 81.7475L429.29 92.0644L444.403 75.6411Z" stroke="#65FFFF" stroke-width="0.1112" stroke-miterlimit="10" stroke-linejoin="round"/>
<path d="M397.367 143.821L381.491 145.102L380.211 158.152L397.367 143.821Z" stroke="#65FFFF" stroke-width="0.1112" stroke-miterlimit="10" stroke-linejoin="round"/>
<path d="M397.367 143.821L398.228 123.508L381.491 145.102L397.367 143.821Z" stroke="#65FFFF" stroke-width="0.1112" stroke-miterlimit="10" stroke-linejoin="round"/>
<path d="M398.228 123.508L378.66 134.563L381.491 145.102L398.228 123.508Z" stroke="#65FFFF" stroke-width="0.1112" stroke-miterlimit="10" stroke-linejoin="round"/>
<path d="M398.228 123.508L397.957 108.143L378.66 134.563L398.228 123.508Z" stroke="#65FFFF" stroke-width="0.1112" stroke-miterlimit="10" stroke-linejoin="round"/>
<path d="M406.548 113.24L398.229 123.508L411.741 132.618L406.548 113.24Z" stroke="#65FFFF" stroke-width="0.1112" stroke-miterlimit="10" stroke-linejoin="round"/>
<path d="M406.547 113.24L397.957 108.143L398.228 123.508L406.547 113.24Z" stroke="#65FFFF" stroke-width="0.1112" stroke-miterlimit="10" stroke-linejoin="round"/>
<path d="M429.291 92.0645L411.348 98.3679L406.548 113.24L429.291 92.0645Z" stroke="#65FFFF" stroke-width="0.1112" stroke-miterlimit="10" stroke-linejoin="round"/>
<path d="M411.347 98.3679L424.958 81.7476L429.29 92.0644L411.347 98.3679Z" stroke="#65FFFF" stroke-width="0.1112" stroke-miterlimit="10" stroke-linejoin="round"/>
<path d="M411.347 98.3679L397.957 108.143L406.547 113.24L411.347 98.3679Z" stroke="#65FFFF" stroke-width="0.1112" stroke-miterlimit="10" stroke-linejoin="round"/>
<path d="M535.794 192.008L522.33 208.603L509.531 194.642L535.794 192.008Z" stroke="#65FFFF" stroke-width="0.1112" stroke-miterlimit="10" stroke-linejoin="round"/>
<path d="M509.531 194.642L486.936 219.363L508.054 207.717L509.531 194.642Z" stroke="#65FFFF" stroke-width="0.1112" stroke-miterlimit="10" stroke-linejoin="round"/>
<path d="M508.054 207.717L505.543 215.719L486.936 219.364L508.054 207.717Z" stroke="#65FFFF" stroke-width="0.1112" stroke-miterlimit="10" stroke-linejoin="round"/>
<path d="M508.054 207.717L522.33 208.603L509.531 194.642L508.054 207.717Z" stroke="#65FFFF" stroke-width="0.1112" stroke-miterlimit="10" stroke-linejoin="round"/>
<path d="M535.794 192.008L545.713 193.682L522.33 208.603L535.794 192.008Z" stroke="#65FFFF" stroke-width="0.1112" stroke-miterlimit="10" stroke-linejoin="round"/>
<path d="M572.665 57.1742L575.2 51.1909L545.418 52.4467L572.665 57.1742Z" stroke="#65FFFF" stroke-width="0.1112" stroke-miterlimit="10" stroke-linejoin="round"/>
<path d="M572.665 57.1742L589.944 57.0511L575.2 51.1909L572.665 57.1742Z" stroke="#65FFFF" stroke-width="0.1112" stroke-miterlimit="10" stroke-linejoin="round"/>
<path d="M589.944 57.051L593.144 63.7976L572.665 57.1741L589.944 57.051Z" stroke="#65FFFF" stroke-width="0.1112" stroke-miterlimit="10" stroke-linejoin="round"/>
<path d="M593.144 63.7976L596.368 74.3607L572.665 57.1741L593.144 63.7976Z" stroke="#65FFFF" stroke-width="0.1112" stroke-miterlimit="10" stroke-linejoin="round"/>
<path d="M593.144 63.7977L611.038 62.5173L596.368 74.3608L593.144 63.7977Z" stroke="#65FFFF" stroke-width="0.1112" stroke-miterlimit="10" stroke-linejoin="round"/>
<path d="M611.037 62.5173L589.943 57.051L593.143 63.7976L611.037 62.5173Z" stroke="#65FFFF" stroke-width="0.1112" stroke-miterlimit="10" stroke-linejoin="round"/>
<path d="M611.038 62.5173L621.228 70.7905L596.368 74.3608L611.038 62.5173Z" stroke="#65FFFF" stroke-width="0.1112" stroke-miterlimit="10" stroke-linejoin="round"/>
<path d="M589.943 57.051L604.318 51.6094L611.037 62.5172L589.943 57.051Z" stroke="#65FFFF" stroke-width="0.1112" stroke-miterlimit="10" stroke-linejoin="round"/>
<path d="M589.944 57.0511L575.2 51.1909L604.318 51.6095L589.944 57.0511Z" stroke="#65FFFF" stroke-width="0.1112" stroke-miterlimit="10" stroke-linejoin="round"/>
<path d="M611.037 62.5173L626.002 60.2766L621.227 70.7905L611.037 62.5173Z" stroke="#65FFFF" stroke-width="0.1112" stroke-miterlimit="10" stroke-linejoin="round"/>
<path d="M611.037 62.5171L622.212 50.7229L626.002 60.2765L611.037 62.5171Z" stroke="#65FFFF" stroke-width="0.1112" stroke-miterlimit="10" stroke-linejoin="round"/>
<path d="M488.61 55.4507L487.576 61.04L466.9 61.631L461.362 71.2831" stroke="#65FFFF" stroke-width="0.1112" stroke-miterlimit="10" stroke-linejoin="round"/>
<path d="M396.432 178.81L406.942 178.736L414.67 164.086" stroke="#65FFFF" stroke-width="0.2781" stroke-miterlimit="10" stroke-linejoin="round"/>
<path d="M468.254 148.795L488.412 142.27L496.461 127.176L468.254 148.795ZM468.254 148.795L445.314 148.623L414.67 164.086L396.431 178.81L384.198 178.268L373.787 185.63L367.338 185.704L358.059 191.761" stroke="#65FFFF" stroke-width="0.2781" stroke-miterlimit="10" stroke-linejoin="round"/>
<path d="M496.461 127.176L527.745 120.922L551.719 99.1311L532.446 106.124" stroke="#65FFFF" stroke-width="0.2781" stroke-miterlimit="10" stroke-linejoin="round"/>
<path d="M551.719 99.1312L569.071 102.972L587.31 84.1606L573.354 86.8199" stroke="#65FFFF" stroke-width="0.2781" stroke-miterlimit="10" stroke-linejoin="round"/>
<path d="M358.059 191.762C401.329 -2.75749 599.518 67.3925 629.055 48.2114C608.478 136.754 531.486 288.578 358.059 191.762Z" stroke="#65FFFF" stroke-width="0.2781" stroke-miterlimit="10" stroke-linejoin="round"/>
<path d="M629.055 48.2114C599.518 67.3925 401.329 -2.75748 358.059 191.761C358.059 191.761 533.603 144.905 629.055 48.2114Z" fill="url(#paint2_linear_772_1066)"/>
<path d="M629.055 48.2114C533.603 144.905 358.059 191.762 358.059 191.762C531.486 288.578 608.478 136.754 629.055 48.2114Z" fill="url(#paint3_linear_772_1066)"/>
<path d="M386.932 452.589L378.538 425.923L367.905 452.589H386.932Z" stroke="white" stroke-width="0.1" stroke-miterlimit="10" stroke-linejoin="round"/>
<path d="M367.905 452.589L368.89 424.421L378.538 425.923L367.905 452.589Z" stroke="white" stroke-width="0.1" stroke-miterlimit="10" stroke-linejoin="round"/>
<path d="M378.538 425.923L382.575 418.955L386.931 452.589L378.538 425.923Z" stroke="white" stroke-width="0.1" stroke-miterlimit="10" stroke-linejoin="round"/>
<path d="M382.574 418.955L386.931 416.197V452.589L382.574 418.955Z" stroke="white" stroke-width="0.1" stroke-miterlimit="10" stroke-linejoin="round"/>
<path d="M382.575 418.955L378.145 402.507L378.538 425.923L382.575 418.955Z" stroke="white" stroke-width="0.1" stroke-miterlimit="10" stroke-linejoin="round"/>
<path d="M378.144 402.507L370.243 404.255L378.538 425.923L378.144 402.507Z" stroke="white" stroke-width="0.1" stroke-miterlimit="10" stroke-linejoin="round"/>
<path d="M370.243 404.255L368.89 424.421L378.538 425.923L370.243 404.255Z" stroke="white" stroke-width="0.1" stroke-miterlimit="10" stroke-linejoin="round"/>
<path d="M370.243 404.255L369.775 387.413L378.144 402.507L370.243 404.255Z" stroke="white" stroke-width="0.1" stroke-miterlimit="10" stroke-linejoin="round"/>
<path d="M369.775 387.413L377.75 381.577L378.144 402.507L369.775 387.413Z" stroke="white" stroke-width="0.1" stroke-miterlimit="10" stroke-linejoin="round"/>
<path d="M378.144 402.507L383.362 402.137L377.75 381.577L378.144 402.507Z" stroke="white" stroke-width="0.1" stroke-miterlimit="10" stroke-linejoin="round"/>
<path d="M383.363 402.137L382.575 418.954L378.145 402.507L383.363 402.137Z" stroke="white" stroke-width="0.1" stroke-miterlimit="10" stroke-linejoin="round"/>
<path d="M383.362 402.137L386.931 416.197L382.574 418.954L383.362 402.137Z" stroke="white" stroke-width="0.1" stroke-miterlimit="10" stroke-linejoin="round"/>
<path d="M383.362 402.137L384.765 384.483L377.75 381.577L383.362 402.137Z" stroke="white" stroke-width="0.1" stroke-miterlimit="10" stroke-linejoin="round"/>
<path d="M369.775 369.438L377.75 381.577L369.775 387.413V369.438Z" stroke="white" stroke-width="0.1" stroke-miterlimit="10" stroke-linejoin="round"/>
<path d="M369.775 352.375L376.987 364.095L369.775 369.438V352.375Z" stroke="white" stroke-width="0.1" stroke-miterlimit="10" stroke-linejoin="round"/>
<path d="M376.987 364.095L377.75 381.577L369.775 369.438L376.987 364.095Z" stroke="white" stroke-width="0.1" stroke-miterlimit="10" stroke-linejoin="round"/>
<path d="M384.765 384.483L376.987 364.095L377.75 381.577L384.765 384.483Z" stroke="white" stroke-width="0.1" stroke-miterlimit="10" stroke-linejoin="round"/>
<path d="M359.511 208.554L359.117 194.199L357.887 192.5L359.511 208.554Z" stroke="white" stroke-width="0.1" stroke-miterlimit="10" stroke-linejoin="round"/>
<path d="M360.595 227.981L362.736 214.71L359.512 208.554L360.595 227.981Z" stroke="white" stroke-width="0.1" stroke-miterlimit="10" stroke-linejoin="round"/>
<path d="M362.736 214.71L359.118 194.199L359.512 208.554L362.736 214.71Z" stroke="white" stroke-width="0.1" stroke-miterlimit="10" stroke-linejoin="round"/>
<path d="M362.736 214.71L366.551 233.694L360.595 227.981L362.736 214.71Z" stroke="white" stroke-width="0.1" stroke-miterlimit="10" stroke-linejoin="round"/>
<path d="M366.551 233.694L364.902 248.837L360.595 227.981L366.551 233.694Z" stroke="white" stroke-width="0.1" stroke-miterlimit="10" stroke-linejoin="round"/>
<path d="M364.902 248.837L361.555 250.486L360.595 227.981L364.902 248.837Z" stroke="white" stroke-width="0.1" stroke-miterlimit="10" stroke-linejoin="round"/>
<path d="M364.902 248.837L365.345 272.031L361.555 250.486L364.902 248.837Z" stroke="white" stroke-width="0.1" stroke-miterlimit="10" stroke-linejoin="round"/>
<path d="M364.902 248.837L371.031 256.322L366.551 233.694L364.902 248.837Z" stroke="white" stroke-width="0.1" stroke-miterlimit="10" stroke-linejoin="round"/>
<path d="M371.031 256.322L365.345 272.031L364.902 248.837L371.031 256.322Z" stroke="white" stroke-width="0.1" stroke-miterlimit="10" stroke-linejoin="round"/>
<path d="M367.782 318.74L373.862 307.512L377.751 333.933L367.782 318.74Z" stroke="white" stroke-width="0.1" stroke-miterlimit="10" stroke-linejoin="round"/>
<path d="M373.861 307.512L381.295 309.162L377.75 333.933L373.861 307.512Z" stroke="white" stroke-width="0.1" stroke-miterlimit="10" stroke-linejoin="round"/>
<path d="M373.861 307.512L377.898 285.771L381.295 309.162L373.861 307.512Z" stroke="white" stroke-width="0.1" stroke-miterlimit="10" stroke-linejoin="round"/>
<path d="M373.861 307.513L367.412 293.872L367.781 318.74L373.861 307.513Z" stroke="white" stroke-width="0.1" stroke-miterlimit="10" stroke-linejoin="round"/>
<path d="M367.412 293.871L377.898 285.771L373.861 307.512L367.412 293.871Z" stroke="white" stroke-width="0.1" stroke-miterlimit="10" stroke-linejoin="round"/>
<path d="M367.462 326.373L377.75 333.932L369.776 352.375L367.462 326.373Z" stroke="white" stroke-width="0.1" stroke-miterlimit="10" stroke-linejoin="round"/>
<path d="M377.75 333.933L382.082 358.531L369.775 352.375L377.75 333.933Z" stroke="white" stroke-width="0.1" stroke-miterlimit="10" stroke-linejoin="round"/>
<path d="M382.082 358.531L376.987 364.095L369.775 352.375L382.082 358.531Z" stroke="white" stroke-width="0.1" stroke-miterlimit="10" stroke-linejoin="round"/>
<path d="M377.75 333.932L367.462 326.373L367.782 318.74L377.75 333.932Z" stroke="white" stroke-width="0.1" stroke-miterlimit="10" stroke-linejoin="round"/>
<path d="M371.03 256.322L373.861 277.227L365.345 272.031L371.03 256.322Z" stroke="white" stroke-width="0.1" stroke-miterlimit="10" stroke-linejoin="round"/>
<path d="M367.412 293.872L373.861 277.227L365.345 272.031L367.412 293.872Z" stroke="white" stroke-width="0.1" stroke-miterlimit="10" stroke-linejoin="round"/>
<path d="M377.898 285.771L373.861 277.227L367.412 293.871L377.898 285.771Z" stroke="white" stroke-width="0.1" stroke-miterlimit="10" stroke-linejoin="round"/>
<path d="M377.75 333.932H385.7L381.294 309.162L377.75 333.932Z" stroke="white" stroke-width="0.1" stroke-miterlimit="10" stroke-linejoin="round"/>
<path d="M385.7 333.933L382.082 358.531L377.75 333.933H385.7Z" stroke="white" stroke-width="0.1" stroke-miterlimit="10" stroke-linejoin="round"/>
<path d="M382.082 358.531L384.765 384.483L376.987 364.095L382.082 358.531Z" stroke="white" stroke-width="0.1" stroke-miterlimit="10" stroke-linejoin="round"/>
<path d="M382.082 358.531L389.392 364.095L384.765 384.483L382.082 358.531Z" stroke="white" stroke-width="0.1" stroke-miterlimit="10" stroke-linejoin="round"/>
<path d="M382.082 358.531L385.7 333.933L389.392 364.095L382.082 358.531Z" stroke="white" stroke-width="0.1" stroke-miterlimit="10" stroke-linejoin="round"/>
<path d="M384.765 384.483L392.051 399.33L383.362 402.137L384.765 384.483Z" stroke="white" stroke-width="0.1" stroke-miterlimit="10" stroke-linejoin="round"/>
<path d="M384.766 384.483L392.051 399.33L389.393 364.095L384.766 384.483Z" stroke="white" stroke-width="0.1" stroke-miterlimit="10" stroke-linejoin="round"/>
<path d="M383.362 402.137L392.051 399.33L386.931 416.197L383.362 402.137Z" stroke="white" stroke-width="0.1" stroke-miterlimit="10" stroke-linejoin="round"/>
<path d="M386.931 416.197L390.057 444.858L382.574 418.955L386.931 416.197Z" stroke="white" stroke-width="0.1" stroke-miterlimit="10" stroke-linejoin="round"/>
<path d="M382.574 418.955L390.057 444.858L386.931 452.589L384.839 436.954L382.574 418.955Z" stroke="white" stroke-width="0.1" stroke-miterlimit="10" stroke-linejoin="round"/>
<path d="M392.051 399.33L394.955 375.742L398.5 401.128L392.051 399.33Z" stroke="white" stroke-width="0.1" stroke-miterlimit="10" stroke-linejoin="round"/>
<path d="M392.051 399.33L400.592 420.358L398.5 401.128L392.051 399.33Z" stroke="white" stroke-width="0.1" stroke-miterlimit="10" stroke-linejoin="round"/>
<path d="M392.051 399.33L400.592 420.358L386.932 416.197L392.051 399.33Z" stroke="white" stroke-width="0.1" stroke-miterlimit="10" stroke-linejoin="round"/>
<path d="M386.932 416.197L390.058 444.858L398.894 438.136L386.932 416.197Z" stroke="white" stroke-width="0.1" stroke-miterlimit="10" stroke-linejoin="round"/>
<path d="M398.894 438.136L400.592 420.358L386.932 416.197L398.894 438.136Z" stroke="white" stroke-width="0.1" stroke-miterlimit="10" stroke-linejoin="round"/>
<path d="M386.932 452.589L400.125 455.766L390.058 444.858L386.932 452.589Z" stroke="white" stroke-width="0.1" stroke-miterlimit="10" stroke-linejoin="round"/>
<path d="M390.058 444.858L398.894 438.136L400.125 455.766L390.058 444.858Z" stroke="white" stroke-width="0.1" stroke-miterlimit="10" stroke-linejoin="round"/>
<path d="M389.393 364.095L394.955 375.742L392.051 399.33L389.393 364.095Z" stroke="white" stroke-width="0.1" stroke-miterlimit="10" stroke-linejoin="round"/>
<path d="M363.573 608.968L350.084 595.647L345.235 604.462L363.573 608.968Z" stroke="white" stroke-width="0.1" stroke-miterlimit="10" stroke-linejoin="round"/>
<path d="M345.236 604.462L341.199 591.633L350.085 595.647L345.236 604.462Z" stroke="white" stroke-width="0.1" stroke-miterlimit="10" stroke-linejoin="round"/>
<path d="M345.236 604.462L329.655 599.611L341.199 591.633L345.236 604.462Z" stroke="white" stroke-width="0.1" stroke-miterlimit="10" stroke-linejoin="round"/>
<path d="M329.656 599.611L326.948 593.283L341.2 591.633L329.656 599.611Z" stroke="white" stroke-width="0.1" stroke-miterlimit="10" stroke-linejoin="round"/>
<path d="M326.948 593.283L319.662 596.853L329.655 599.611L326.948 593.283Z" stroke="white" stroke-width="0.1" stroke-miterlimit="10" stroke-linejoin="round"/>
<path d="M326.948 593.283L331.822 573.708L341.2 591.633L326.948 593.283Z" stroke="white" stroke-width="0.1" stroke-miterlimit="10" stroke-linejoin="round"/>
<path d="M350.085 595.647L361.038 592.224L363.573 608.968L350.085 595.647Z" stroke="white" stroke-width="0.1" stroke-miterlimit="10" stroke-linejoin="round"/>
<path d="M361.038 592.224L365.961 590.722L363.573 608.968L361.038 592.224Z" stroke="white" stroke-width="0.1" stroke-miterlimit="10" stroke-linejoin="round"/>
<path d="M361.038 592.224L356.214 576.367L350.085 595.647L361.038 592.224Z" stroke="white" stroke-width="0.1" stroke-miterlimit="10" stroke-linejoin="round"/>
<path d="M356.213 576.367L348.14 575.949L350.084 595.647L356.213 576.367Z" stroke="white" stroke-width="0.1" stroke-miterlimit="10" stroke-linejoin="round"/>
<path d="M348.14 575.949L341.199 591.633L350.085 595.647L348.14 575.949Z" stroke="white" stroke-width="0.1" stroke-miterlimit="10" stroke-linejoin="round"/>
<path d="M331.821 573.708L348.14 575.949L341.199 591.633L331.821 573.708Z" stroke="white" stroke-width="0.1" stroke-miterlimit="10" stroke-linejoin="round"/>
<path d="M348.14 575.949L351.807 558.368L356.213 576.367L348.14 575.949Z" stroke="white" stroke-width="0.1" stroke-miterlimit="10" stroke-linejoin="round"/>
<path d="M351.808 558.368L331.821 573.708L348.14 575.949L351.808 558.368Z" stroke="white" stroke-width="0.1" stroke-miterlimit="10" stroke-linejoin="round"/>
<path d="M351.808 558.368L366.33 554.896L356.213 576.367L351.808 558.368Z" stroke="white" stroke-width="0.1" stroke-miterlimit="10" stroke-linejoin="round"/>
<path d="M356.214 576.367L366.256 576.219L366.33 554.896L356.214 576.367Z" stroke="white" stroke-width="0.1" stroke-miterlimit="10" stroke-linejoin="round"/>
<path d="M366.256 576.219L361.038 592.224L356.214 576.367L366.256 576.219Z" stroke="white" stroke-width="0.1" stroke-miterlimit="10" stroke-linejoin="round"/>
<path d="M366.256 576.219L365.961 590.722L361.038 592.224L366.256 576.219Z" stroke="white" stroke-width="0.1" stroke-miterlimit="10" stroke-linejoin="round"/>
<path d="M366.256 576.219L372.311 559.55L366.33 554.896L366.256 576.219Z" stroke="white" stroke-width="0.1" stroke-miterlimit="10" stroke-linejoin="round"/>
<path d="M351.808 558.368L343.119 550.612L331.821 573.708L351.808 558.368Z" stroke="white" stroke-width="0.1" stroke-miterlimit="10" stroke-linejoin="round"/>
<path d="M331.822 573.708L321.533 586.856L326.948 593.283L331.822 573.708Z" stroke="white" stroke-width="0.1" stroke-miterlimit="10" stroke-linejoin="round"/>
<path d="M321.533 586.856L319.662 596.853L326.948 593.283L321.533 586.856Z" stroke="white" stroke-width="0.1" stroke-miterlimit="10" stroke-linejoin="round"/>
<path d="M335.095 552.852L343.119 550.612L331.821 573.708L335.095 552.852Z" stroke="white" stroke-width="0.1" stroke-miterlimit="10" stroke-linejoin="round"/>
<path d="M343.119 550.612L353.481 534.016L351.808 558.368L343.119 550.612Z" stroke="white" stroke-width="0.1" stroke-miterlimit="10" stroke-linejoin="round"/>
<path d="M353.481 534.016L361.85 541.083L351.808 558.368L353.481 534.016Z" stroke="white" stroke-width="0.1" stroke-miterlimit="10" stroke-linejoin="round"/>
<path d="M361.85 541.083L366.33 554.896L351.808 558.368L361.85 541.083Z" stroke="white" stroke-width="0.1" stroke-miterlimit="10" stroke-linejoin="round"/>
<path d="M343.119 550.612L352.325 523.773L353.481 534.016L343.119 550.612Z" stroke="white" stroke-width="0.1" stroke-miterlimit="10" stroke-linejoin="round"/>
<path d="M335.095 552.852L342.848 531.997L343.119 550.612L335.095 552.852Z" stroke="white" stroke-width="0.1" stroke-miterlimit="10" stroke-linejoin="round"/>
<path d="M352.325 523.773L342.849 531.997L343.119 550.612L352.325 523.773Z" stroke="white" stroke-width="0.1" stroke-miterlimit="10" stroke-linejoin="round"/>
<path d="M353.481 534.016L366.404 524.635L361.85 541.083L353.481 534.016Z" stroke="white" stroke-width="0.1" stroke-miterlimit="10" stroke-linejoin="round"/>
<path d="M366.403 524.635L370.243 537.857L361.85 541.083L366.403 524.635Z" stroke="white" stroke-width="0.1" stroke-miterlimit="10" stroke-linejoin="round"/>
<path d="M370.243 537.857L366.329 554.896L361.85 541.083L370.243 537.857Z" stroke="white" stroke-width="0.1" stroke-miterlimit="10" stroke-linejoin="round"/>
<path d="M372.311 559.55L370.244 537.857L366.33 554.896L372.311 559.55Z" stroke="white" stroke-width="0.1" stroke-miterlimit="10" stroke-linejoin="round"/>
<path d="M352.324 523.773L357.148 512.594L353.481 534.016L352.324 523.773Z" stroke="white" stroke-width="0.1" stroke-miterlimit="10" stroke-linejoin="round"/>
<path d="M357.149 512.594L366.404 524.635L353.481 534.016L357.149 512.594Z" stroke="white" stroke-width="0.1" stroke-miterlimit="10" stroke-linejoin="round"/>
<path d="M373.443 491.69L382.28 482.481L379.006 508.975L373.443 491.69Z" stroke="white" stroke-width="0.1" stroke-miterlimit="10" stroke-linejoin="round"/>
<path d="M382.279 482.481L388.999 486.051L379.006 508.975L382.279 482.481Z" stroke="white" stroke-width="0.1" stroke-miterlimit="10" stroke-linejoin="round"/>
<path d="M382.279 482.481L391.952 462.586L388.999 486.051L382.279 482.481Z" stroke="white" stroke-width="0.1" stroke-miterlimit="10" stroke-linejoin="round"/>
<path d="M402.069 463.472L391.953 462.586L388.999 486.051L402.069 463.472Z" stroke="white" stroke-width="0.1" stroke-miterlimit="10" stroke-linejoin="round"/>
<path d="M382.28 482.481L379.671 467.609L373.443 491.69L382.28 482.481Z" stroke="white" stroke-width="0.1" stroke-miterlimit="10" stroke-linejoin="round"/>
<path d="M379.671 467.609L366.945 477.458L373.443 491.69L379.671 467.609Z" stroke="white" stroke-width="0.1" stroke-miterlimit="10" stroke-linejoin="round"/>
<path d="M379.67 467.609L391.952 462.586L382.279 482.481L379.67 467.609Z" stroke="white" stroke-width="0.1" stroke-miterlimit="10" stroke-linejoin="round"/>
<path d="M357.148 512.595L371.104 498.954L366.403 524.635L357.148 512.595Z" stroke="white" stroke-width="0.1" stroke-miterlimit="10" stroke-linejoin="round"/>
<path d="M371.104 498.954L379.005 508.975L366.403 524.635L371.104 498.954Z" stroke="white" stroke-width="0.1" stroke-miterlimit="10" stroke-linejoin="round"/>
<path d="M379.005 508.975L376.618 533.844L366.403 524.635L379.005 508.975Z" stroke="white" stroke-width="0.1" stroke-miterlimit="10" stroke-linejoin="round"/>
<path d="M376.618 533.844L370.243 537.857L366.403 524.635L376.618 533.844Z" stroke="white" stroke-width="0.1" stroke-miterlimit="10" stroke-linejoin="round"/>
<path d="M363.056 463.472L366.969 477.384L372.433 452.86L363.056 463.472Z" stroke="white" stroke-width="0.1" stroke-miterlimit="10" stroke-linejoin="round"/>
<path d="M363.056 463.472L359.118 481.422L366.97 477.384L363.056 463.472Z" stroke="white" stroke-width="0.1" stroke-miterlimit="10" stroke-linejoin="round"/>
<path d="M379.005 508.975L371.104 498.954L373.443 491.69L379.005 508.975Z" stroke="white" stroke-width="0.1" stroke-miterlimit="10" stroke-linejoin="round"/>
<path d="M373.443 491.69L363.819 490.114L371.105 498.954L373.443 491.69Z" stroke="white" stroke-width="0.1" stroke-miterlimit="10" stroke-linejoin="round"/>
<path d="M363.819 490.114L366.97 477.384L373.443 491.69L363.819 490.114Z" stroke="white" stroke-width="0.1" stroke-miterlimit="10" stroke-linejoin="round"/>
<path d="M359.118 481.422L363.819 490.114L366.97 477.384L359.118 481.422Z" stroke="white" stroke-width="0.1" stroke-miterlimit="10" stroke-linejoin="round"/>
<path d="M363.819 490.114L357.148 512.594L371.104 498.954L363.819 490.114Z" stroke="white" stroke-width="0.1" stroke-miterlimit="10" stroke-linejoin="round"/>
<path d="M355.573 493.167L357.148 512.595L352.324 523.773L355.573 493.167Z" stroke="white" stroke-width="0.1" stroke-miterlimit="10" stroke-linejoin="round"/>
<path d="M346.615 520.966L352.325 523.773L342.849 531.997L346.615 520.966Z" stroke="white" stroke-width="0.1" stroke-miterlimit="10" stroke-linejoin="round"/>
<path d="M349.248 513.506L352.325 523.773L346.614 520.966L349.248 513.506Z" stroke="white" stroke-width="0.1" stroke-miterlimit="10" stroke-linejoin="round"/>
<path d="M349.248 513.506L352.325 523.773L355.574 493.167L349.248 513.506Z" stroke="white" stroke-width="0.1" stroke-miterlimit="10" stroke-linejoin="round"/>
<path d="M355.573 493.167L363.819 490.114L357.149 512.594L355.573 493.167Z" stroke="white" stroke-width="0.1" stroke-miterlimit="10" stroke-linejoin="round"/>
<path d="M359.118 481.422L355.573 493.167L363.819 490.114L359.118 481.422Z" stroke="white" stroke-width="0.1" stroke-miterlimit="10" stroke-linejoin="round"/>
<path d="M372.434 452.86L379.67 467.609L366.97 477.384L372.434 452.86Z" stroke="white" stroke-width="0.1" stroke-miterlimit="10" stroke-linejoin="round"/>
<path d="M379.006 508.975L386.661 511.093L388.999 486.051L379.006 508.975Z" stroke="white" stroke-width="0.1" stroke-miterlimit="10" stroke-linejoin="round"/>
<path d="M388.998 486.051L396.481 506.857L386.66 511.093L388.998 486.051Z" stroke="white" stroke-width="0.1" stroke-miterlimit="10" stroke-linejoin="round"/>
<path d="M402.069 463.472L399.534 483.072L388.999 486.051L402.069 463.472Z" stroke="white" stroke-width="0.1" stroke-miterlimit="10" stroke-linejoin="round"/>
<path d="M399.534 483.072L396.482 506.858L388.999 486.051L399.534 483.072Z" stroke="white" stroke-width="0.1" stroke-miterlimit="10" stroke-linejoin="round"/>
<path d="M386.661 511.093L376.618 533.844L379.006 508.975L386.661 511.093Z" stroke="white" stroke-width="0.1" stroke-miterlimit="10" stroke-linejoin="round"/>
<path d="M376.618 533.844L372.311 559.55L370.243 537.857L376.618 533.844Z" stroke="white" stroke-width="0.1" stroke-miterlimit="10" stroke-linejoin="round"/>
<path d="M376.618 533.844L382.205 541.157L372.311 559.55L376.618 533.844Z" stroke="white" stroke-width="0.1" stroke-miterlimit="10" stroke-linejoin="round"/>
<path d="M376.618 533.844L386.661 511.093L382.205 541.157L376.618 533.844Z" stroke="white" stroke-width="0.1" stroke-miterlimit="10" stroke-linejoin="round"/>
<path d="M396.481 506.857L382.205 541.157L386.66 511.093L396.481 506.857Z" stroke="white" stroke-width="0.1" stroke-miterlimit="10" stroke-linejoin="round"/>
<path d="M372.311 559.55L375.387 575.826L366.256 576.22L372.311 559.55Z" stroke="white" stroke-width="0.1" stroke-miterlimit="10" stroke-linejoin="round"/>
<path d="M372.311 559.55L375.387 575.825L382.205 541.157L372.311 559.55Z" stroke="white" stroke-width="0.1" stroke-miterlimit="10" stroke-linejoin="round"/>
<path d="M366.255 576.219L375.387 575.825L365.96 590.722L366.255 576.219Z" stroke="white" stroke-width="0.1" stroke-miterlimit="10" stroke-linejoin="round"/>
<path d="M365.961 590.722L368.644 602.344L361.038 592.224L365.961 590.722Z" stroke="white" stroke-width="0.1" stroke-miterlimit="10" stroke-linejoin="round"/>
<path d="M375.388 575.825L387.03 552.853L384.889 579.888L375.388 575.825Z" stroke="white" stroke-width="0.1" stroke-miterlimit="10" stroke-linejoin="round"/>
<path d="M375.388 575.825L382.156 599.931L384.889 579.888L375.388 575.825Z" stroke="white" stroke-width="0.1" stroke-miterlimit="10" stroke-linejoin="round"/>
<path d="M375.387 575.825L382.156 599.931L365.96 590.722L375.387 575.825Z" stroke="white" stroke-width="0.1" stroke-miterlimit="10" stroke-linejoin="round"/>
<path d="M378.587 615.049L382.156 599.931L365.96 590.722L378.587 615.049Z" stroke="white" stroke-width="0.1" stroke-miterlimit="10" stroke-linejoin="round"/>
<path d="M363.573 608.968L378.588 615.049L368.644 602.344L363.573 608.968Z" stroke="white" stroke-width="0.1" stroke-miterlimit="10" stroke-linejoin="round"/>
<path d="M382.206 541.157L387.03 552.853L375.388 575.825L382.206 541.157Z" stroke="white" stroke-width="0.1" stroke-miterlimit="10" stroke-linejoin="round"/>
<path d="M382.205 541.157L393.355 534.016L387.029 552.853L382.205 541.157Z" stroke="white" stroke-width="0.1" stroke-miterlimit="10" stroke-linejoin="round"/>
<path d="M396.481 506.857L393.355 534.016L382.205 541.157L396.481 506.857Z" stroke="white" stroke-width="0.1" stroke-miterlimit="10" stroke-linejoin="round"/>
<path d="M379.67 467.609L386.931 452.589L391.952 462.586L379.67 467.609Z" stroke="white" stroke-width="0.1" stroke-miterlimit="10" stroke-linejoin="round"/>
<path d="M400.124 456.282L391.952 462.586L402.068 463.472L400.124 456.282Z" stroke="white" stroke-width="0.1" stroke-miterlimit="10" stroke-linejoin="round"/>
<path d="M363.056 463.472L367.905 452.589L372.433 452.86L363.056 463.472Z" stroke="white" stroke-width="0.1" stroke-miterlimit="10" stroke-linejoin="round"/>
<path d="M358.281 191.49C364.41 226.011 371.868 260.237 379.055 294.635C382.698 311.821 386.045 329.082 389.442 346.416C392.789 363.775 395.866 381.208 398.229 399.035C398.894 403.467 399.337 407.973 399.853 412.479C400.42 416.96 400.74 421.54 401.084 426.12C401.527 430.675 401.626 435.378 401.773 440.081C402.019 444.784 401.798 449.462 401.773 454.165C401.256 472.829 399.312 490.877 396.949 508.778C394.512 526.654 391.854 544.432 388.679 562.086L383.855 588.58C382.156 597.469 380.458 606.087 378.563 615.296L317.964 595.868C321.311 588.383 324.634 580.233 327.834 572.304C331.009 564.302 334.184 556.3 337.113 548.224C343.021 532.071 348.756 515.845 353.678 499.495C358.576 483.17 363.031 466.723 366.084 450.57C366.723 446.557 367.634 442.518 367.979 438.48C368.446 434.442 368.963 430.404 369.16 426.194C369.456 422.032 369.751 417.847 369.849 413.587C369.972 409.327 370.169 405.092 370.145 400.808C370.366 383.67 369.825 366.287 369.013 348.879C368.274 331.446 366.994 314.013 365.714 296.531C363.204 261.591 360.078 226.578 357.813 191.589L358.281 191.49Z" fill="url(#paint4_linear_772_1066)"/>
<path d="M358.281 191.49C364.41 226.011 371.868 260.237 379.055 294.635C382.698 311.821 386.045 329.082 389.442 346.416C392.789 363.775 395.866 381.208 398.229 399.035C398.894 403.467 399.337 407.973 399.853 412.479C400.42 416.96 400.74 421.54 401.084 426.12C401.527 430.675 401.626 435.378 401.773 440.081C402.019 444.784 401.798 449.462 401.773 454.165C401.256 472.829 399.312 490.877 396.949 508.778C394.512 526.654 391.854 544.432 388.679 562.086L383.855 588.58C382.156 597.469 380.458 606.087 378.563 615.296L317.964 595.868C321.311 588.383 324.634 580.233 327.834 572.304C331.009 564.302 334.184 556.3 337.113 548.224C343.021 532.071 348.756 515.845 353.678 499.495C358.576 483.17 363.031 466.723 366.084 450.57C366.723 446.557 367.634 442.518 367.979 438.48C368.446 434.442 368.963 430.404 369.16 426.194C369.456 422.032 369.751 417.847 369.849 413.587C369.972 409.327 370.169 405.092 370.145 400.808C370.366 383.67 369.825 366.287 369.013 348.879C368.274 331.446 366.994 314.013 365.714 296.531C363.204 261.591 360.078 226.578 357.813 191.589L358.281 191.49Z" stroke="#65FFFF" stroke-width="0.4727" stroke-miterlimit="10"/>
<defs>
<linearGradient id="paint0_linear_772_1066" x1="227.886" y1="18.2177" x2="166.635" y2="117.459" gradientUnits="userSpaceOnUse">
<stop stop-color="#65FFFF"/>
<stop offset="0.146" stop-color="#65FFFF" stop-opacity="0.854"/>
<stop offset="1" stop-color="#65FFFF" stop-opacity="0"/>
</linearGradient>
<linearGradient id="paint1_linear_772_1066" x1="187.263" y1="84.0835" x2="117.762" y2="196.692" gradientUnits="userSpaceOnUse">
<stop stop-color="#65FFFF"/>
<stop offset="0.1413" stop-color="#65FFFF" stop-opacity="0.8587"/>
<stop offset="1" stop-color="#65FFFF" stop-opacity="0"/>
</linearGradient>
<linearGradient id="paint2_linear_772_1066" x1="457.561" y1="61.6251" x2="503.847" y2="136.619" gradientUnits="userSpaceOnUse">
<stop stop-color="#65FFFF"/>
<stop offset="0.146" stop-color="#65FFFF" stop-opacity="0.854"/>
<stop offset="1" stop-color="#65FFFF" stop-opacity="0"/>
</linearGradient>
<linearGradient id="paint3_linear_772_1066" x1="488.258" y1="111.398" x2="540.778" y2="196.494" gradientUnits="userSpaceOnUse">
<stop stop-color="#65FFFF"/>
<stop offset="0.1413" stop-color="#65FFFF" stop-opacity="0.8587"/>
<stop offset="1" stop-color="#65FFFF" stop-opacity="0"/>
</linearGradient>
<linearGradient id="paint4_linear_772_1066" x1="317.966" y1="403.385" x2="401.892" y2="403.385" gradientUnits="userSpaceOnUse">
<stop offset="0.2682" stop-color="#65FFFF" stop-opacity="0"/>
<stop offset="0.8988" stop-color="#65FFFF" stop-opacity="0.8617"/>
<stop offset="1" stop-color="#65FFFF"/>
</linearGradient>
</defs>
</svg>
