<?xml version="1.0" encoding="UTF-8"?>
<svg width="19px" height="19px" viewBox="0 0 19 19" version="1.1" xmlns="http://www.w3.org/2000/svg" xmlns:xlink="http://www.w3.org/1999/xlink">
    <title>information-button</title>
    <g id="Symbols" stroke="none" stroke-width="1" fill="none" fill-rule="evenodd">
        <g id="section/hero/desktop" transform="translate(-1011.000000, -819.000000)" fill="#575757" fill-rule="nonzero">
            <g id="information-button" transform="translate(1011.000000, 819.000000)">
                <path d="M9.49959788,0 C4.2535873,0 0,4.2535873 0,9.49959788 C0,14.7456085 4.2535873,19 9.49959788,19 C14.7456085,19 19,14.7456085 19,9.49959788 C19,4.2535873 14.7456085,0 9.49959788,0 Z M11.4772063,14.7230899 C10.9882328,14.9161058 10.5989841,15.0624762 10.3070476,15.1638095 C10.0159153,15.2651429 9.67733333,15.3158095 9.29210582,15.3158095 C8.70019048,15.3158095 8.23936508,15.1710476 7.9112381,14.882328 C7.58311111,14.5936085 7.41985185,14.2276825 7.41985185,13.7829418 C7.41985185,13.6100317 7.43191534,13.4331005 7.45604233,13.2529524 C7.48097354,13.0728042 7.52038095,12.8701376 7.57426455,12.6425397 L8.18628571,10.4807619 C8.24016931,10.2732698 8.28681481,10.0762328 8.32380952,9.89286772 C8.36080423,9.70789418 8.37849735,9.53820106 8.37849735,9.38378836 C8.37849735,9.10874074 8.32139683,8.91572487 8.208,8.80715344 C8.09299471,8.69858201 7.87665608,8.64550265 7.55415873,8.64550265 C7.3965291,8.64550265 7.23407407,8.6688254 7.06759788,8.7178836 C6.90273016,8.76855026 6.75957672,8.81439153 6.64215873,8.85942857 L6.80380952,8.19352381 C7.20431746,8.03026455 7.58793651,7.89032804 7.95386243,7.77451852 C8.31978836,7.65710053 8.66560847,7.59919577 8.99132275,7.59919577 C9.57921693,7.59919577 10.0328042,7.74234921 10.3520847,8.02543915 C10.6697566,8.30933333 10.8297989,8.67847619 10.8297989,9.13206349 C10.8297989,9.22615873 10.8185397,9.39183069 10.7968254,9.62827513 C10.7751111,9.86552381 10.7340952,10.0818624 10.674582,10.2805079 L10.0657778,12.4358519 C10.0159153,12.6087619 9.97168254,12.8066032 9.9314709,13.0277672 C9.89206349,13.2489312 9.8727619,13.4178201 9.8727619,13.5312169 C9.8727619,13.8175238 9.9362963,14.0129524 10.0649735,14.1166984 C10.1920423,14.2204444 10.4148148,14.2727196 10.7300741,14.2727196 C10.8788571,14.2727196 11.0453333,14.2461799 11.2335238,14.194709 C11.4201058,14.1432381 11.5552169,14.0973968 11.6404656,14.0579894 L11.4772063,14.7230899 Z M11.3694392,5.9746455 C11.085545,6.23843386 10.743746,6.37032804 10.3440423,6.37032804 C9.94514286,6.37032804 9.60093122,6.23843386 9.31462434,5.9746455 C9.02992593,5.71085714 8.88596825,5.38996825 8.88596825,5.01519577 C8.88596825,4.64122751 9.03073016,4.31953439 9.31462434,4.05333333 C9.60093122,3.78632804 9.94514286,3.65362963 10.3440423,3.65362963 C10.743746,3.65362963 11.0863492,3.78632804 11.3694392,4.05333333 C11.6533333,4.31953439 11.7956825,4.64122751 11.7956825,5.01519577 C11.7956825,5.39077249 11.6533333,5.71085714 11.3694392,5.9746455 Z" id="Shape"></path>
            </g>
        </g>
    </g>
</svg>