<svg width="851" height="467" viewBox="0 0 851 467" fill="none" xmlns="http://www.w3.org/2000/svg">
<path opacity="0.5" d="M2.25098 287.819L503.015 29.6548L548.464 456.019L2.25098 287.819Z" fill="white" stroke="#466677" stroke-miterlimit="10"/>
<path d="M837.403 307.465C796.263 429.23 663.772 494.724 541.505 453.754C419.238 412.783 353.474 280.835 394.613 159.07C435.752 37.3052 568.244 -28.1889 690.511 12.7815C812.778 53.752 878.542 185.7 837.403 307.465Z" fill="white" stroke="#466677" stroke-miterlimit="10"/>
<path d="M769.337 236.746C766.259 325.138 697.47 394.524 615.674 391.698C533.877 388.873 470.067 314.929 473.145 226.537C476.223 138.119 545.012 68.7595 626.808 71.5584C708.578 74.4106 772.388 148.355 769.337 236.746Z" fill="white"/>
<path d="M678.815 83.7403C679.832 80.8881 680.795 78.1958 681.946 76.0367C684.623 70.892 687.728 65.1077 685.051 58.2037C684.088 55.8047 682.455 53.4323 680.207 51.5397C677.931 49.6738 675.094 48.0211 671.989 46.555C665.833 43.3829 658.258 42.1034 651.433 41.1438C649.961 40.9572 648.516 40.744 647.07 40.5574C645.625 40.4241 644.153 40.3974 642.707 40.3441C639.817 40.2375 636.953 40.1309 634.116 40.0243C628.441 39.6244 622.847 40.1042 617.253 40.3175L608.875 40.6907C606.092 41.0105 603.281 41.3038 600.471 41.6236C597.633 41.8902 594.796 42.1568 591.932 42.4233C589.068 42.7432 586.231 43.303 583.287 43.7028C579.834 44.1826 576.595 44.7957 573.491 45.5154C570.466 46.3951 567.629 47.5146 564.925 48.6342C562.222 49.7804 559.626 51.0332 557.137 52.3661C554.701 53.7788 552.426 55.5115 550.177 57.2175C549.91 57.4307 549.615 57.6706 549.348 57.9105C545.761 61.6424 542.442 65.2676 541.8 69.7725C540.167 79.7685 546.002 86.6192 550.713 93.4964C555.611 100.8 559.893 109.73 569.181 112.929C571.778 113.995 574.32 114.448 576.81 114.421C579.326 114.448 581.681 113.675 584.25 113.302C586.766 112.769 589.256 111.916 591.691 110.903C594.154 109.997 596.697 109.33 599.052 108.424C606.948 105.572 615.62 104.452 624.025 105.252C625.256 105.278 626.46 105.518 627.692 105.812L631.332 106.585L634.972 107.278L636.792 107.571L638.559 108.051C643.269 109.357 648.087 109.73 653.039 110.077C656.974 110.103 660.346 109.064 663.076 107.864C665.86 106.505 668.215 104.399 670.223 101.84C674.211 96.7751 676.673 89.8712 678.815 83.7403Z" fill="#428B3D"/>
<path d="M576.489 115.674C573.812 115.674 571.162 115.141 568.646 114.102C560.509 111.303 556.173 104.425 551.944 97.8147C551.168 96.5886 550.392 95.3624 549.616 94.2162C549.107 93.4964 548.598 92.7501 548.063 92.0037C543.593 85.6062 538.963 78.9955 540.488 69.5592C541.157 64.8411 544.45 61.0826 548.384 57.0042L549.723 55.9113C551.864 54.2853 554.059 52.606 556.468 51.2198C559.037 49.8337 561.687 48.5809 564.39 47.4347C567.067 46.3151 569.958 45.1689 573.116 44.2626C576.328 43.5162 579.674 42.9031 583.1 42.4233C584.385 42.2634 585.642 42.0501 586.9 41.8635C588.533 41.597 590.166 41.3304 591.772 41.1705L608.715 39.4378L617.2 39.0646C618.404 39.0113 619.609 38.958 620.813 38.8781C625.31 38.6381 630.208 38.4516 634.223 38.7448L644.233 39.118C645.224 39.1446 646.241 39.1979 647.231 39.2779L651.647 39.891C658.499 40.8506 666.315 42.1568 672.632 45.4355C675.978 47.0082 678.815 48.7408 681.063 50.5534C683.365 52.4727 685.158 54.9517 686.309 57.7506C689.147 65.081 685.881 71.3452 683.285 76.3832L683.151 76.6498C682.08 78.7023 681.17 81.1813 680.1 84.1935C678.199 89.6846 675.576 97.2283 671.267 102.666C669.019 105.545 666.449 107.678 663.665 109.037C660.079 110.636 656.679 111.383 653.227 111.383C653.2 111.383 652.986 111.383 652.959 111.383C648.409 111.063 643.243 110.69 638.238 109.304L636.471 108.824L631.118 107.864L627.451 107.091C626.407 106.825 625.203 106.585 624.052 106.558C622.232 106.371 620.465 106.291 618.698 106.291C612.221 106.291 605.61 107.464 599.534 109.65C598.33 110.103 597.072 110.503 595.787 110.903C594.582 111.276 593.378 111.649 592.2 112.102C589.47 113.249 586.954 114.075 584.572 114.555C583.635 114.688 582.805 114.875 582.002 115.035C580.396 115.354 578.764 115.701 577.024 115.701H576.489V115.674ZM629.325 41.1438C626.514 41.1438 623.65 41.2771 620.893 41.437C619.689 41.4903 618.458 41.5703 617.253 41.6236L608.875 41.9968L591.986 43.7295C590.434 43.9161 588.854 44.156 587.248 44.4225C585.964 44.6358 584.679 44.8224 583.394 45.009C580.048 45.4888 576.783 46.1019 573.705 46.7949C570.761 47.6746 567.923 48.7941 565.327 49.8604C562.704 50.9799 560.108 52.2061 557.645 53.5389C555.424 54.8184 553.282 56.4444 551.195 58.0171L550.124 58.8701C546.511 62.6553 543.62 65.934 543.031 69.9324C541.666 78.3558 545.975 84.54 550.178 90.511C550.713 91.2573 551.222 92.0037 551.73 92.7767C552.533 93.9763 553.309 95.2024 554.112 96.4553C558.074 102.719 562.196 109.197 569.556 111.729C571.858 112.689 574.16 113.142 576.489 113.142H576.729C578.362 113.142 579.808 112.849 581.36 112.529C582.217 112.342 583.1 112.182 584.01 112.049C586.151 111.596 588.507 110.823 591.13 109.73C592.414 109.25 593.672 108.85 594.904 108.477C596.135 108.077 597.366 107.704 598.544 107.251C606.654 104.319 615.647 103.173 624.105 103.999C625.417 104.026 626.782 104.319 627.933 104.585L638.827 106.851C643.591 108.184 648.623 108.531 653.066 108.85C656.224 108.85 659.276 108.157 662.488 106.745C664.87 105.572 667.118 103.679 669.152 101.12C673.194 96.0288 675.737 88.725 677.584 83.3938C678.681 80.275 679.618 77.6894 680.769 75.5036L680.903 75.2637C683.526 70.199 686.256 64.9744 683.82 58.7369C683.151 57.0842 681.813 54.6585 679.35 52.5793C677.289 50.9 674.613 49.2739 671.427 47.7812C665.432 44.6624 657.857 43.4096 651.219 42.4766L646.856 41.8902C645.973 41.8102 645.009 41.7836 644.073 41.7303L634.035 41.3571C632.537 41.1705 631.011 41.1438 629.325 41.1438Z" fill="#26632A"/>
<path d="M666.851 78.7289C667.413 76.3832 668.002 74.224 668.751 72.4114C670.491 68.1464 672.499 63.3483 669.876 58.1237C666.262 50.5001 653.174 47.1414 642.36 46.395C637.703 46.2351 633.153 46.0752 628.656 45.9419C624.159 46.0485 619.743 46.4217 615.326 46.5816C613.105 46.7416 610.91 46.6883 608.715 46.9282C606.521 47.1681 604.299 47.4346 602.077 47.6745C599.856 47.8878 597.607 48.0744 595.332 48.2876C594.208 48.3676 593.057 48.4742 591.906 48.5542C590.782 48.7141 589.631 48.9007 588.48 49.0607C583.047 49.8603 578.175 50.7933 573.812 52.3927C569.503 54.1786 565.595 56.2578 561.821 58.6302C561.58 58.7901 561.34 58.9501 561.125 59.11C558.021 61.749 555.478 64.9744 554.568 68.2797C552.587 76.01 556.763 81.7944 560.082 87.5521C563.534 93.6297 566.264 100.987 573.866 103.999C577.908 105.465 582.351 105.598 586.714 104.559C587.811 104.292 588.882 103.972 589.979 103.599C591.077 103.253 592.228 103.066 593.325 102.746C595.546 102.133 597.741 101.387 599.829 100.667C606.868 98.6944 614.39 97.2816 621.804 98.0813C626.113 98.1079 630.396 99.494 634.651 99.9739C635.722 100.107 636.793 100.214 637.863 100.294C638.907 100.48 639.951 100.694 641.022 100.827C643.136 101.093 645.278 101.173 647.472 101.013C648.329 100.96 649.159 100.827 649.935 100.694C650.711 100.587 651.434 100.507 652.13 100.347C653.521 100.027 654.753 99.5474 655.904 98.9076C658.152 97.6548 659.972 95.8155 661.391 93.683C664.255 89.3647 665.646 83.7136 666.851 78.7289Z" fill="#C7E099"/>
<path d="M770.381 233.494C773.486 233.201 776.403 232.934 778.946 233.174C784.915 233.707 791.687 234.347 797.013 227.55C798.887 225.151 800.305 221.979 801.322 218.274C802.072 214.595 802.366 210.383 802.366 205.932C802.366 203.693 802.286 201.4 802.152 199.108C801.831 196.815 801.43 194.496 801.001 192.177C800.064 187.566 799.208 182.901 797.789 178.636C796.531 174.984 795.273 171.385 794.015 167.814C793.373 166.028 792.757 164.268 792.115 162.509L789.813 157.364C788.287 153.952 786.762 150.594 785.263 147.208C783.71 143.876 781.783 140.704 780.07 137.426C773.272 124.337 764.814 112.236 755.767 99.4672C749.905 92.3501 744.498 85.9793 738.101 81.2611C734.97 78.8354 731.972 76.463 728.706 74.4905C725.387 72.5979 722.015 70.8386 718.616 69.2126C718.187 69.026 717.732 68.8127 717.304 68.6261C714.146 67.3999 710.827 66.6269 707.722 66.2537C704.644 65.8272 701.753 65.8006 699.264 66.387C696.4 67.0534 694.125 68.1463 692.278 69.5324C690.377 70.9985 688.905 72.6778 687.701 74.5171C685.292 78.1957 683.873 82.3807 682.294 86.3524C680.635 90.5374 678.226 94.7225 676.941 99.2007C675.629 103.652 675.228 108.69 677.102 114.181C678.092 117.22 679.832 119.699 681.652 122.525C682.589 123.858 683.659 125.137 684.81 126.363C685.934 127.589 687.273 128.656 688.424 130.015C690.779 132.654 693.643 134.867 696.32 137.346C698.862 139.958 701.646 142.357 704.189 144.783C712.326 153.153 719.285 163.335 723.621 174.451C728.466 187.646 729.938 201.667 734.515 214.862C735.371 217.474 736.415 219.766 737.593 221.712C738.663 223.685 739.68 225.391 740.938 226.83C743.428 229.709 746.399 231.548 749.664 232.695C756.222 234.907 763.743 234.187 770.381 233.494Z" fill="#428B3D"/>
<path d="M760.263 235.467C755.981 235.467 752.394 234.934 749.289 233.841C745.596 232.561 742.491 230.456 740.028 227.603C738.61 225.977 737.486 224.085 736.522 222.272C735.291 220.193 734.22 217.821 733.364 215.208C731.169 208.838 729.643 202.2 728.198 195.749C726.619 188.819 724.986 181.622 722.497 174.851C718.455 164.455 711.817 154.352 703.332 145.636C702.449 144.783 701.512 143.93 700.548 143.05C698.862 141.504 697.122 139.905 695.463 138.199C694.633 137.426 693.723 136.653 692.84 135.853C691.047 134.28 689.173 132.628 687.54 130.842C686.898 130.069 686.202 129.429 685.533 128.789C684.971 128.256 684.435 127.75 683.927 127.19C682.722 125.937 681.625 124.604 680.661 123.245L680.046 122.285C678.413 119.779 676.887 117.434 675.951 114.555C674.211 109.437 674.157 104.292 675.763 98.8011C676.593 95.9222 677.878 93.1766 679.109 90.511C679.832 88.9383 680.554 87.3922 681.17 85.8462L681.919 83.9003C683.231 80.4883 684.596 76.943 686.71 73.771C688.129 71.6118 689.708 69.8792 691.582 68.4664C693.723 66.867 696.159 65.7741 699.05 65.1077C701.512 64.5213 704.403 64.4946 707.963 64.9478C711.335 65.3743 714.761 66.2273 717.839 67.4002L719.231 68.0132C722.737 69.6926 726.163 71.4785 729.429 73.3445C732.614 75.2904 735.451 77.5028 738.476 79.8486L738.984 80.2484C745.301 84.9132 750.601 91.0708 756.864 98.6411C765.456 110.77 774.262 123.245 781.301 136.813C781.917 137.986 782.559 139.158 783.229 140.331C784.353 142.357 785.504 144.463 786.521 146.622L793.373 161.923L799.074 178.156C800.332 181.995 801.189 186.153 801.991 190.178L802.339 191.858C802.794 194.203 803.169 196.549 803.49 198.868C803.651 201.374 803.731 203.693 803.731 205.879C803.731 210.677 803.383 214.915 802.661 218.487C801.563 222.539 800.038 225.817 798.11 228.296C793.614 234.001 788.287 234.721 784.165 234.721C782.426 234.721 780.713 234.561 779.053 234.427C778.25 234.347 777.554 234.321 776.831 234.321C774.931 234.321 772.87 234.507 770.568 234.721C767.544 235.094 763.877 235.467 760.263 235.467ZM703.519 67.1869C702.074 67.1869 700.763 67.3202 699.638 67.5867C697.096 68.1732 694.981 69.1328 693.134 70.4923C691.528 71.7184 690.11 73.2645 688.852 75.1571C686.898 78.1159 685.586 81.5279 684.328 84.8066L683.579 86.7525C682.936 88.3519 682.214 89.9512 681.464 91.5506C680.287 94.1096 679.029 96.7752 678.252 99.4675C676.78 104.425 676.834 109.064 678.413 113.675C679.243 116.234 680.635 118.367 682.214 120.819L682.803 121.725C683.659 122.925 684.676 124.178 685.827 125.377C686.309 125.91 686.818 126.39 687.326 126.87C688.049 127.563 688.798 128.256 689.494 129.082C690.993 130.735 692.706 132.254 694.553 133.854C695.463 134.654 696.373 135.453 697.283 136.28C698.943 137.959 700.655 139.558 702.315 141.078C703.279 141.957 704.242 142.837 705.152 143.743C713.905 152.726 720.73 163.122 724.905 173.865C727.475 180.849 729.135 188.099 730.714 195.11C732.159 201.48 733.658 208.064 735.826 214.302C736.629 216.754 737.619 218.967 738.797 220.939C739.734 222.672 740.724 224.431 742.009 225.844C744.177 228.35 746.934 230.189 750.199 231.335C753.037 232.348 756.329 232.828 760.317 232.828C763.77 232.828 767.383 232.455 770.301 232.162C773.62 231.842 776.51 231.602 779.133 231.842C780.873 232.002 782.506 232.135 784.165 232.135C787.939 232.135 792.329 231.495 796.103 226.697C797.816 224.511 799.181 221.526 800.171 217.874C800.841 214.542 801.188 210.49 801.188 205.852C801.188 203.72 801.108 201.454 800.974 199.108C800.68 196.922 800.278 194.63 799.85 192.337L799.502 190.658C798.699 186.713 797.896 182.635 796.665 178.956L791.017 162.856L784.219 147.662C783.255 145.609 782.104 143.53 781.007 141.557C780.338 140.358 779.695 139.158 779.053 137.959C772.094 124.551 763.315 112.129 754.857 100.161C748.781 92.8034 743.588 86.7525 737.485 82.2476L736.95 81.8478C733.979 79.5553 731.195 77.3695 728.198 75.5303C725.013 73.7177 721.64 71.9584 718.214 70.3057L716.929 69.7192C714.119 68.653 710.907 67.8533 707.722 67.4535C706.089 67.2935 704.751 67.1869 703.519 67.1869Z" fill="#26632A"/>
<path d="M770.274 222.165C772.576 221.739 774.744 221.392 776.617 221.472C778.812 221.579 781.167 221.632 783.469 220.966C785.798 220.273 787.993 218.86 789.679 215.848C790.883 213.742 791.686 211.023 792.168 207.878C792.57 204.759 792.998 201.16 792.489 197.482C791.713 190.072 790.214 181.861 787.511 174.798C779.08 150.274 767.169 129.829 752.1 108.61C750.012 105.358 747.549 102.666 745.167 100.08C742.785 97.4948 740.43 95.0691 738.074 92.8033C732.962 88.645 727.93 84.9398 722.496 81.821C722.148 81.6611 721.747 81.4478 721.399 81.2879C716.099 79.1821 710.96 77.3961 706.919 77.716C697.39 78.9955 695.275 85.6062 692.519 91.3106C691.073 94.3494 689.012 97.2549 687.915 100.56C686.737 103.919 686.71 107.358 688.37 112.236C692.385 122.098 704.188 131.455 713.209 141.317C715.029 143.397 716.849 145.476 718.669 147.582C720.328 149.794 721.854 152.167 723.433 154.459L725.708 157.924C726.458 159.097 727.02 160.403 727.662 161.656C728.893 164.162 730.098 166.694 731.249 169.226C735.853 181.462 738.449 194.363 742.705 206.598C748.7 225.951 760.263 224.138 770.274 222.165Z" fill="#C7E099"/>
<path d="M712.621 357.232C714.789 359.338 716.796 361.337 718.295 363.31C721.828 367.895 725.789 373.172 733.07 373.679C738.102 373.945 744.097 371.653 749.076 367.228C751.645 365.096 754.161 362.617 756.517 360.004C758.926 357.419 760.773 354.406 762.673 351.661C775.307 332.442 783.336 313.516 792.41 292.778C794.792 286.567 796.612 280.809 797.576 275.238C798.272 269.613 798.379 264.202 798.084 258.791C798.058 258.444 798.031 258.098 798.004 257.751C796.773 252.873 795.06 248.235 791.955 245.276C784.728 238.506 775.735 239.412 767.357 239.439C758.524 239.439 748.728 237.866 740.618 243.997C738.369 245.65 736.871 247.675 735.452 249.861C733.98 252.047 732.909 254.499 732.133 257.085C731.732 258.391 731.437 259.724 731.169 261.083C730.795 262.416 730.393 263.749 730.099 265.108C729.456 267.801 728.975 270.573 728.52 273.212C727.369 277.45 726.137 281.769 724.612 286.007C722.658 290.005 720.864 294.164 718.295 297.762C715.083 301.841 712.085 306.079 708.606 309.864C706.919 311.81 705.554 313.969 704.056 315.995C702.503 317.994 701.138 320.127 700.014 322.472C699.157 324.365 698.542 326.151 698.033 327.724C697.578 329.35 697.391 330.976 697.418 332.575C697.471 335.747 698.381 338.813 699.853 341.745C702.771 347.583 707.963 352.701 712.621 357.232Z" fill="#428B3D"/>
<path d="M733.872 374.959C733.578 374.959 733.284 374.959 732.989 374.932C725.227 374.399 720.891 368.774 717.411 364.243C715.859 362.19 713.905 360.271 711.71 358.112C707.267 353.82 701.753 348.462 698.675 342.278C697.016 338.999 696.159 335.721 696.106 332.575C696.079 330.816 696.293 329.057 696.775 327.377C697.337 325.671 697.953 323.859 698.809 321.94C699.933 319.567 701.298 317.381 703.011 315.196C703.466 314.582 703.948 313.889 704.43 313.223C705.42 311.81 706.437 310.371 707.615 309.011C710.131 306.292 712.433 303.28 714.655 300.375C715.538 299.229 716.394 298.109 717.278 296.963C719.312 294.137 720.891 290.832 722.417 287.606L723.461 285.421C724.933 281.236 726.164 276.891 727.261 272.839C727.636 270.493 728.145 267.641 728.814 264.789C729.055 263.696 729.376 262.603 729.67 261.51L729.884 260.71C730.152 259.324 730.473 257.965 730.848 256.685C731.704 253.78 732.855 251.301 734.328 249.115C735.934 246.636 737.459 244.61 739.815 242.904C745.623 238.506 752.287 237.919 758.042 237.919C759.648 237.919 761.281 237.973 762.887 238.026C765.242 238.106 767.544 238.133 769.873 238.106C770.89 238.079 771.88 238.079 772.897 238.079C779.294 238.079 786.628 238.559 792.784 244.317C796.398 247.756 798.111 253.14 799.208 257.432L799.342 258.658C799.663 264.416 799.503 269.88 798.834 275.371C797.897 280.676 796.237 286.327 793.587 293.231L792.035 296.803C783.63 315.995 775.708 334.121 763.717 352.354C763.288 352.967 762.887 353.58 762.459 354.193C760.933 356.459 759.381 358.778 757.427 360.857C754.83 363.683 752.287 366.162 749.852 368.188C745.087 372.48 739.226 374.959 733.872 374.959ZM758.096 240.505C752.502 240.505 746.613 241.038 741.394 244.983C739.36 246.476 737.995 248.262 736.522 250.528C735.184 252.527 734.14 254.766 733.364 257.432C733.016 258.631 732.695 259.884 732.427 261.297L732.186 262.203C731.892 263.243 731.597 264.309 731.356 265.375C730.687 268.147 730.206 270.973 729.804 273.399C728.653 277.61 727.422 282.035 725.843 286.407L724.745 288.699C723.166 292.005 721.533 295.417 719.339 298.482C718.429 299.655 717.572 300.775 716.689 301.894C714.44 304.853 712.085 307.918 709.542 310.691C708.472 311.917 707.481 313.33 706.544 314.662C706.063 315.355 705.581 316.022 705.072 316.688C703.466 318.741 702.208 320.793 701.164 322.952C700.361 324.738 699.773 326.471 699.264 328.044C698.863 329.457 698.675 330.949 698.702 332.469C698.756 335.241 699.532 338.146 701.004 341.079C703.895 346.89 709.248 352.061 713.53 356.219C715.805 358.432 717.813 360.458 719.339 362.457C722.979 367.175 726.592 371.866 733.177 372.32C733.391 372.32 733.658 372.346 733.899 372.346C738.557 372.346 743.91 370.054 748.246 366.189C750.628 364.216 753.09 361.817 755.606 359.072C757.427 357.126 758.925 354.887 760.398 352.701C760.826 352.088 761.227 351.448 761.656 350.835C773.513 332.815 781.382 314.769 789.733 295.683L791.259 292.165C793.828 285.501 795.461 279.983 796.344 274.918C796.987 269.64 797.147 264.336 796.853 258.765L796.773 257.778C795.809 254.02 794.23 249.088 791.098 246.103C784.755 240.185 777.126 240.505 769.98 240.612C767.598 240.638 765.269 240.612 762.86 240.532C761.254 240.558 759.675 240.505 758.096 240.505Z" fill="#26632A"/>
<path d="M722.337 348.649C724.183 350.168 725.923 351.634 727.235 353.074C730.34 356.486 733.846 360.351 739.574 360.271C743.616 360.191 747.898 357.765 751.94 354.327C755.741 350.675 759.14 345.877 762.031 341.452C764.413 337.587 766.34 333.588 768.454 329.776C769.472 327.83 770.569 325.964 771.506 324.019L774.156 318.128C775.869 314.183 777.983 310.424 779.616 306.426C781.275 302.427 783.069 298.429 785.049 294.35C787.324 289.526 788.449 284.887 789.439 280.516C789.867 278.303 790.295 276.171 790.456 274.012C790.536 271.826 790.51 269.667 790.429 267.481C790.402 267.214 790.376 266.921 790.376 266.628C789.626 262.683 788.663 258.951 786.388 256.419C780.874 250.661 773.647 250.874 767.089 250.528C763.61 250.341 759.943 249.728 756.329 249.835C752.743 249.941 749.236 250.741 745.703 253.14C741.822 255.752 739.868 259.697 738.343 264.122C737.459 266.308 736.79 268.627 736.255 270.973C735.666 273.319 735.398 275.744 734.649 277.904C733.552 281.555 732.561 285.314 731.196 288.939C729.563 292.458 727.824 295.896 725.87 299.202C723.3 302.88 720.356 306.346 717.92 310.077C715.03 313.489 712.674 317.195 710.854 321.326C707.669 327.511 708.606 332.762 711.229 337.24C713.825 341.692 718.322 345.37 722.337 348.649Z" fill="#C7E099"/>
<path d="M540.007 367.255C538.508 370.001 537.089 372.56 535.483 374.532C531.736 379.144 527.373 384.342 530.076 392.845C531.094 395.804 533.181 398.549 535.911 401.402C537.277 402.814 538.829 404.2 540.515 405.56C541.345 406.253 542.228 406.919 543.138 407.612C544.102 408.199 545.065 408.785 546.056 409.372C550.071 411.664 554.487 413.823 558.984 415.796C563.614 417.449 568.379 418.781 572.902 419.981C576.756 421.154 580.718 421.687 584.599 422.327C588.507 422.94 592.334 423.579 596.188 424.059C600.043 424.272 603.897 424.512 607.725 424.726L613.452 425.046C615.353 425.179 617.253 424.965 619.18 424.965C622.981 424.859 626.782 424.726 630.609 424.619L633.473 424.539L636.337 424.219L642.065 423.579C645.893 423.1 649.801 422.913 653.655 422.22C657.509 421.527 661.417 420.807 665.352 420.114C683.874 416.276 697.685 409.212 709.114 399.296C709.462 398.976 709.837 398.656 710.185 398.336C712.487 395.804 714.762 393.405 716.448 390.819C718.054 388.153 719.258 385.568 719.74 383.035C721.855 371.493 714.548 365.576 708.686 359.285C705.554 355.979 702.797 352.088 699.211 348.969C695.651 345.85 691.315 343.478 685.533 342.998C682.455 342.865 679.083 342.811 675.924 343.558C674.318 343.904 672.766 344.384 671.187 344.97C669.581 345.477 667.894 345.903 666.288 346.517C663.023 347.689 659.865 349.369 656.492 350.462C653.173 351.688 649.988 353.42 646.723 354.22C636.15 358.219 624.293 359.418 613.051 357.872C611.418 357.579 609.785 357.312 608.153 357.019L605.69 356.619C604.887 356.433 604.084 356.139 603.308 355.9C600.15 354.86 596.911 354.194 593.779 353.207C590.701 352.034 587.57 351.075 584.385 350.328C581.306 349.182 578.175 348.276 574.856 347.689C569.77 346.463 565.595 346.063 561.794 346.836C558.074 347.45 555.049 348.702 552.319 350.782C546.832 354.727 543.165 361.337 540.007 367.255Z" fill="#428B3D"/>
<path d="M614.817 426.351C614.335 426.351 613.854 426.351 613.372 426.298L596.134 425.312C593.244 424.965 590.46 424.512 587.623 424.059L582.885 423.313C579.486 422.78 575.953 422.22 572.527 421.18C568.298 420.061 563.373 418.701 558.528 416.968C553.577 414.809 549.187 412.65 545.386 410.464L542.442 408.705C541.425 407.959 540.515 407.266 539.658 406.546C537.918 405.107 536.312 403.667 534.947 402.281C531.655 398.869 529.782 396.07 528.818 393.245C525.927 384.181 530.531 378.504 534.252 373.919L534.412 373.706C535.911 371.893 537.249 369.521 538.829 366.642C541.692 361.311 545.6 354.007 551.489 349.662C554.38 347.476 557.565 346.143 561.526 345.477C565.193 344.73 569.368 344.944 575.096 346.356C578.174 346.89 581.36 347.769 584.786 349.049C587.703 349.688 590.835 350.648 594.207 351.928C595.626 352.381 597.125 352.781 598.624 353.18C600.31 353.634 601.996 354.06 603.682 354.62C603.95 354.7 604.271 354.806 604.593 354.886C605.048 355.02 605.503 355.18 605.958 355.286L613.238 356.539C624.212 358.058 636.15 356.779 646.24 352.967C648.382 352.434 650.362 351.581 652.45 350.675C653.628 350.168 654.832 349.662 656.037 349.182C657.91 348.569 659.73 347.796 661.497 347.023C662.942 346.383 664.388 345.77 665.86 345.237C666.877 344.837 667.948 344.517 669.018 344.224C669.607 344.037 670.223 343.877 670.811 343.691C672.391 343.078 674.05 342.598 675.683 342.251C677.61 341.798 679.778 341.585 682.455 341.585C683.525 341.585 684.596 341.612 685.613 341.665C691.073 342.118 695.784 344.171 700.093 347.956C702.395 349.955 704.349 352.274 706.25 354.513C707.374 355.819 708.471 357.126 709.622 358.352C710.265 359.045 710.907 359.711 711.549 360.378C716.902 365.949 723.005 372.266 720.998 383.195C720.543 385.674 719.392 388.366 717.545 391.405C715.859 393.964 713.744 396.283 711.496 398.736L711.148 399.136L709.97 400.202C697.658 410.918 683.552 417.608 665.592 421.34L653.842 423.446C651.379 423.899 648.917 424.139 646.508 424.352C645.063 424.486 643.617 424.619 642.199 424.805L633.58 425.765L619.18 426.218C618.484 426.218 617.842 426.245 617.172 426.271C616.423 426.298 615.62 426.351 614.817 426.351ZM565.889 347.636C564.497 347.636 563.239 347.743 562.008 348.009C558.448 348.596 555.611 349.795 553.041 351.714C547.608 355.713 543.861 362.723 541.104 367.841C539.444 370.88 538.052 373.332 536.42 375.332L536.259 375.545C532.592 380.076 528.791 384.741 531.254 392.445C532.084 394.897 533.796 397.376 536.794 400.495C538.079 401.828 539.605 403.187 541.264 404.547C542.094 405.213 542.95 405.88 543.834 406.546L546.564 408.172C550.365 410.358 554.674 412.49 559.438 414.569C564.096 416.222 568.994 417.582 573.196 418.701C576.488 419.714 579.941 420.247 583.233 420.78L587.971 421.527C590.755 421.98 593.538 422.406 596.295 422.753L613.452 423.739C614.683 423.819 615.834 423.766 617.012 423.713C617.708 423.686 618.404 423.659 619.073 423.632L633.339 423.206L641.824 422.246C643.269 422.06 644.715 421.927 646.187 421.767C648.542 421.553 650.978 421.313 653.307 420.887L665.03 418.781C682.508 415.183 696.239 408.652 708.177 398.256L709.515 397.003C711.683 394.631 713.744 392.392 715.297 390.046C716.956 387.3 717.973 384.901 718.401 382.715C720.168 373.066 715.056 367.761 709.622 362.137C708.953 361.47 708.311 360.777 707.668 360.084C706.49 358.831 705.34 357.499 704.189 356.139C702.342 353.98 700.441 351.741 698.3 349.848C694.446 346.463 690.217 344.597 685.372 344.197C684.435 344.171 683.418 344.117 682.374 344.117C679.885 344.117 677.931 344.304 676.165 344.73C674.639 345.05 673.113 345.503 671.588 346.09C670.919 346.303 670.303 346.49 669.687 346.676C668.697 346.97 667.68 347.263 666.716 347.636C665.271 348.142 663.879 348.755 662.487 349.369C660.667 350.142 658.794 350.968 656.84 351.608C655.715 352.034 654.565 352.514 653.414 353.02C651.326 353.927 649.158 354.86 646.963 355.393C636.685 359.311 624.346 360.644 612.81 359.071L605.422 357.792C604.807 357.659 604.298 357.472 603.763 357.312C603.468 357.205 603.174 357.125 602.879 357.046C601.22 356.512 599.56 356.059 597.928 355.633C596.375 355.233 594.85 354.806 593.324 354.327C590.005 353.074 586.981 352.141 584.036 351.474C580.61 350.222 577.559 349.369 574.561 348.835C571.108 348.009 568.351 347.636 565.889 347.636Z" fill="#26632A"/>
<path d="M549.562 373.412C548.652 375.545 547.795 377.544 546.698 379.064C544.128 382.662 541.184 386.74 544.343 393.138C546.484 397.829 552.051 401.854 558.85 405.533C562.195 407.532 566.077 408.812 569.958 410.091C573.865 411.264 577.747 412.677 581.601 413.29C594.77 415.769 607.484 416.915 620.171 416.622C626.514 416.355 632.858 416.489 639.228 415.529C642.413 415.209 645.652 414.863 648.89 414.516C652.129 414.143 655.341 413.37 658.633 412.863C662.488 412.09 666.235 411.611 669.607 410.411C673.007 409.292 676.219 408.092 679.297 406.839C680.849 406.199 682.348 405.586 683.82 404.92C685.239 404.12 686.63 403.321 688.022 402.521C690.779 400.895 693.429 399.189 696.025 397.403C696.347 397.19 696.694 396.923 697.016 396.71C701.245 392.925 704.831 388.74 706.223 384.955C707.802 380.583 707.187 377.171 705.715 374.212C704.269 371.28 702.021 368.881 699.96 366.455C697.792 363.896 695.999 360.804 693.456 358.432C690.886 356.006 687.514 354.14 682.508 353.82C679.752 353.554 677.048 354.22 674.05 354.7C671.053 355.233 668.028 356.139 665.004 357.365C658.74 359.231 652.316 362.164 646.053 363.736C640.968 365.629 635.561 366.109 630.208 367.068C627.504 367.468 624.774 367.282 622.044 367.361C619.341 367.335 616.611 367.548 613.934 366.962C610.829 366.482 607.724 366.002 604.593 365.496C601.515 364.722 598.49 363.843 595.412 363.176C592.307 362.67 589.39 361.444 586.365 360.724C583.341 359.951 580.236 359.445 577.265 358.538C567.602 356.539 561.928 357.312 557.752 360.564C553.63 363.683 551.462 368.828 549.562 373.412Z" fill="#C7E099"/>
<path d="M474.055 250.821C471.057 251.407 468.247 251.914 465.784 252.02C459.976 252.313 453.392 252.607 448.681 258.204C445.201 262.176 444.425 268.147 444.827 274.731C445.094 278.01 445.335 281.502 446.379 284.834C447.316 288.166 448.44 291.498 449.564 294.59C457.888 315.862 468.514 333.455 480.425 352.994C484.066 358.698 487.652 363.656 492.042 367.495C496.298 371.413 500.473 374.958 505.532 377.517C505.853 377.677 506.174 377.837 506.495 377.997C511.367 379.783 515.997 381.329 520.307 380.369C530.237 377.97 534.332 370 538.936 363.043C541.318 359.338 544.289 355.739 546.457 351.767C548.705 347.742 549.99 343.664 549.91 338.546C549.883 335.747 549.267 333.241 548.224 330.976C547.715 329.829 547.073 328.763 546.35 327.724C545.681 326.604 545.012 325.485 544.235 324.418C542.683 322.286 540.809 320.34 538.855 318.421C537.116 316.315 535.242 314.342 533.422 312.45L531.147 310.077L529.166 307.438L525.285 302.054C523.92 300.295 523.064 298.215 522.046 296.243C521.083 294.244 520.173 292.218 519.316 290.192C516.158 280.222 514.391 270.04 509.788 260.657C505.719 253.353 500.527 250.181 494.022 249.221C487.652 248.182 480.425 249.568 474.055 250.821Z" fill="#428B3D"/>
<path d="M517.496 381.942C513.803 381.942 509.975 380.636 506.067 379.197L504.97 378.637C499.483 375.865 494.986 371.919 491.186 368.427C486.287 364.136 482.46 358.565 479.355 353.687C467.792 334.734 456.898 316.848 448.387 295.043C447.048 291.418 446.005 288.193 445.148 285.154C444.158 281.982 443.863 278.703 443.622 275.558L443.569 274.838C443.087 266.841 444.425 261.137 447.744 257.378C452.75 251.407 459.869 251.061 465.597 250.767C468.113 250.661 470.817 250.154 473.841 249.568C478.445 248.662 484.173 247.542 489.526 247.542C491.212 247.542 492.845 247.649 494.317 247.862C501.705 248.928 507.031 252.767 511.019 259.937C514.231 266.441 516.105 273.372 517.898 280.062C518.754 283.235 519.638 286.513 520.655 289.739C521.404 291.551 522.314 293.577 523.305 295.63C523.546 296.083 523.787 296.563 524.027 297.069C524.75 298.588 525.446 300.001 526.41 301.227L532.271 309.278L534.439 311.543C536.233 313.409 538.133 315.435 539.926 317.594C541.746 319.38 543.7 321.406 545.333 323.645C546.163 324.765 546.859 325.938 547.528 327.031C548.251 328.07 548.92 329.216 549.455 330.389C550.606 332.922 551.222 335.64 551.248 338.466C551.302 343.451 550.205 347.716 547.635 352.327C546.243 354.86 544.53 357.259 542.897 359.578C541.934 360.937 540.97 362.297 540.06 363.683C539.552 364.429 539.07 365.202 538.588 365.948C534.386 372.506 530.023 379.303 520.655 381.542C519.638 381.809 518.594 381.942 517.496 381.942ZM489.473 250.101C484.36 250.101 479.007 251.141 474.296 252.074C471.165 252.687 468.381 253.193 465.838 253.3C459.923 253.593 453.981 253.886 449.672 259.004C446.834 262.256 445.683 267.347 446.112 274.625L446.165 275.318C446.406 278.33 446.674 281.475 447.611 284.407C448.467 287.42 449.484 290.592 450.769 294.11C459.2 315.675 470.04 333.455 481.523 352.301C484.521 357.019 488.215 362.403 492.899 366.482C497.476 370.693 501.437 373.945 506.121 376.318L507.085 376.798C511.635 378.477 516.292 379.916 520.039 379.063C528.39 377.064 532.459 370.693 536.393 364.562C536.875 363.789 537.384 363.016 537.892 362.27C538.802 360.884 539.766 359.498 540.783 358.085C542.389 355.819 544.048 353.473 545.387 351.074C547.742 346.863 548.759 342.998 548.679 338.493C548.652 336.014 548.117 333.641 547.1 331.429C546.618 330.389 546.029 329.376 545.333 328.39C544.664 327.244 543.995 326.151 543.219 325.138C541.693 323.032 539.793 321.086 537.972 319.3C536.152 317.114 534.279 315.115 532.512 313.303L530.237 310.93L528.149 308.158L524.268 302.747C523.171 301.334 522.395 299.735 521.645 298.162C521.404 297.682 521.19 297.202 520.949 296.749C519.932 294.617 518.995 292.564 518.192 290.592C517.122 287.233 516.239 283.928 515.355 280.729C513.508 273.852 511.742 267.374 508.69 261.137C505.104 254.686 500.527 251.38 493.889 250.421C492.551 250.208 491.052 250.101 489.473 250.101Z" fill="#26632A"/>
<path d="M475.608 263.642C473.279 264.282 471.084 264.868 469.157 265.082C464.58 265.641 459.388 266.281 456.069 270.999C454.891 272.652 454.168 274.705 453.767 276.997C453.58 278.143 453.446 279.343 453.419 280.596C453.472 281.822 453.606 283.101 453.794 284.381C454.623 289.525 456.176 295.176 458.317 299.975C460.244 304.053 462.118 308.051 463.992 311.997C465.812 315.942 468.221 319.594 470.201 323.379L473.253 329.056C474.377 330.896 475.501 332.762 476.652 334.601C478.954 338.306 480.961 342.278 483.343 346.143C486.207 350.675 489.125 354.54 492.149 357.925C495.388 361.15 498.894 363.789 502.535 366.268C502.775 366.428 503.016 366.562 503.257 366.722C506.817 368.561 510.725 369.68 514.178 369.174C522.127 367.948 525.874 361.897 529.916 356.646C534.199 351.128 540.007 345.796 539.766 337.666C539.739 336.547 539.579 335.534 539.338 334.468C539.15 333.375 538.829 332.308 538.454 331.296C537.678 329.243 536.527 327.324 535.135 325.511C533.717 323.725 532.245 321.859 530.746 320.02C529.22 318.207 527.587 316.448 526.008 314.795C523.573 311.917 521.405 308.744 519.156 305.599C517.978 304.053 517.175 302.294 516.319 300.588C515.489 298.855 514.686 297.096 513.964 295.336L512.706 292.218L511.769 288.966C511.153 286.806 510.484 284.647 509.735 282.541C508.878 280.462 508.316 278.303 507.54 276.224C506.737 274.145 505.8 272.119 504.569 270.173C503.552 268.654 502.642 267.347 501.732 266.228C500.768 265.108 499.724 264.229 498.627 263.509C496.405 262.07 493.943 261.377 491.346 261.163C486.181 260.683 480.56 262.256 475.608 263.642Z" fill="#C7E099"/>
<path d="M548.196 91.6575C546.269 89.2051 544.449 86.886 543.298 84.6202C540.541 79.3423 537.49 73.2914 528.577 72.4384C525.418 72.1185 522.099 72.9715 518.433 74.3043C516.612 74.9974 514.739 75.8237 512.812 76.81C510.885 77.7696 508.931 78.8625 507.137 80.2486C503.47 82.9143 499.777 86.033 496.217 89.2584C492.791 92.6171 489.766 96.3756 486.822 99.8675C485.591 101.387 484.306 102.853 483.182 104.426C482.084 105.998 481.014 107.598 479.916 109.171C477.775 112.316 475.661 115.461 473.546 118.553C471.619 121.779 469.852 125.031 468.005 128.256C466.239 131.508 464.231 134.6 462.786 137.986C459.735 144.676 456.228 151.127 453.686 158.111C452.267 161.55 450.848 164.988 449.403 168.48C448.172 172.026 446.941 175.624 445.683 179.249C444.157 183.514 442.792 187.619 442.123 191.698C441.32 195.75 440.704 199.641 440.222 203.453C439.526 211.077 440.008 218.407 440.651 225.631C440.731 226.084 440.838 226.564 440.918 227.017C442.819 233.441 444.933 239.439 448.466 242.984C457.031 250.981 466.132 248.395 474.563 247.089C479.033 246.343 483.851 246.29 488.401 245.063C492.925 243.891 497.1 241.598 501.061 236.933C508.797 226.804 509.439 210.304 512.276 196.096L513.16 191.698C513.32 190.978 513.427 190.205 513.615 189.485L514.311 187.353L517.175 178.77C518.245 175.944 519.717 173.332 521.056 170.613C521.752 169.28 522.394 167.921 523.143 166.641L525.713 162.963C533.769 151.5 543.994 142.171 552.238 131.428C555.557 127.27 557.538 123.512 558.394 119.726C559.358 116.154 559.358 112.822 558.555 109.49C557.002 102.853 552.372 96.8821 548.196 91.6575Z" fill="#428B3D"/>
<path d="M462.733 249.781C456.737 249.781 451.946 247.889 447.637 243.864C444.077 240.292 441.909 234.694 439.741 227.337L439.447 225.844C438.831 219.074 438.242 211.317 438.992 203.293C439.473 199.375 440.116 195.403 440.919 191.404C441.615 187.166 443.06 182.821 444.532 178.769L448.253 168.027L452.562 157.604C454.302 152.806 456.55 148.168 458.745 143.663C459.735 141.611 460.752 139.532 461.689 137.452C462.733 135.053 464.045 132.734 465.329 130.495C465.865 129.562 466.427 128.603 466.935 127.643C467.578 126.497 468.22 125.377 468.836 124.258C470.013 122.125 471.218 120.019 472.476 117.914L482.138 103.706C482.941 102.613 483.771 101.6 484.628 100.587C485.029 100.081 485.457 99.6008 485.859 99.0943L486.903 97.8415C489.553 94.6694 492.256 91.4173 495.334 88.4052C499.215 84.8599 502.935 81.7945 506.388 79.2621C508.369 77.7161 510.564 76.5432 512.25 75.7169C514.231 74.7039 516.185 73.8243 518.005 73.1579C522.689 71.4785 525.713 70.9188 528.738 71.212C538.213 72.145 541.612 78.6224 544.342 83.847L544.476 84.0869C545.627 86.326 547.554 88.7784 549.241 90.9109C553.015 95.629 558.18 102.106 559.867 109.197C560.75 112.822 560.696 116.367 559.706 120.046C558.85 123.938 556.815 127.83 553.309 132.201C549.642 136.973 545.52 141.557 541.532 145.982C536.5 151.554 531.281 157.338 526.837 163.682L524.268 167.361C523.786 168.187 523.304 169.147 522.823 170.08L522.261 171.199C521.886 171.945 521.511 172.718 521.11 173.492C520.173 175.357 519.209 177.277 518.46 179.223L514.927 189.885C514.846 190.258 514.739 190.711 514.659 191.191L513.615 196.362C512.946 199.748 512.384 203.346 511.822 206.812C510.055 218.087 508.235 229.763 502.159 237.733C498.332 242.238 494.103 244.957 488.803 246.343C485.859 247.116 482.834 247.436 479.917 247.755C478.204 247.942 476.517 248.129 474.858 248.395C474.001 248.529 473.145 248.662 472.288 248.822C469.157 249.248 465.972 249.781 462.733 249.781ZM527.212 73.6643C524.964 73.6643 522.448 74.2241 518.834 75.5303C517.121 76.17 515.275 76.9964 513.374 77.9826C511.795 78.7823 509.761 79.8752 507.914 81.3147C504.488 83.8203 500.874 86.8058 497.074 90.2711C494.129 93.15 491.453 96.3754 488.857 99.4941L487.813 100.747C487.411 101.227 487.01 101.733 486.582 102.24C485.779 103.226 484.976 104.186 484.199 105.225L474.617 119.326C473.413 121.352 472.235 123.458 471.057 125.564C470.415 126.683 469.799 127.83 469.157 128.949C468.622 129.909 468.086 130.868 467.524 131.828C466.213 134.094 464.981 136.253 463.991 138.545C463.027 140.678 462.01 142.757 460.993 144.836C458.852 149.288 456.63 153.873 454.891 158.591L450.608 169.013L446.914 179.702C445.496 183.648 444.077 187.859 443.408 191.938C442.632 195.909 441.989 199.828 441.508 203.64C440.785 211.423 441.347 219.02 441.936 225.551L442.203 226.804C444.238 233.654 446.245 238.959 449.404 242.104C453.178 245.623 457.433 247.302 462.706 247.302C465.731 247.302 468.809 246.769 471.807 246.263C472.663 246.103 473.546 245.97 474.403 245.836C476.089 245.57 477.829 245.383 479.596 245.197C482.433 244.903 485.35 244.583 488.107 243.864C492.952 242.611 496.646 240.212 500.125 236.133C505.773 228.75 507.539 217.394 509.252 206.438C509.814 202.947 510.376 199.321 511.046 195.883L512.089 190.711C512.197 190.205 512.277 189.698 512.411 189.219L515.997 178.396C516.8 176.264 517.817 174.291 518.781 172.372C519.156 171.599 519.557 170.853 519.932 170.08L520.494 168.96C521.002 167.974 521.511 166.987 522.046 166.028L524.696 162.269C529.22 155.819 534.493 149.981 539.578 144.33C543.539 139.931 547.635 135.4 551.248 130.682C554.487 126.603 556.36 123.058 557.163 119.486C558.047 116.181 558.1 113.035 557.324 109.837C555.772 103.279 550.82 97.0684 547.18 92.5369C545.038 89.818 543.325 87.5522 542.148 85.2864L542.041 85.0732C539.337 79.9285 536.527 74.5973 528.47 73.7976C528.042 73.6643 527.64 73.6643 527.212 73.6643Z" fill="#26632A"/>
<path d="M538.695 97.9214C537.089 96.2421 535.617 94.6693 534.626 93.0433C532.325 89.2582 529.755 84.9665 522.635 85.2864C512.384 85.473 498.466 98.2946 489.312 110.396C473.841 131.508 464.071 152.993 455.185 177.143C453.927 180.742 452.856 184.181 451.893 187.513C451.036 190.871 450.608 194.15 450.153 197.349C449.725 200.547 449.404 203.666 449.189 206.732C449.189 209.824 449.35 212.889 449.537 215.955C449.564 216.328 449.618 216.754 449.645 217.128C450.1 219.846 450.635 222.512 451.304 224.858C452.027 227.23 453.178 229.309 454.436 230.882C460.404 238.106 467.176 236.48 473.52 235.814C480.211 235.147 487.786 236.427 493.434 228.137C495.013 225.897 496.538 223.258 497.529 220.353C498.037 218.887 498.492 217.367 498.867 215.795C499.028 214.995 499.215 214.195 499.376 213.396C499.59 212.596 499.831 211.77 500.045 210.943C500.901 207.638 501.517 204.199 502.025 200.707C502.775 197.269 503.551 193.857 504.274 190.605C504.568 189.245 504.809 187.859 505.184 186.5L506.495 182.528L509.199 174.531C510.35 171.972 511.634 169.466 512.866 166.934L514.793 163.202C515.435 161.949 516.319 160.856 517.095 159.684C518.968 157.045 520.842 154.379 522.716 151.713C524.857 149.234 526.945 146.755 528.952 144.196L530.424 142.277L532.057 140.491C533.128 139.292 534.171 138.092 535.189 136.839C536.206 135.586 537.169 134.334 538.106 133.001C539.07 131.721 540.167 130.575 541.104 129.296C546.992 121.139 548.572 115.701 547.26 110.556C546.056 105.518 542.148 101.493 538.695 97.9214Z" fill="#C7E099"/>
<path d="M752.956 316.128C747.683 313.116 745.783 305.066 749.102 298.375C749.985 296.696 750.895 295.15 752.019 293.817C753.144 292.484 754.428 291.391 755.847 290.592C758.657 288.966 761.923 288.379 764.894 289.392C767.865 290.405 769.953 292.911 770.916 296.243C771.398 297.895 771.585 299.761 771.452 301.707C771.345 303.653 770.916 305.706 769.899 307.625C766.045 315.462 758.577 319.354 752.956 316.128Z" fill="#428B3D"/>
<path d="M758.658 306.212C756.731 305.279 756.115 302.587 757.293 300.161C758.363 297.709 760.665 296.269 762.673 297.042C764.627 297.816 765.51 300.641 764.386 303.227C763.154 305.812 760.585 307.118 758.658 306.212Z" fill="#1D693E"/>
<path d="M606.413 390.685C606.734 387.567 608.581 384.901 611.15 383.062C612.435 382.155 613.907 381.436 615.487 381.036C617.066 380.556 618.806 380.103 620.599 380.103C624.186 380.023 627.478 381.222 630.074 383.248C632.617 385.008 634.464 387.593 634.785 390.712C635.106 393.804 633.795 396.87 631.252 399.215C628.682 401.321 624.881 402.681 620.626 402.761C618.511 402.761 616.477 402.574 614.684 401.908C612.89 401.188 611.284 400.202 610.026 399.082C607.403 396.763 606.092 393.804 606.413 390.685Z" fill="#428B3D"/>
<path d="M617.414 392.098C617.468 389.966 619.636 388.206 622.232 388.153C624.828 388.1 627.023 389.779 627.13 391.912C627.237 394.044 625.096 395.803 622.312 395.857C619.555 395.937 617.361 394.231 617.414 392.098Z" fill="#1D693E"/>
<path d="M486.796 311.304C489.606 309.891 492.872 310.051 495.843 311.304C497.315 311.943 498.734 312.85 499.992 314.023C501.357 315.142 502.615 316.448 503.632 318.048C505.666 321.193 506.415 324.792 506.148 328.07C506.014 331.243 504.729 334.201 502.24 336.094C499.724 337.987 496.432 338.36 493.032 337.347C489.794 336.254 486.635 333.615 484.307 329.99C483.156 328.177 482.299 326.284 481.817 324.419C481.443 322.473 481.416 320.607 481.684 318.901C482.192 315.462 483.985 312.716 486.796 311.304Z" fill="#428B3D"/>
<path d="M491.641 321.62C493.488 320.553 496.164 321.513 497.61 323.752C499.055 326.018 498.814 328.817 497.048 330.016C495.281 331.216 492.604 330.256 491.079 327.884C489.553 325.511 489.794 322.713 491.641 321.62Z" fill="#1D693E"/>
<path d="M502.159 144.596C504.809 146.249 506.442 149.074 506.977 152.14C507.513 155.205 506.87 158.511 505.425 161.763C503.872 164.961 501.303 167.281 498.359 168.613C495.495 169.946 492.417 170.373 489.472 169.173C486.608 168 484.414 165.415 483.611 162.216C482.888 159.044 483.343 155.152 485.163 151.473C486.849 147.742 489.954 145.209 493.113 144.01C496.271 142.757 499.483 142.917 502.159 144.596Z" fill="#428B3D"/>
<path d="M496.083 153.526C497.957 154.539 498.599 157.204 497.475 159.497C496.378 161.789 493.888 162.909 491.934 162.029C489.981 161.149 489.365 158.457 490.543 156.058C491.72 153.659 494.21 152.513 496.083 153.526Z" fill="#1D693E"/>
<path d="M630.743 69.2128C630.529 72.3583 628.789 74.9706 626.246 76.8898C623.703 78.9956 620.385 80.3551 616.718 80.4084C614.871 80.4884 613.104 80.0619 611.445 79.6887C609.812 79.3155 608.286 78.7024 606.948 77.8228C604.271 76.1168 602.264 73.5045 601.809 70.4124C601.354 67.3202 602.585 64.3081 605.101 61.9091C606.359 60.7095 607.938 59.6699 609.758 58.8703C611.552 58.0706 613.613 57.8307 615.781 57.7507C620.117 57.6441 624.051 58.8436 626.755 60.8695C629.485 63.0819 630.957 66.1207 630.743 69.2128Z" fill="#428B3D"/>
<path d="M619.474 68.3867C619.501 70.5192 617.36 72.2785 614.71 72.3318C612.06 72.2785 609.758 70.8657 609.571 68.7865C609.356 66.6541 611.471 64.6015 614.308 64.6282C617.119 64.5749 619.447 66.2542 619.474 68.3867Z" fill="#1D693E"/>
<path d="M759.327 170.533C756.383 171.626 753.117 171.172 750.307 169.653C748.888 168.907 747.577 167.867 746.453 166.614C745.329 165.361 744.418 163.842 743.508 162.269C740.163 155.872 741.929 147.955 747.122 144.809C752.662 141.451 760.13 144.996 764.065 152.54C765.082 154.379 765.537 156.378 765.671 158.297C765.831 160.217 765.671 162.029 765.216 163.655C764.332 166.934 762.271 169.44 759.327 170.533Z" fill="#428B3D"/>
<path d="M755.741 160.003C753.841 160.856 751.324 159.657 750.093 157.338C748.889 155.019 749.451 152.326 751.325 151.313C753.198 150.3 755.768 151.5 757.052 153.952C758.337 156.405 757.748 159.097 755.741 160.003Z" fill="#1D693E"/>
<path d="M617.948 292.991C613.826 275.611 605.85 257.299 606.706 239.146C607.59 220.38 614.388 202.947 618.055 184.687C620.009 175.038 621.267 165.495 621.294 156.059C620.303 145.849 619.179 130.949 611.711 123.005C603.146 113.915 587.569 116.421 577.424 121.033C568.511 125.084 560.776 132.335 554.727 139.932C549.32 146.702 544.797 154.459 540.862 162.19C535.268 173.199 520.761 203.16 520.038 235.041C518.941 282.062 552.398 339.133 583.794 345.664C606.198 350.328 616.636 338.2 621.24 319.647C621.427 309.971 619.581 299.842 617.948 292.991Z" fill="#00A64D"/>
<path d="M592.788 347.929C589.898 347.929 586.766 347.583 583.501 346.916C550.9 340.146 517.603 282.622 518.727 235.014C519.075 219.633 523.009 194.443 539.711 161.63C544.342 152.54 548.919 145.183 553.71 139.158C560.857 130.175 568.886 123.511 576.889 119.886C582.858 117.194 589.657 115.621 595.518 115.621C602.692 115.621 608.634 117.887 612.649 122.152C620.116 130.069 621.481 144.25 622.445 154.592L622.579 155.925C622.552 164.775 621.482 174.211 619.313 184.927C618.029 191.298 616.342 197.642 614.71 203.773C611.685 215.208 608.527 227.07 607.965 239.172C607.376 251.834 611.203 264.789 614.924 277.29C616.423 282.355 617.975 287.58 619.18 292.644C620.812 299.468 622.686 309.704 622.472 319.62C622.472 319.727 622.445 319.807 622.445 319.914C617.841 338.52 607.858 347.929 592.788 347.929ZM595.492 118.18C589.978 118.18 583.581 119.646 577.933 122.205C570.278 125.67 562.596 132.068 555.717 140.731C551.033 146.622 546.537 153.819 541.987 162.776C525.525 195.163 521.644 219.953 521.297 235.067C520.226 280.729 553.068 337.96 584.036 344.411C603.04 348.356 614.736 340.306 619.929 319.46C620.116 309.864 618.296 299.922 616.717 293.284C615.539 288.299 614.067 283.315 612.488 278.064C608.714 265.349 604.806 252.207 605.422 239.092C606.011 226.697 609.169 214.729 612.247 203.16C613.853 197.056 615.539 190.738 616.797 184.447C618.939 173.918 619.983 164.615 620.009 156.058L619.876 154.832C618.912 144.836 617.627 131.162 610.748 123.911C607.188 120.099 602.049 118.18 595.492 118.18Z" fill="#00410D"/>
<path d="M611.284 328.204C622.793 278.756 584.572 263.243 587.757 230.935C589.55 212.729 606.065 197.295 612.301 176.957C615.647 166.054 615.299 153.793 611.418 143.103C602.505 118.58 573.062 129.855 560.215 144.356C553.764 151.633 548.598 160.776 544.342 169.466C539.364 179.649 526.489 207.345 525.847 236.8C524.883 280.249 554.567 333.028 582.484 339.053C596.804 342.171 605.984 337.4 611.284 328.204Z" fill="#C7E099"/>
<path d="M585.642 206.998C585.642 214.595 578.87 220.753 570.546 220.753C562.195 220.753 555.423 214.595 555.423 206.998C555.423 199.401 562.195 193.244 570.546 193.244C578.87 193.244 585.642 199.401 585.642 206.998Z" fill="#428B3D"/>
<path d="M573.865 206.252C573.865 208.838 571.563 210.943 568.726 210.943C565.889 210.943 563.587 208.838 563.587 206.252C563.587 203.666 565.889 201.561 568.726 201.561C571.563 201.561 573.865 203.666 573.865 206.252Z" fill="#1D693E"/>
<path d="M582.135 279.423C582.028 279.236 581.948 279.05 581.841 278.863C579.512 274.118 578.308 268.92 576.461 264.016C574.052 257.698 567.896 253.033 560.134 253.38C547.339 253.94 546.108 267.721 545.974 276.437C545.707 295.15 553.442 317.728 572.58 327.404C590.245 336.334 599.132 318.101 596.348 304.533C595.358 299.788 593.35 295.257 590.807 291.045C588.345 286.94 584.41 283.661 582.135 279.423Z" fill="#9FDDF9"/>
<path d="M581.439 331.082C578.468 331.082 575.31 330.229 572.018 328.577C551.435 318.181 544.449 293.977 544.69 276.437C544.77 270.573 545.038 252.767 560.08 252.1C568.03 251.754 574.908 256.339 577.665 263.563C578.361 265.402 578.977 267.294 579.566 269.187C580.556 272.252 581.573 275.398 582.992 278.277C583.072 278.463 583.152 278.623 583.259 278.783C584.41 280.942 586.016 282.835 587.703 284.807C589.175 286.54 590.7 288.353 591.932 290.352C594.795 295.07 596.696 299.762 597.633 304.266C599.158 311.677 597.285 320.153 592.975 325.405C589.951 329.11 585.963 331.082 581.439 331.082ZM560.937 254.659C560.696 254.659 560.455 254.659 560.214 254.686C549.026 255.166 547.42 266.601 547.286 276.491C547.045 293.284 553.656 316.422 573.195 326.311C576.113 327.804 578.896 328.55 581.466 328.55C585.186 328.55 588.479 326.924 590.995 323.859C594.822 319.167 596.482 311.544 595.117 304.853C594.233 300.641 592.44 296.243 589.737 291.765C588.639 289.925 587.221 288.273 585.749 286.54C584.062 284.541 582.296 282.462 581.011 280.063C580.904 279.876 580.797 279.663 580.69 279.45C579.191 276.411 578.147 273.159 577.13 270.013C576.541 268.174 575.952 266.308 575.256 264.522C573.008 258.498 567.36 254.659 560.937 254.659Z" fill="#11BAED"/>
<path d="M558.179 270.067C558.179 270.04 558.179 269.987 558.179 269.96C558.179 268.947 558.447 267.961 558.527 266.948C558.661 265.668 557.992 264.389 556.573 263.882C554.272 263.056 552.826 265.375 552.05 266.921C550.337 270.2 549.721 274.758 552.264 277.877C554.593 280.756 557.778 278.17 558.474 275.585C558.715 274.678 558.768 273.719 558.688 272.786C558.608 271.853 558.206 271 558.179 270.067Z" fill="white"/>
<path d="M556.413 285.9C556.413 285.874 556.386 285.874 556.386 285.847C556.092 285.341 555.904 284.781 555.637 284.248C555.315 283.581 554.593 283.102 553.736 283.208C552.318 283.368 552.318 284.914 552.398 285.874C552.559 287.926 553.629 290.352 555.851 291.285C557.885 292.111 558.688 290.032 558.26 288.566C558.099 288.06 557.832 287.553 557.51 287.127C557.189 286.674 556.707 286.354 556.413 285.9Z" fill="white"/>
<path d="M595.519 183.727C594.877 185.86 592.468 187.113 590.139 186.526C587.811 185.94 586.419 183.754 587.061 181.621L590.808 169.146C591.451 167.014 593.86 165.761 596.188 166.348C598.517 166.934 599.909 169.12 599.266 171.252L595.519 183.727Z" fill="#9DBF45"/>
<path d="M591.29 187.966C590.808 187.966 590.299 187.912 589.818 187.779C588.319 187.406 587.007 186.446 586.285 185.167C585.589 183.967 585.428 182.581 585.83 181.275L589.577 168.8C590.38 166.081 593.565 164.402 596.509 165.121C598.035 165.495 599.32 166.454 600.042 167.734C600.738 168.933 600.899 170.319 600.497 171.626L596.75 184.101C596.054 186.366 593.806 187.966 591.29 187.966ZM595.037 167.52C593.618 167.52 592.387 168.347 592.039 169.546L588.292 182.021C588.105 182.661 588.185 183.328 588.506 183.914C588.908 184.58 589.604 185.114 590.433 185.3C592.066 185.7 593.833 184.82 594.261 183.381L598.008 170.906C598.196 170.266 598.115 169.6 597.794 169.013C597.392 168.32 596.697 167.814 595.867 167.6C595.599 167.547 595.305 167.52 595.037 167.52Z" fill="#2CA851"/>
<path d="M567.093 157.071C565.139 157.445 563.131 156.032 562.65 153.926C562.141 151.82 563.319 149.821 565.273 149.448L576.755 147.262C578.709 146.889 580.717 148.302 581.225 150.407C581.734 152.513 580.556 154.512 578.602 154.886L567.093 157.071Z" fill="#9DBF45"/>
<path d="M566.45 158.404C564.095 158.404 561.954 156.645 561.392 154.219C561.044 152.807 561.285 151.34 562.034 150.194C562.73 149.128 563.801 148.408 565.032 148.168L576.514 145.983C579.164 145.476 581.814 147.369 582.483 150.088C582.831 151.5 582.59 152.966 581.841 154.113C581.145 155.179 580.074 155.899 578.843 156.139L567.361 158.324C567.039 158.378 566.745 158.404 566.45 158.404ZM577.371 148.488C577.237 148.488 577.103 148.488 576.969 148.515L565.487 150.701C564.791 150.834 564.389 151.26 564.175 151.58C563.801 152.14 563.694 152.886 563.881 153.606C564.229 155.019 565.54 156.032 566.852 155.792L578.335 153.606C579.031 153.473 579.432 153.046 579.646 152.7C580.021 152.14 580.128 151.394 579.941 150.674C579.646 149.448 578.549 148.488 577.371 148.488Z" fill="#2CA851"/>
<path d="M549.588 193.564C548.223 195.323 545.546 195.616 543.565 194.257C541.585 192.871 541.103 190.338 542.441 188.579L550.391 178.263C551.756 176.504 554.433 176.21 556.413 177.57C558.394 178.956 558.876 181.488 557.537 183.248L549.588 193.564Z" fill="#9DBF45"/>
<path d="M546.296 196.389C545.065 196.389 543.86 196.016 542.843 195.296C541.559 194.39 540.702 193.057 540.461 191.591C540.247 190.232 540.595 188.872 541.425 187.806L549.374 177.49C551.087 175.251 554.701 174.824 557.163 176.53C558.448 177.437 559.304 178.77 559.545 180.236C559.759 181.595 559.411 182.955 558.582 184.021L550.632 194.337C549.615 195.643 548.036 196.389 546.296 196.389ZM553.683 177.996C552.747 177.996 551.917 178.37 551.408 179.036L543.459 189.352C543.057 189.858 542.897 190.525 543.004 191.191C543.138 191.964 543.593 192.684 544.315 193.19C545.68 194.15 547.688 193.937 548.571 192.791L556.521 182.475C556.922 181.968 557.083 181.302 556.976 180.635C556.869 179.862 556.387 179.143 555.664 178.636C555.102 178.236 554.406 177.996 553.683 177.996Z" fill="#2CA851"/>
<path d="M601.434 283.261C602.291 285.314 601.167 287.633 598.892 288.406C596.643 289.179 594.1 288.14 593.244 286.087L588.185 274.012C587.329 271.959 588.453 269.64 590.728 268.867C592.976 268.094 595.519 269.107 596.376 271.186L601.434 283.261Z" fill="#9DBF45"/>
<path d="M597.339 289.952C594.984 289.952 592.923 288.646 592.066 286.593L587.007 274.518C586.472 273.239 586.499 271.853 587.061 270.573C587.65 269.24 588.854 268.174 590.3 267.668C593.164 266.681 596.456 268.067 597.553 270.706L602.612 282.782C603.147 284.061 603.121 285.447 602.558 286.727C601.97 288.059 600.765 289.126 599.32 289.632C598.677 289.845 598.008 289.952 597.339 289.952ZM592.28 269.88C591.906 269.88 591.504 269.933 591.156 270.067C590.353 270.36 589.738 270.893 589.416 271.613C589.149 272.226 589.122 272.892 589.39 273.532L594.448 285.607C595.037 286.993 596.911 287.74 598.49 287.206C599.293 286.913 599.909 286.38 600.23 285.66C600.497 285.047 600.524 284.381 600.257 283.768L595.198 271.693C594.743 270.6 593.592 269.88 592.28 269.88Z" fill="#2CA851"/>
<path d="M539.096 245.943C537.597 247.675 534.84 247.942 532.94 246.556C531.039 245.169 530.745 242.664 532.244 240.958L541.13 230.855C542.629 229.149 545.386 228.856 547.286 230.242C549.187 231.628 549.481 234.134 547.955 235.84L539.096 245.943Z" fill="#9DBF45"/>
<path d="M535.67 248.742C534.385 248.742 533.181 248.342 532.191 247.622C530.959 246.742 530.21 245.463 530.049 244.023C529.889 242.611 530.344 241.251 531.281 240.158L540.167 230.056C542.067 227.923 545.681 227.523 548.063 229.229C549.294 230.109 550.043 231.388 550.204 232.828C550.365 234.241 549.91 235.627 548.973 236.72L540.087 246.822C538.962 248.022 537.383 248.742 535.67 248.742ZM544.53 230.669C543.566 230.669 542.656 231.042 542.067 231.735L533.181 241.838C532.699 242.371 532.485 243.064 532.565 243.73C532.646 244.45 533.047 245.09 533.663 245.543C534.974 246.502 537.062 246.289 538.079 245.116L546.939 235.014C547.42 234.454 547.635 233.787 547.554 233.094C547.474 232.375 547.072 231.735 546.457 231.282C545.948 230.882 545.279 230.669 544.53 230.669Z" fill="#2CA851"/>
<path d="M627.157 170.133C631.279 187.512 639.255 205.825 638.398 223.978C637.515 242.744 630.717 260.177 627.023 278.436C625.069 288.086 623.838 297.629 623.784 307.065C624.775 317.274 625.872 332.175 633.366 340.119C641.932 349.208 657.509 346.703 667.68 342.091C676.594 338.039 684.329 330.789 690.378 323.192C695.785 316.421 700.308 308.664 704.243 300.934C709.837 289.925 724.344 259.937 725.067 228.083C726.164 181.062 692.733 123.991 661.31 117.46C638.907 112.795 628.468 124.924 623.864 143.476C623.704 153.153 625.524 163.282 627.157 170.133Z" fill="#00A64D"/>
<path d="M649.613 347.502C642.44 347.502 636.498 345.237 632.483 340.972C625.015 333.055 623.677 318.874 622.687 308.531L622.553 307.172C622.58 298.322 623.65 288.859 625.818 278.17C627.103 271.799 628.789 265.455 630.422 259.324C633.446 247.889 636.605 236.027 637.167 223.898C637.756 211.21 633.928 198.282 630.208 185.78C628.709 180.715 627.156 175.464 625.952 170.426C624.319 163.602 622.446 153.366 622.66 143.45C622.66 143.37 622.687 143.263 622.687 143.183C628.174 121.059 641.262 111.969 661.631 116.207C694.232 122.978 727.529 180.502 726.405 228.11C726.057 243.49 722.122 268.68 705.447 301.494C700.816 310.584 696.239 317.941 691.448 323.965C684.302 332.948 676.272 339.612 668.269 343.238C662.247 345.956 655.475 347.502 649.613 347.502ZM625.176 143.663C624.988 153.259 626.809 163.175 628.388 169.839C629.565 174.824 631.038 179.809 632.617 185.06C636.391 197.775 640.299 210.917 639.683 224.031C639.094 236.426 635.936 248.395 632.858 259.99C631.252 266.095 629.565 272.386 628.307 278.676C626.166 289.206 625.122 298.509 625.096 307.065L625.229 308.291C626.193 318.287 627.478 331.935 634.357 339.212C637.943 342.998 643.082 344.917 649.613 344.917C655.127 344.917 661.524 343.451 667.172 340.892C674.827 337.426 682.509 331.029 689.387 322.366C694.071 316.475 698.568 309.278 703.118 300.348C719.579 267.961 723.46 243.144 723.808 228.056C724.879 182.368 692.037 125.164 661.069 118.713C642.092 114.768 630.395 122.818 625.176 143.663Z" fill="#00410D"/>
<path d="M633.821 134.92C622.285 184.367 660.533 199.881 657.348 232.188C655.555 250.394 639.04 265.828 632.804 286.167C629.458 297.069 629.806 309.331 633.687 320.02C642.6 344.544 672.043 333.268 684.89 318.767C691.341 311.49 696.507 302.347 700.762 293.631C705.741 283.448 718.615 255.752 719.258 226.297C720.221 182.821 690.511 130.069 662.621 124.044C648.301 120.952 639.147 125.724 633.821 134.92Z" fill="#C7E099"/>
<path d="M659.463 254.366C659.463 246.769 666.235 240.611 674.559 240.611C682.91 240.611 689.682 246.769 689.682 254.366C689.682 261.963 682.91 268.12 674.559 268.12C666.235 268.12 659.463 261.963 659.463 254.366Z" fill="#428B3D"/>
<path d="M671.24 255.112C671.24 252.526 673.542 250.447 676.379 250.447C679.217 250.447 681.518 252.553 681.518 255.112C681.518 257.698 679.217 259.804 676.379 259.804C673.542 259.804 671.24 257.698 671.24 255.112Z" fill="#1D693E"/>
<path d="M666.02 199.934C666.127 200.121 666.235 200.307 666.315 200.494C668.644 205.239 669.848 210.437 671.695 215.341C674.104 221.659 680.26 226.324 688.022 225.977C700.816 225.417 702.047 211.636 702.181 202.92C702.449 184.207 694.714 161.629 675.576 151.953C657.91 143.023 649.024 161.256 651.808 174.824C652.771 179.569 654.806 184.1 657.348 188.312C659.838 192.417 663.745 195.696 666.02 199.934Z" fill="#9FDDF9"/>
<path d="M687.246 227.283C679.725 227.283 673.167 222.778 670.517 215.795C669.821 213.955 669.206 212.063 668.59 210.17C667.6 207.131 666.583 203.959 665.164 201.08C665.084 200.92 665.003 200.734 664.896 200.574C663.745 198.415 662.139 196.522 660.453 194.523C658.981 192.79 657.455 190.978 656.224 188.952C653.36 184.234 651.46 179.542 650.523 175.037C648.997 167.654 650.871 159.15 655.18 153.899C660.186 147.795 667.841 146.569 676.138 150.78C696.721 161.203 703.707 185.38 703.466 202.92C703.386 208.784 703.118 226.59 688.076 227.23C687.808 227.257 687.514 227.283 687.246 227.283ZM666.716 150.86C662.996 150.86 659.677 152.486 657.161 155.552C653.333 160.217 651.674 167.867 653.039 174.558C653.896 178.769 655.716 183.167 658.419 187.646C659.516 189.485 660.935 191.138 662.407 192.87C664.093 194.87 665.86 196.949 667.145 199.348C667.252 199.534 667.359 199.721 667.466 199.934C668.965 203 670.009 206.225 671.026 209.37C671.615 211.21 672.203 213.076 672.899 214.888C675.255 221.072 681.197 225.044 687.969 224.698C699.157 224.218 700.763 212.782 700.897 202.893C701.137 186.073 694.526 162.962 674.987 153.073C672.07 151.607 669.286 150.86 666.716 150.86Z" fill="#11BAED"/>
<path d="M689.976 209.291C689.976 209.344 689.976 209.371 689.976 209.397C689.976 210.41 689.735 211.423 689.628 212.409C689.494 213.715 690.163 214.968 691.555 215.475C693.857 216.301 695.302 213.955 696.105 212.436C697.818 209.157 698.434 204.599 695.891 201.507C693.563 198.628 690.378 201.214 689.682 203.799C689.441 204.706 689.387 205.665 689.467 206.598C689.548 207.505 689.949 208.358 689.976 209.291Z" fill="white"/>
<path d="M691.743 193.457C691.743 193.483 691.77 193.51 691.77 193.51C692.064 194.017 692.251 194.576 692.519 195.109C692.84 195.776 693.563 196.256 694.419 196.149C695.838 195.989 695.811 194.443 695.758 193.483C695.597 191.431 694.526 189.005 692.305 188.072C690.271 187.246 689.468 189.325 689.896 190.791C690.056 191.298 690.324 191.804 690.645 192.231C690.993 192.684 691.448 193.004 691.743 193.457Z" fill="white"/>
<path d="M648.489 278.037C649.131 275.904 651.54 274.651 653.869 275.238C656.198 275.824 657.589 278.01 656.947 280.142L653.2 292.617C652.557 294.75 650.148 296.003 647.82 295.416C645.491 294.83 644.099 292.644 644.742 290.512L648.489 278.037Z" fill="#9DBF45"/>
<path d="M648.97 296.829C648.489 296.829 647.98 296.776 647.498 296.642C645.973 296.269 644.688 295.31 643.965 294.03C643.269 292.831 643.109 291.444 643.51 290.138L647.257 277.663C648.06 274.944 651.219 273.265 654.19 273.985C655.716 274.358 657 275.318 657.723 276.597C658.419 277.797 658.579 279.183 658.178 280.489L654.431 292.964C653.762 295.256 651.513 296.829 648.97 296.829ZM652.718 276.384C651.326 276.384 650.095 277.21 649.72 278.41L645.973 290.885C645.785 291.524 645.866 292.191 646.187 292.777C646.588 293.47 647.284 293.977 648.114 294.19C649.747 294.59 651.513 293.71 651.942 292.271L655.689 279.796C655.876 279.156 655.796 278.49 655.448 277.903C655.046 277.21 654.35 276.704 653.521 276.517C653.28 276.437 653.012 276.384 652.718 276.384Z" fill="#2CA851"/>
<path d="M694.955 261.137C695.597 259.004 698.006 257.751 700.335 258.338C702.663 258.924 704.055 261.11 703.413 263.242L699.666 275.718C699.023 277.85 696.614 279.103 694.286 278.516C691.957 277.93 690.565 275.744 691.208 273.612L694.955 261.137Z" fill="#9DBF45"/>
<path d="M695.436 279.929C694.955 279.929 694.446 279.876 693.964 279.743C692.439 279.369 691.154 278.41 690.431 277.13C689.735 275.931 689.575 274.545 689.976 273.238L693.723 260.763C694.526 258.044 697.711 256.365 700.656 257.085C702.155 257.458 703.466 258.418 704.189 259.697C704.885 260.897 705.045 262.283 704.644 263.589L700.897 276.064C700.201 278.356 697.979 279.929 695.436 279.929ZM699.157 259.484C697.765 259.484 696.534 260.31 696.159 261.51L692.412 273.985C692.224 274.625 692.305 275.291 692.653 275.877C693.027 276.544 693.75 277.077 694.58 277.263C696.213 277.663 697.979 276.784 698.407 275.344L702.155 262.869C702.342 262.229 702.262 261.563 701.94 260.977C701.539 260.31 700.843 259.777 700.013 259.59C699.746 259.511 699.451 259.484 699.157 259.484Z" fill="#2CA851"/>
<path d="M671.455 302.64C673.088 301.494 675.523 301.947 676.862 303.68C678.2 305.413 677.959 307.732 676.326 308.905L666.664 315.729C665.031 316.901 662.595 316.422 661.257 314.716C659.919 312.983 660.16 310.664 661.792 309.491L671.455 302.64Z" fill="#9DBF45"/>
<path d="M664.576 317.621C662.889 317.621 661.284 316.821 660.213 315.462C659.33 314.316 658.928 312.876 659.115 311.517C659.303 310.237 659.972 309.144 661.016 308.398L670.678 301.574C672.82 300.081 676.165 300.668 677.852 302.854C678.735 304 679.136 305.439 678.949 306.799C678.762 308.078 678.093 309.171 677.049 309.891L667.386 316.715C666.583 317.328 665.62 317.621 664.576 317.621ZM673.516 303.28C673.034 303.28 672.552 303.413 672.177 303.68L662.515 310.504C662.06 310.824 661.765 311.33 661.658 311.89C661.551 312.556 661.765 313.303 662.22 313.889C663.104 315.035 664.817 315.409 665.86 314.662L675.523 307.838C675.978 307.518 676.272 307.012 676.38 306.452C676.487 305.786 676.272 305.039 675.817 304.453C675.282 303.733 674.399 303.28 673.516 303.28Z" fill="#2CA851"/>
<path d="M641.905 138.652C642.842 136.626 645.304 135.906 647.419 137.052C649.533 138.199 650.47 140.758 649.533 142.783L644.019 154.672C643.083 156.698 640.62 157.418 638.506 156.271C636.418 155.125 635.454 152.566 636.391 150.54L641.905 138.652Z" fill="#9DBF45"/>
<path d="M640.62 158.111C639.71 158.111 638.773 157.871 637.917 157.418C635.24 155.952 634.035 152.646 635.24 150.007L640.754 138.119C641.958 135.506 645.357 134.494 648.034 135.933C650.711 137.399 651.915 140.704 650.711 143.317L645.197 155.205C644.367 156.991 642.627 158.111 640.62 158.111ZM645.331 137.799C644.34 137.799 643.484 138.332 643.082 139.185L637.595 151.074C636.926 152.486 637.649 154.326 639.148 155.152C640.566 155.925 642.253 155.445 642.868 154.139L648.382 142.25C649.051 140.838 648.329 138.998 646.83 138.172C646.321 137.932 645.813 137.799 645.331 137.799Z" fill="#2CA851"/>
<path d="M706.893 223.312C708.392 221.606 711.148 221.312 713.049 222.699C714.949 224.085 715.244 226.59 713.745 228.296L704.885 238.399C703.36 240.132 700.603 240.398 698.729 239.012C696.855 237.626 696.534 235.12 698.06 233.414L706.893 223.312Z" fill="#9DBF45"/>
<path d="M701.432 241.171C700.147 241.171 698.943 240.798 697.926 240.052C696.695 239.172 695.945 237.892 695.785 236.453C695.624 235.04 696.079 233.654 697.043 232.561L705.902 222.458C707.803 220.326 711.443 219.926 713.798 221.632C715.029 222.538 715.779 223.818 715.939 225.257C716.1 226.67 715.645 228.03 714.708 229.122L705.849 239.225C704.751 240.451 703.172 241.171 701.432 241.171ZM710.318 223.098C709.355 223.098 708.445 223.471 707.856 224.164L698.996 234.267C698.515 234.827 698.301 235.493 698.354 236.186C698.434 236.906 698.836 237.546 699.452 237.999C700.763 238.959 702.851 238.745 703.895 237.572L712.781 227.47C713.263 226.937 713.477 226.244 713.397 225.577C713.316 224.858 712.915 224.218 712.299 223.765C711.737 223.311 711.041 223.098 710.318 223.098Z" fill="#2CA851"/>
</svg>
