<svg width="1053" height="573" viewBox="0 0 1053 573" fill="none" xmlns="http://www.w3.org/2000/svg">
<path d="M356.763 2.66553C294.479 14.5808 255.989 86.5523 255.989 86.5523C246.354 105.025 262.868 86.5523 262.868 86.5523C302.91 38.7579 338.991 20.8983 365.355 14.6874C363.749 9.86268 360.778 5.41111 356.763 2.66553Z" fill="url(#paint0_linear_646_331)" stroke="#007648" stroke-width="2" stroke-miterlimit="10" stroke-linecap="round" stroke-linejoin="round"/>
<path d="M406.147 184.967C394.798 158.098 418.218 187.1 408.743 161.803C394.771 124.484 344.317 64.6679 265.117 79.5687C265.117 79.5687 238.806 51.793 186.746 56.7244C143.733 60.8028 178.395 65.7875 174.889 70.2391C171.382 74.6906 150.987 62.3755 111.962 85.8596C72.9638 109.37 67.7711 122.085 78.5578 122.139C89.3713 122.192 120.607 123.818 99.6494 129.016C78.6917 134.24 39.2654 176.65 25.4006 195.789C11.5091 214.928 -6.93267 252.114 8.56482 246.223C24.0623 240.332 34.5278 237.72 26.1768 246.783C17.8258 255.846 2.48895 307.452 12.7938 347.889C23.0987 388.327 28.2646 341.998 31.4765 368.521C34.6884 395.017 43.7888 447.69 60.464 473.946C66.4596 483.382 71.0098 491.059 74.8641 498.23C77.1125 501.509 78.9326 505 80.7526 508.572C84.9281 516.889 88.4345 525.499 92.3691 533.922C98.6055 547.224 106.314 562.178 119.108 570.388C126.71 568.522 134.017 566.683 140.708 561.805C145.045 558.633 149.086 555.061 153.048 551.462C156.447 548.05 160.435 544.132 165.601 539.307C176.655 529.018 172.239 534.909 174.273 538.187C179.011 538.081 184.096 536.295 188.512 535.069C193.999 533.549 199.379 531.657 204.599 529.391C214.047 525.259 223.228 520.461 232.248 515.503C239.1 511.744 245.925 507.719 252.43 503.241C260.459 496.097 267.767 487.461 274.11 476.505C294.211 441.825 314.634 409.785 310.753 422.366C306.872 434.922 310.03 438.6 345.575 408.772C381.094 378.97 391.077 338.773 394.209 308.811C397.341 278.85 394.851 314.089 409.706 302.92C424.481 291.672 417.495 211.836 406.147 184.967Z" fill="#9FCC3C" stroke="#007648" stroke-width="2" stroke-miterlimit="10" stroke-linecap="round" stroke-linejoin="round"/>
<path d="M406.147 184.967C394.798 158.098 418.218 187.099 408.743 161.803C394.825 124.618 344.692 65.0944 265.973 79.4354C242.285 114.302 216.67 148.102 197.881 185.953C176.548 228.87 158.24 276.531 147.346 323.126C136.024 371.586 126.522 418.021 124.435 467.735C123.07 499.989 121.972 537.094 121.276 569.828C128.102 568.122 134.686 566.203 140.735 561.778C146.597 557.486 151.897 552.502 157.25 547.597C159.846 544.878 162.603 542.079 165.628 539.253C176.682 528.964 172.266 534.855 174.3 538.134C179.037 538.027 184.123 536.241 188.539 535.015C194.026 533.496 199.406 531.603 204.626 529.337C214.074 525.206 223.255 520.408 232.275 515.45C239.127 511.691 245.952 507.666 252.456 503.188C260.486 496.044 267.793 487.407 274.137 476.452C294.238 441.772 314.661 409.731 310.779 422.313C306.898 434.868 310.057 438.547 345.602 408.718C381.12 378.917 391.104 338.719 394.236 308.758C397.367 278.797 394.878 314.036 409.733 302.867C424.481 291.671 417.495 211.836 406.147 184.967Z" fill="#9CCB3D"/>
<path d="M344.96 239.079C344.933 237.906 344.799 236.626 344.612 235.24C344.451 233.828 344.211 232.335 343.863 230.735C343.247 227.537 342.176 223.965 340.517 220.286C338.911 216.554 336.77 212.716 334.254 208.851C332.996 206.932 331.711 204.959 330.373 202.986C329.703 202 329.115 201.041 328.499 200.054C327.937 198.988 327.348 197.868 326.786 196.776C324.43 192.244 321.459 187.899 317.953 183.714C314.42 179.529 310.592 175.397 306.096 171.639C303.874 169.746 301.278 167.907 298.815 166.388C296.38 164.868 294.105 163.162 291.722 161.483C287.012 158.044 282.033 154.792 277.055 151.993C272.076 149.194 267.258 146.662 263.297 143.73C259.229 140.824 256.07 137.412 253.474 134.08C248.335 127.283 246.301 120.326 245.658 115.528C245.471 114.355 245.391 113.315 245.31 112.409C245.337 112.356 245.391 112.302 245.417 112.249C253.367 101.48 267.713 78.9822 267.713 78.9822C265.197 74.9305 261.611 76.0234 261.611 76.0234L244.936 101.08C242.687 104.279 240.171 107.877 237.388 112.036C234.176 113.822 230.134 115.608 225.396 117.474C224.834 117.367 224.219 117.26 223.523 117.127C220.177 116.354 216.028 113.955 211.451 110.916C206.848 107.904 201.949 104.012 196.355 100.92C193.545 99.3741 190.627 97.9347 187.496 96.9218C184.337 95.9088 181.072 95.1891 177.539 94.8959C173.845 94.6826 170.606 94.7626 166.699 95.4557C164.825 95.7489 163.032 96.3087 161.158 96.9751C160.061 97.3216 159.525 97.5082 158.401 97.8281C157.491 98.1746 156.581 98.5211 155.671 98.8677C152.058 100.147 148.525 101.853 145.286 103.479C142.047 105.212 139.076 107.024 136.453 108.89C131.153 112.622 127.299 116.514 124.703 119.34C122.133 122.218 120.929 124.084 120.929 124.084C120.929 124.084 122.374 122.378 125.131 119.766C126.496 118.46 128.182 116.914 130.217 115.314C132.224 113.662 134.579 112.036 137.176 110.303C139.772 108.597 142.663 106.944 145.741 105.398C148.819 103.932 152.111 102.493 155.457 101.32C156.287 101.027 157.143 100.734 157.973 100.414C158.99 100.12 159.499 99.9872 160.489 99.6673C162.202 99.1076 163.861 98.761 165.548 98.3612C168.84 97.8814 172.614 97.908 175.719 98.2546C178.984 98.5744 182.169 99.3208 185.221 100.334C188.245 101.4 191.216 102.679 194.027 104.119C199.648 107.051 205.027 110.383 209.952 113.102C214.877 115.874 219.668 117.527 223.255 117.953C223.496 117.98 223.737 117.98 223.978 118.007C221.676 118.886 219.213 119.793 216.617 120.726C206.419 124.404 194.16 127.976 181.233 132.481C168.278 136.959 154.681 142.397 142.556 148.661C136.48 151.913 130.618 155.059 124.997 158.364C119.43 161.536 114.184 165.588 109.312 168.787C104.521 172.465 100.105 175.904 96.197 179.422C92.2892 182.941 88.7561 186.06 85.7315 189.152C82.6535 192.137 80.0304 194.963 77.8088 197.495C75.5605 199.921 73.7136 202.187 72.2147 203.946C69.2169 207.571 67.6913 209.704 67.6913 209.704C67.6913 209.704 69.4043 207.838 72.5627 204.612C75.7211 201.387 80.3248 196.776 86.5078 191.258C89.5591 188.379 93.0922 185.527 97 182.301C100.881 179.076 105.244 176.09 109.928 172.492C114.692 169.453 119.698 165.641 125.185 162.629C130.591 159.564 136.4 156.552 142.368 153.486C154.413 147.275 168.171 141.358 181.233 136.693C194.321 131.948 206.767 127.363 217.099 123.178C224.754 120.086 231.205 116.967 236.022 114.062C235.675 114.568 235.327 115.101 234.979 115.634C231.954 120.166 228.582 125.204 224.915 130.828C221.382 136.506 217.527 142.717 213.459 149.434C212.388 151.14 211.344 152.9 210.3 154.686C208.882 155.858 207.222 157.218 205.295 158.817C201.923 161.536 197.854 164.868 193.063 168.467C190.654 170.226 188.111 172.145 185.462 174.118C182.758 175.984 179.921 177.956 177.03 180.009C174.14 182.115 171.008 183.847 167.93 185.847C164.879 187.926 161.613 189.525 158.374 191.204C156.768 192.031 155.162 192.884 153.557 193.737C151.897 194.643 150.264 195.549 148.632 196.429C145.446 198.135 142.502 199.814 139.692 202.08C133.83 206.132 128.852 210.45 124.382 214.822C122.214 217.114 120.099 219.38 118.038 221.672C116.031 224.045 114.077 226.391 112.176 228.736C108.429 233.481 104.95 238.279 101.47 242.757C98.0439 247.396 94.5643 251.234 91.1918 255.446C89.5323 257.392 87.8996 259.711 86.5345 262.19C86.2936 262.67 86.0795 263.123 85.8386 263.576C85.8118 263.576 85.8118 263.576 85.7851 263.602C84.7947 264.002 83.7241 264.589 82.4393 264.882C81.1546 265.202 79.8163 265.788 78.2906 266.028C76.7649 266.321 75.1858 266.721 73.4995 266.988C70.1002 267.548 66.3798 268.134 62.4452 268.64C60.4912 268.934 58.4838 269.2 56.4763 269.52C54.4421 269.84 52.4347 270.107 50.3469 270.693C48.286 271.173 46.225 271.679 44.3781 272.612C43.4413 273.039 42.5045 273.385 41.6212 273.865C40.7647 274.398 39.935 274.905 39.1588 275.411C37.4993 276.291 36.268 277.65 35.0368 278.61C33.9394 279.783 32.9223 280.742 32.2531 281.702C31.5305 282.582 31.0219 283.381 30.7275 283.914C30.4063 284.448 30.2725 284.741 30.2725 284.741C30.2725 284.741 30.4598 284.474 30.8881 284.048C31.2896 283.568 31.932 282.981 32.7885 282.235C33.5647 281.435 34.7156 280.716 35.9201 279.809C37.2584 279.116 38.5967 278.103 40.2294 277.437C41.0324 277.09 41.8354 276.691 42.6919 276.291C43.5751 276.024 44.4584 275.731 45.3685 275.438C47.1618 274.745 49.1425 274.531 51.0964 274.158C52.9968 273.732 55.1648 273.678 57.1723 273.385C59.2065 273.119 61.2407 272.879 63.2214 272.666C65.2021 272.399 67.1292 271.999 69.0028 271.733C70.8764 271.466 72.643 270.906 74.356 270.56C76.069 270.187 77.6482 269.52 79.1471 269.04C80.646 268.614 81.9843 267.761 83.2155 267.201C83.7241 266.988 84.1791 266.721 84.6074 266.401C84.1256 267.654 83.617 268.854 83.2423 270.133C81.4758 275.731 80.8066 281.702 80.3784 287.087C79.9233 292.471 79.7092 297.402 79.1739 301.614C78.6386 305.826 77.9427 309.398 77.1932 312.17C76.7917 313.556 76.4438 314.809 76.1226 315.902C75.7478 316.941 75.4267 317.821 75.159 318.541C74.6237 319.954 74.3292 320.727 74.3292 320.727C74.3292 320.727 74.6772 320.007 75.2928 318.647C75.5872 317.981 75.9887 317.128 76.4438 316.142C76.8185 315.102 77.2467 313.903 77.7285 312.543C78.6386 309.824 79.5218 306.332 80.2445 302.147C80.994 297.989 81.449 293.057 82.0111 287.78C82.5732 282.528 83.3494 276.904 85.1427 271.786C85.571 270.506 86.1598 269.334 86.6684 268.054C87.2304 266.855 87.8996 265.762 88.4884 264.589C89.8535 262.456 91.2721 260.324 93.0119 258.351C96.2773 254.379 100.051 250.408 103.477 245.823C107.064 241.371 110.651 236.626 114.478 231.908C116.379 229.509 118.333 227.11 120.313 224.711C122.347 222.392 124.435 220.073 126.603 217.754C131.02 213.302 135.784 209.037 141.217 205.279C143.787 203.146 146.812 201.547 149.943 199.708C151.469 198.801 153.021 197.895 154.574 196.989C156.18 196.056 157.839 195.15 159.472 194.243C162.737 192.431 166.029 190.645 169.108 188.459C172.212 186.326 175.371 184.46 178.235 182.248C181.125 180.062 183.936 177.956 186.639 175.957C189.236 173.798 191.725 171.745 194.08 169.853C198.764 165.961 202.726 162.389 205.964 159.484C207.329 158.257 208.534 157.138 209.604 156.125C206.848 160.87 204.117 165.854 201.361 170.972C197.158 178.489 193.25 186.433 189.637 194.19C182.357 209.677 177.566 223.165 172.293 238.306C168.733 248.408 165.253 258.911 161.827 269.52C161.747 269.627 161.667 269.733 161.56 269.84C160.516 270.666 159.445 271.866 157.946 272.826C156.367 273.678 154.788 274.851 152.807 275.544C151.843 275.944 150.853 276.344 149.863 276.771C148.819 277.064 147.748 277.384 146.651 277.704C144.536 278.423 142.181 278.717 139.906 279.17C137.631 279.703 135.249 279.676 132.973 280.023C130.698 280.343 128.316 280.263 126.068 280.369C123.846 280.502 121.571 280.556 119.376 280.902C117.208 281.249 115.174 281.969 113.354 282.848C109.687 284.714 106.877 287.7 104.976 290.792C103.986 292.284 103.29 293.911 102.701 295.35C102.112 296.789 101.711 298.149 101.416 299.268C100.828 301.534 100.694 302.947 100.694 302.947C100.694 302.947 101.042 301.667 101.898 299.722C102.326 298.735 102.862 297.589 103.584 296.39C104.307 295.19 105.164 293.884 106.208 292.658C107.225 291.405 108.456 290.232 109.821 289.139C111.186 288.046 112.792 287.193 114.478 286.447C116.218 285.727 118.092 285.301 120.126 284.981C122.107 284.741 124.275 284.714 126.576 284.661C128.852 284.528 131.153 284.554 133.509 284.154C135.891 283.808 138.3 283.568 140.655 282.902C143.011 282.315 145.339 281.755 147.561 280.769C148.685 280.343 149.756 279.916 150.826 279.463C151.843 278.876 152.834 278.317 153.824 277.784C155.832 276.851 157.384 275.251 158.883 274.105C159.793 273.305 160.489 272.426 161.131 271.626C159.659 276.211 158.214 280.796 156.795 285.381C155.671 289.032 154.574 292.658 153.503 296.283C153.155 296.789 152.78 297.322 152.379 297.909C150.773 300.441 148.444 303.08 146.035 306.146C143.519 309.104 140.762 312.33 137.791 315.635C131.93 322.326 125.211 329.23 118.814 336.08C112.39 342.931 105.913 349.835 99.1681 357.512C95.8491 361.43 92.4766 365.562 89.1041 369.934C85.7583 374.465 82.3858 378.97 79.7895 384.621C77.3806 390.272 76.0155 396.403 75.2393 402.321C74.6504 408.265 74.4095 413.996 74.704 419.274C74.8646 424.552 75.4534 429.43 76.0958 433.695C76.7382 438.013 77.5144 441.852 78.2906 444.997C79.843 451.342 81.1278 454.887 81.1278 454.887C81.1278 454.887 80.1642 451.262 78.9865 444.864C77.8356 438.467 76.7917 429.643 76.7382 419.248C76.6311 414.076 77.0594 408.532 77.8088 402.881C78.7189 397.256 80.2445 391.579 82.4393 386.354C84.768 381.343 88.2208 376.704 91.4595 372.493C94.7784 368.254 98.151 364.256 101.497 360.444C108.081 352.714 114.425 345.703 120.768 338.773C123.953 335.307 127.031 331.842 130.163 328.217C133.295 324.592 136.346 320.966 139.21 317.448C142.101 313.956 144.724 310.464 147.106 307.265C149.274 304.093 151.362 301.348 152.861 298.762C149.515 310.117 146.41 321.233 143.546 331.869C135.57 361.404 133.723 381.689 130.645 405.6C129.119 417.542 126.764 429.697 125.158 443.665C124.783 446.49 124.515 449.316 124.248 452.141C124.087 452.568 123.712 453.474 123.257 454.807C122.588 456.726 121.625 459.472 120.393 462.617C119.831 464.243 119.028 465.816 118.279 467.548C117.476 469.228 116.512 470.907 115.522 472.64C114.398 474.212 113.381 476.025 112.069 477.518C110.811 479.064 109.634 480.69 108.081 482.129C106.663 483.649 105.217 485.142 103.799 486.608C102.326 488.127 100.854 489.566 99.516 491.112C96.8394 494.178 94.4573 497.323 92.6372 500.202C90.7903 503.054 89.5056 505.667 88.7026 507.533C87.8728 509.399 87.6319 510.571 87.6319 510.571C87.6319 510.571 88.194 509.585 89.345 508.039C89.8803 507.239 90.603 506.333 91.4327 505.294C92.2089 504.227 93.2796 503.188 94.2699 501.935C95.287 500.682 96.5718 499.536 97.7227 498.15C98.9272 496.817 100.346 495.591 101.657 494.151C102.996 492.738 104.548 491.512 105.94 490.073C107.412 488.633 108.884 487.141 110.356 485.675C111.802 484.262 113.113 482.369 114.451 480.69C115.843 479.037 116.78 476.931 117.877 475.172C118.841 473.253 119.724 471.307 120.42 469.388C121.089 467.442 121.732 465.603 122.106 463.817C123.043 460.325 123.418 457.259 123.846 455.207C123.953 454.514 124.06 453.927 124.141 453.447C123.82 457.099 123.525 460.724 123.257 464.296C122.722 471.014 122.321 477.545 122.08 483.862C121.384 496.47 121.143 508.146 120.822 518.488C120.822 518.488 121.464 591.02 122.374 537.148C122.535 526.912 123.043 515.876 123.712 504.707C124.034 505.96 124.328 507.213 124.703 508.492C125.292 510.145 125.854 511.824 126.496 513.477C127.272 515.05 127.915 516.702 128.771 518.168C129.574 519.688 130.431 521.074 131.341 522.38C133.107 524.992 135.008 527.098 136.747 528.644C140.2 531.816 142.877 532.643 142.877 532.669C142.877 532.669 140.682 530.51 137.925 526.805C136.56 524.912 135.034 522.673 133.589 520.088C132.813 518.835 132.144 517.449 131.421 516.063C130.672 514.703 130.136 513.157 129.44 511.718C128.825 510.225 128.263 508.706 127.701 507.213C127.246 505.64 126.683 504.174 126.228 502.681C125.854 501.162 125.452 499.722 125.051 498.336C124.783 497.297 124.569 496.284 124.355 495.297C127.46 450.728 133.081 407.066 133.081 407.066C133.241 405.92 133.402 404.8 133.536 403.654C133.991 403.68 134.419 403.6 134.446 403.334C134.553 401.841 134.713 400.348 134.847 398.856C135.061 399.362 135.329 399.949 135.623 400.615C136.881 403.281 138.648 407.146 141.03 411.757C142.288 414.05 143.546 416.555 144.991 419.248C146.49 421.887 147.909 424.819 149.649 427.751C151.442 430.656 152.914 433.882 154.975 437.081C155.965 438.733 156.956 440.359 158 442.039C158.589 442.972 158.883 443.451 159.472 444.411C160.087 445.424 160.382 445.904 160.997 446.917C162.095 448.569 162.684 450.195 163.594 451.848C164.316 453.581 165.066 455.34 165.682 457.126C166.832 460.751 167.903 464.376 168.438 468.028C169.108 471.654 169.456 475.225 169.696 478.637C169.911 482.049 169.937 485.275 169.857 488.26C169.643 494.231 169.268 499.216 168.867 502.708C168.465 506.2 168.251 508.199 168.251 508.199C168.251 508.199 168.786 506.306 169.536 502.921C170.232 499.536 171.329 494.684 171.864 488.633C172.132 485.621 172.319 482.316 172.319 478.824C172.293 475.305 172.186 471.574 171.57 467.708C171.088 463.843 170.151 459.872 168.893 455.953C168.224 454.007 167.448 452.088 166.672 450.142C165.708 448.329 164.852 446.224 163.808 444.624C162.55 442.625 161.908 441.639 160.676 439.666C159.659 438.067 158.642 436.441 157.678 434.921C155.671 431.963 153.985 428.87 152.138 426.098C148.605 420.447 145.286 415.329 142.582 410.958C139.906 406.559 137.604 402.987 136.105 400.402C135.597 399.549 135.168 398.829 134.82 398.243C136.855 378.97 141.833 360.178 146.223 341.305C146.276 341.438 146.33 341.545 146.383 341.652C147.213 343.411 148.498 345.383 149.89 347.649C151.308 349.915 152.968 352.394 154.895 354.953C156.768 357.565 159.124 360.151 161.506 362.817C164.022 365.429 166.137 368.228 168.037 371.187C169.83 374.199 171.222 377.397 172.507 380.65C173.792 383.928 174.943 387.287 175.96 390.699C177.03 394.084 178.315 397.656 179.386 401.121C180.51 404.613 181.581 408.132 182.517 411.731C183.534 415.302 184.712 418.901 185.595 422.446C186.532 425.992 187.255 429.564 187.951 432.922C189.476 439.613 191.243 445.211 192.394 449.156C193.679 453.074 194.508 455.34 194.508 455.34C194.508 455.34 193.973 453.048 193.17 449.022C192.34 445.024 191.377 439.293 190.199 432.549C189.236 425.805 187.924 418.501 186.024 411.357C185.194 407.785 184.257 404.214 183.24 400.695C182.196 397.15 181.045 393.791 179.975 390.299C178.904 386.86 177.699 383.448 176.334 380.09C174.996 376.704 173.31 373.399 171.249 370.174C169.081 367.002 166.377 364.016 163.674 361.484C160.997 358.871 158.535 356.446 156.528 353.94C154.467 351.461 152.593 349.142 150.987 347.009C149.408 344.877 147.962 343.011 146.945 341.332C146.758 341.012 146.571 340.745 146.41 340.452C148.043 333.388 149.595 326.298 150.853 319.154C150.853 319.074 150.853 319.021 150.8 318.967C153.797 308.705 157.009 298.122 160.462 287.406C165.628 271.466 171.088 255.392 176.629 240.225C182.116 225.058 187.094 211.596 194.375 196.349C195.338 194.323 196.489 192.191 197.72 190.005C197.453 191.418 197.239 192.937 197.105 194.563C196.302 203.12 196.837 215.621 199.166 230.735C201.441 245.876 204.947 263.709 209.364 281.942C211.478 291.085 214.048 300.281 216.028 309.398C217.072 313.956 218.25 318.194 219.535 322.353C220.846 326.511 222.265 330.536 223.255 334.508C224.433 338.48 225.691 342.345 226.949 346.13C227.538 348.022 228.287 349.888 228.796 351.781C229.251 353.674 229.706 355.539 230.134 357.405C231.901 364.896 233.962 372.173 234.577 379.717C235.273 387.207 236.692 394.831 236.022 402.268C235.166 409.758 232.57 417.302 229.706 423.886C226.869 430.443 223.55 436.201 220.364 441.079C217.206 445.984 214.155 450.009 211.505 453.207C206.312 459.632 202.94 462.75 202.94 462.75C202.94 462.75 203.85 462.031 205.456 460.565C207.062 459.045 209.417 456.833 212.174 453.741C215.011 450.675 218.303 446.783 221.783 441.959C225.289 437.187 229.01 431.509 232.115 424.819C235.273 418.155 238.217 410.424 239.422 402.587C240.412 394.644 239.368 387.074 238.753 379.53C238.298 371.986 236.37 364.469 234.711 356.792C234.309 354.873 233.881 352.954 233.48 351.008C232.998 349.089 232.275 347.196 231.713 345.25C230.509 341.385 229.331 337.44 228.207 333.415C227.163 329.363 225.691 325.311 224.326 321.126C222.987 316.941 221.756 312.65 220.632 308.092C218.518 298.922 215.841 289.832 213.619 280.742C209.042 262.616 204.599 245.156 201.949 230.202C199.219 215.275 197.72 203.013 198.149 194.536C198.202 192.297 198.416 190.245 198.711 188.432C201.896 182.968 205.509 177.37 208.293 172.412C212.361 164.975 216.376 157.751 220.498 151.167C224.54 144.556 228.367 138.399 231.901 132.748C233.399 130.508 234.818 128.376 236.21 126.297C236.103 127.896 235.969 129.602 235.969 131.441C236.049 133.734 236.049 136.24 236.237 138.905C236.665 144.236 237.441 150.207 238.886 156.498C241.697 169.133 246.836 183.607 253.099 196.402C256.231 202.8 259.229 209.571 261.504 216.688C264.02 223.672 263.779 231.535 266.723 239.265C272.183 254.273 282.113 267.041 290.411 278.903C294.506 284.874 298.521 290.525 301.144 296.256C301.492 297.109 301.653 297.536 302.027 298.389C302.188 298.789 302.268 299.002 302.429 299.402C302.536 299.855 302.589 300.095 302.723 300.548C303.152 302.067 303.5 303.533 303.553 304.999C303.901 307.905 303.767 310.944 303.5 313.743C302.268 325.125 299.19 334.374 296.888 340.665C294.56 346.983 292.9 350.421 292.9 350.421C292.9 350.421 294.961 347.063 297.825 340.799C300.528 334.561 304.597 325.365 306.283 313.609C307.086 307.745 307.166 301.161 304.597 294.923C302.134 288.766 298.387 282.822 294.319 276.824C286.235 264.802 276.76 252.06 271.755 237.666C268.945 230.842 268.971 222.659 266.241 215.355C263.779 208.051 260.808 201.494 257.382 194.83C250.503 181.528 244.828 167.987 241.563 155.645C239.93 149.488 238.753 143.703 237.95 138.532C237.575 135.973 237.441 133.521 237.2 131.282C237.066 129.042 237.147 126.963 237.12 125.097C237.12 125.017 237.12 124.964 237.147 124.884C238.833 122.378 240.439 119.979 241.965 117.714C243.062 116.061 244.106 114.515 245.123 113.022C245.123 113.795 245.123 114.648 245.176 115.608C245.471 120.539 246.943 127.923 251.761 135.387C254.277 139.012 257.408 142.744 261.53 145.942C265.599 149.194 270.363 151.94 275.047 154.925C279.758 157.831 284.442 161.003 288.966 164.468C291.241 166.201 293.65 167.96 296.192 169.56C298.708 171.132 300.876 172.678 302.991 174.491C307.193 178.116 311.074 182.035 314.607 186.06C318.087 190.138 321.058 194.27 323.494 198.482C324.109 199.574 324.725 200.667 325.341 201.734C326.063 202.827 326.786 203.893 327.509 204.879C328.981 206.825 330.426 208.691 331.791 210.557C334.521 214.209 336.823 217.781 338.59 221.273C340.383 224.765 341.641 228.097 342.578 231.162C343.06 232.681 343.434 234.121 343.702 235.48C344.023 236.84 344.264 238.066 344.398 239.212C344.773 241.478 344.933 243.291 345.04 244.543C345.147 245.796 345.201 246.436 345.201 246.436C345.201 246.436 345.228 245.77 345.254 244.543C345.067 243.211 345.147 241.398 344.96 239.079Z" fill="url(#paint1_linear_646_331)"/>
<path d="M406.147 184.967C394.798 158.098 418.218 187.1 408.743 161.803C394.771 124.484 344.317 64.6679 265.117 79.5687C265.117 79.5687 238.806 51.793 186.746 56.7244C143.733 60.8028 178.395 65.7875 174.889 70.2391C171.382 74.6906 150.987 62.3755 111.962 85.8596C72.9638 109.37 67.7711 122.085 78.5578 122.139C89.3713 122.192 120.607 123.818 99.6494 129.016C78.6917 134.24 39.2654 176.65 25.4006 195.789C11.5091 214.928 -6.93267 252.114 8.56482 246.223C24.0623 240.332 34.5278 237.72 26.1768 246.783C17.8258 255.846 2.48895 307.452 12.7938 347.889C23.0987 388.327 28.2646 341.998 31.4765 368.521C34.6884 395.017 43.7888 447.69 60.464 473.946C66.4596 483.382 71.0098 491.059 74.8641 498.23C77.1125 501.509 78.9326 505 80.7526 508.572C84.9281 516.889 88.4345 525.499 92.3691 533.922C98.6055 547.224 106.314 562.178 119.108 570.388C126.71 568.522 134.017 566.683 140.708 561.805C145.045 558.633 149.086 555.061 153.048 551.462C156.447 548.05 160.435 544.132 165.601 539.307C176.655 529.018 172.239 534.909 174.273 538.187C179.011 538.081 184.096 536.295 188.512 535.069C193.999 533.549 199.379 531.657 204.599 529.391C214.047 525.259 223.228 520.461 232.248 515.503C239.1 511.744 245.925 507.719 252.43 503.241C260.459 496.097 267.767 487.461 274.11 476.505C294.211 441.825 314.634 409.785 310.753 422.366C306.872 434.922 310.03 438.6 345.575 408.772C381.094 378.97 391.077 338.773 394.209 308.811C397.341 278.85 394.851 314.089 409.706 302.92C424.481 291.672 417.495 211.836 406.147 184.967ZM401.489 258.325C400.981 263.523 400.258 269.12 397.341 273.599C397.046 274.052 396.243 274.158 395.975 273.599C390.221 260.99 384.306 248.302 377.239 236.36C384.386 264.482 385.483 294.151 376.222 321.953C369.959 340.799 359.306 357.246 346.94 372.653C341.078 379.957 334.976 387.02 328.873 394.111C324.617 399.042 319.559 405.413 312.814 406.879C312.198 407.013 311.716 406.506 311.85 405.92C314.098 394.991 312.68 384.035 311.556 373.079C294.051 402.641 280.32 434.495 259.683 462.164C249.994 475.146 238.752 486.794 226.119 496.977C214.716 506.173 202.003 515.05 187.576 518.728C187.121 518.835 186.532 518.488 186.585 517.982C187.629 505.827 190.386 493.938 192.956 482.023C188.084 490.633 182.49 498.87 176.147 506.493C169.321 514.677 161.666 521.847 153.636 528.858C146.65 534.962 139.317 541.12 130.564 544.505C130.189 544.638 129.681 544.345 129.601 543.945C121.838 506.866 123.311 468.748 127.941 431.19C124.381 444.731 120.902 458.272 118.653 472.08C114.264 499.163 114.612 527.711 118.225 554.847C118.332 555.594 117.342 555.78 116.887 555.407C115.013 553.808 113.193 552.075 111.614 550.183C105.11 542.452 100.881 533.363 96.1698 524.513C90.4955 513.797 84.3125 503.348 78.6649 492.605C68.6277 473.493 59.9823 453.821 53.1569 433.349C41.5673 398.616 31.9315 356.526 48.4461 321.793C38.5427 328.777 30.8073 338.186 24.6779 348.582C24.3835 349.062 23.6073 349.115 23.3129 348.582C17.237 337.227 17.7456 323.312 19.3783 310.917C21.0378 298.122 23.6341 285.274 28.211 273.145C34.7687 255.739 44.9398 240.678 57.1451 227.19C44.9665 229.083 32.8416 233.614 20.4757 234.787C19.9404 234.841 19.6459 234.254 19.7262 233.801C22.4296 218.98 30.1114 205.359 39.1048 193.417C48.6067 180.782 59.7146 169.293 71.7325 159.031C84.2858 148.315 97.9364 138.745 112.363 130.669C118.6 127.177 125.157 123.925 131.902 121.392C122.24 115.608 111.801 110.596 100.426 111.289C99.6762 111.343 99.4888 110.437 99.8636 109.957C111.828 94.896 133.107 87.2457 151.254 83.034C168.732 78.9823 189.342 76.5033 206.526 83.3272C203.528 77.1697 197.452 73.0913 191.724 69.626C191.162 69.2795 191.216 68.3465 191.912 68.2132C203.796 65.6542 217.768 68.613 229.143 72.0517C235.353 73.9176 243.811 76.6365 249.753 81.328C250.101 81.0081 250.69 80.9282 250.984 81.4613C251.332 82.101 251.707 82.7408 252.055 83.3805C254.036 85.4064 255.561 87.7255 256.364 90.4178C256.391 90.4977 256.391 90.5777 256.391 90.6577C256.552 90.9242 256.712 91.1641 256.873 91.4307C260.834 90.6843 264.795 89.3782 268.569 88.7118C275.475 87.5389 282.515 88.3119 289.393 89.4581C304.275 91.9638 319.559 96.442 333.102 103.186C357.861 115.475 378.203 135.973 389.739 161.083C389.953 161.536 389.712 162.336 389.07 162.256C384.118 161.616 379.327 160.39 374.563 159.031C380.853 166.494 385.938 174.891 389.123 184.301C394.985 201.494 400.767 219.727 401.703 238.013C401.971 244.703 402.158 251.554 401.489 258.325Z" fill="#8DC640"/>
<path opacity="0.8" fill-rule="evenodd" clip-rule="evenodd" d="M358.423 2.3457C358.423 2.3457 305.132 5.94428 243.276 104.012C243.276 104.012 232.087 123.738 245.39 106.171C258.746 88.6049 287.466 29.2684 358.423 2.3457Z" fill="url(#paint2_radial_646_331)"/>
<path opacity="0.5" d="M204.251 321.819L705.015 63.6548L750.464 490.019L204.251 321.819Z" fill="white" stroke="#466677" stroke-miterlimit="10"/>
<path d="M1039.4 341.465C998.263 463.23 865.772 528.724 743.505 487.754C621.238 446.783 555.474 314.835 596.613 193.07C637.752 71.3052 770.244 5.81108 892.511 46.7815C1014.78 87.752 1080.54 219.7 1039.4 341.465Z" fill="white" stroke="#466677" stroke-miterlimit="10"/>
<path d="M971.337 270.746C968.259 359.138 899.47 428.524 817.674 425.698C735.877 422.873 672.067 348.929 675.145 260.537C678.223 172.119 747.012 102.759 828.808 105.558C910.578 108.411 974.388 182.355 971.337 270.746Z" fill="white"/>
<path d="M880.815 117.74C881.832 114.888 882.795 112.196 883.946 110.037C886.623 104.892 889.728 99.1077 887.051 92.2037C886.088 89.8047 884.455 87.4323 882.207 85.5397C879.931 83.6738 877.094 82.0211 873.989 80.555C867.833 77.3829 860.258 76.1034 853.433 75.1438C851.961 74.9572 850.516 74.744 849.07 74.5574C847.625 74.4241 846.153 74.3974 844.707 74.3441C841.817 74.2375 838.953 74.1309 836.116 74.0243C830.441 73.6244 824.847 74.1042 819.253 74.3175L810.875 74.6907C808.092 75.0105 805.281 75.3038 802.471 75.6236C799.633 75.8902 796.796 76.1568 793.932 76.4233C791.068 76.7432 788.231 77.303 785.287 77.7028C781.834 78.1826 778.595 78.7957 775.491 79.5154C772.466 80.3951 769.629 81.5146 766.925 82.6342C764.222 83.7804 761.626 85.0332 759.137 86.3661C756.701 87.7788 754.426 89.5115 752.177 91.2175C751.91 91.4307 751.615 91.6706 751.348 91.9105C747.761 95.6424 744.442 99.2676 743.8 103.772C742.167 113.769 748.002 120.619 752.713 127.496C757.611 134.8 761.893 143.73 771.181 146.929C773.778 147.995 776.32 148.448 778.81 148.421C781.326 148.448 783.681 147.675 786.25 147.302C788.766 146.769 791.256 145.916 793.691 144.903C796.154 143.997 798.697 143.33 801.052 142.424C808.948 139.572 817.62 138.452 826.025 139.252C827.256 139.278 828.46 139.518 829.692 139.812L833.332 140.585L836.972 141.278L838.792 141.571L840.559 142.051C845.269 143.357 850.087 143.73 855.039 144.077C858.974 144.103 862.346 143.064 865.076 141.864C867.86 140.505 870.215 138.399 872.223 135.84C876.211 130.775 878.673 123.871 880.815 117.74Z" fill="#428B3D"/>
<path d="M778.489 149.674C775.812 149.674 773.162 149.141 770.646 148.102C762.509 145.303 758.173 138.425 753.944 131.815C753.168 130.589 752.392 129.362 751.616 128.216C751.107 127.496 750.598 126.75 750.063 126.004C745.593 119.606 740.963 112.996 742.488 103.559C743.157 98.8411 746.45 95.0826 750.384 91.0042L751.723 89.9113C753.864 88.2853 756.059 86.606 758.468 85.2198C761.037 83.8337 763.687 82.5809 766.39 81.4347C769.067 80.3151 771.958 79.1689 775.116 78.2626C778.328 77.5162 781.674 76.9031 785.1 76.4233C786.385 76.2634 787.642 76.0501 788.9 75.8635C790.533 75.597 792.166 75.3304 793.772 75.1705L810.715 73.4378L819.2 73.0646C820.404 73.0113 821.609 72.958 822.813 72.8781C827.31 72.6381 832.208 72.4516 836.223 72.7448L846.233 73.118C847.224 73.1446 848.241 73.1979 849.231 73.2779L853.647 73.891C860.499 74.8506 868.315 76.1568 874.632 79.4355C877.978 81.0082 880.815 82.7408 883.063 84.5534C885.365 86.4727 887.158 88.9517 888.309 91.7506C891.147 99.081 887.881 105.345 885.285 110.383L885.151 110.65C884.08 112.702 883.17 115.181 882.1 118.193C880.199 123.685 877.576 131.228 873.267 136.666C871.019 139.545 868.449 141.678 865.665 143.037C862.079 144.636 858.679 145.383 855.227 145.383C855.2 145.383 854.986 145.383 854.959 145.383C850.409 145.063 845.243 144.69 840.238 143.304L838.471 142.824L833.118 141.864L829.451 141.091C828.407 140.825 827.203 140.585 826.052 140.558C824.232 140.371 822.465 140.291 820.698 140.291C814.221 140.291 807.61 141.464 801.534 143.65C800.33 144.103 799.072 144.503 797.787 144.903C796.582 145.276 795.378 145.649 794.2 146.102C791.47 147.249 788.954 148.075 786.572 148.555C785.635 148.688 784.805 148.875 784.002 149.035C782.396 149.354 780.764 149.701 779.024 149.701H778.489V149.674ZM831.325 75.1438C828.514 75.1438 825.65 75.2771 822.893 75.437C821.689 75.4903 820.458 75.5703 819.253 75.6236L810.875 75.9968L793.986 77.7295C792.434 77.9161 790.854 78.156 789.248 78.4225C787.964 78.6358 786.679 78.8224 785.394 79.009C782.048 79.4888 778.783 80.1019 775.705 80.7949C772.761 81.6746 769.923 82.7941 767.327 83.8604C764.704 84.9799 762.108 86.2061 759.645 87.5389C757.424 88.8184 755.282 90.4444 753.195 92.0171L752.124 92.8701C748.511 96.6553 745.62 99.934 745.031 103.932C743.666 112.356 747.975 118.54 752.178 124.511C752.713 125.257 753.222 126.004 753.73 126.777C754.533 127.976 755.309 129.202 756.112 130.455C760.074 136.719 764.196 143.197 771.556 145.729C773.858 146.689 776.16 147.142 778.489 147.142H778.729C780.362 147.142 781.808 146.849 783.36 146.529C784.217 146.342 785.1 146.182 786.01 146.049C788.151 145.596 790.507 144.823 793.13 143.73C794.414 143.25 795.672 142.85 796.904 142.477C798.135 142.077 799.366 141.704 800.544 141.251C808.654 138.319 817.647 137.173 826.105 137.999C827.417 138.026 828.782 138.319 829.933 138.585L840.827 140.851C845.591 142.184 850.623 142.531 855.066 142.85C858.224 142.85 861.276 142.157 864.488 140.745C866.87 139.572 869.118 137.679 871.152 135.12C875.194 130.029 877.737 122.725 879.584 117.394C880.681 114.275 881.618 111.689 882.769 109.504L882.903 109.264C885.526 104.199 888.256 98.9744 885.82 92.7369C885.151 91.0842 883.813 88.6585 881.35 86.5793C879.289 84.9 876.613 83.2739 873.427 81.7812C867.432 78.6624 859.857 77.4096 853.219 76.4766L848.856 75.8902C847.973 75.8102 847.009 75.7836 846.073 75.7303L836.035 75.3571C834.537 75.1705 833.011 75.1438 831.325 75.1438Z" fill="#26632A"/>
<path d="M868.851 112.729C869.413 110.383 870.002 108.224 870.751 106.411C872.491 102.146 874.499 97.3483 871.876 92.1237C868.262 84.5001 855.174 81.1414 844.36 80.395C839.703 80.2351 835.153 80.0752 830.656 79.9419C826.159 80.0485 821.743 80.4217 817.326 80.5816C815.105 80.7416 812.91 80.6883 810.715 80.9282C808.521 81.1681 806.299 81.4346 804.077 81.6745C801.856 81.8878 799.607 82.0744 797.332 82.2876C796.208 82.3676 795.057 82.4742 793.906 82.5542C792.782 82.7141 791.631 82.9007 790.48 83.0607C785.047 83.8603 780.175 84.7933 775.812 86.3927C771.503 88.1786 767.595 90.2578 763.821 92.6302C763.58 92.7901 763.34 92.9501 763.125 93.11C760.021 95.749 757.478 98.9744 756.568 102.28C754.587 110.01 758.763 115.794 762.082 121.552C765.534 127.63 768.264 134.987 775.866 137.999C779.908 139.465 784.351 139.598 788.714 138.559C789.811 138.292 790.882 137.972 791.979 137.599C793.077 137.253 794.228 137.066 795.325 136.746C797.546 136.133 799.741 135.387 801.829 134.667C808.868 132.694 816.39 131.282 823.804 132.081C828.113 132.108 832.396 133.494 836.651 133.974C837.722 134.107 838.793 134.214 839.863 134.294C840.907 134.48 841.951 134.694 843.022 134.827C845.136 135.093 847.278 135.173 849.472 135.013C850.329 134.96 851.159 134.827 851.935 134.694C852.711 134.587 853.434 134.507 854.13 134.347C855.521 134.027 856.753 133.547 857.904 132.908C860.152 131.655 861.972 129.816 863.391 127.683C866.255 123.365 867.646 117.714 868.851 112.729Z" fill="#C7E099"/>
<path d="M972.381 267.494C975.486 267.201 978.403 266.934 980.946 267.174C986.915 267.707 993.687 268.347 999.013 261.55C1000.89 259.151 1002.31 255.979 1003.32 252.274C1004.07 248.595 1004.37 244.383 1004.37 239.932C1004.37 237.693 1004.29 235.4 1004.15 233.108C1003.83 230.815 1003.43 228.496 1003 226.177C1002.06 221.566 1001.21 216.901 999.789 212.636C998.531 208.984 997.273 205.385 996.015 201.814C995.373 200.028 994.757 198.268 994.115 196.509L991.813 191.364C990.287 187.952 988.762 184.594 987.263 181.208C985.71 177.876 983.783 174.704 982.07 171.426C975.272 158.337 966.814 146.236 957.767 133.467C951.905 126.35 946.498 119.979 940.101 115.261C936.97 112.835 933.972 110.463 930.706 108.49C927.387 106.598 924.015 104.839 920.616 103.213C920.187 103.026 919.732 102.813 919.304 102.626C916.146 101.4 912.827 100.627 909.722 100.254C906.644 99.8272 903.753 99.8006 901.264 100.387C898.4 101.053 896.125 102.146 894.278 103.532C892.377 104.999 890.905 106.678 889.701 108.517C887.292 112.196 885.873 116.381 884.294 120.352C882.635 124.537 880.226 128.722 878.941 133.201C877.629 137.652 877.228 142.69 879.102 148.181C880.092 151.22 881.832 153.699 883.652 156.525C884.589 157.858 885.659 159.137 886.81 160.363C887.934 161.589 889.273 162.656 890.424 164.015C892.779 166.654 895.643 168.867 898.32 171.346C900.862 173.958 903.646 176.357 906.189 178.783C914.326 187.153 921.285 197.335 925.621 208.451C930.466 221.646 931.938 235.667 936.515 248.862C937.371 251.474 938.415 253.766 939.593 255.712C940.663 257.685 941.68 259.391 942.938 260.83C945.428 263.709 948.399 265.548 951.664 266.695C958.222 268.907 965.743 268.187 972.381 267.494Z" fill="#428B3D"/>
<path d="M962.263 269.467C957.981 269.467 954.394 268.934 951.289 267.841C947.596 266.561 944.491 264.456 942.028 261.603C940.61 259.977 939.486 258.085 938.522 256.272C937.291 254.193 936.22 251.821 935.364 249.208C933.169 242.838 931.643 236.2 930.198 229.749C928.619 222.819 926.986 215.622 924.497 208.851C920.455 198.455 913.817 188.352 905.332 179.636C904.449 178.783 903.512 177.93 902.548 177.05C900.862 175.504 899.122 173.905 897.463 172.199C896.633 171.426 895.723 170.653 894.84 169.853C893.047 168.28 891.173 166.628 889.54 164.842C888.898 164.069 888.202 163.429 887.533 162.789C886.971 162.256 886.435 161.75 885.927 161.19C884.722 159.937 883.625 158.604 882.661 157.245L882.046 156.285C880.413 153.779 878.887 151.434 877.951 148.555C876.211 143.437 876.157 138.292 877.763 132.801C878.593 129.922 879.878 127.177 881.109 124.511C881.832 122.938 882.554 121.392 883.17 119.846L883.919 117.9C885.231 114.488 886.596 110.943 888.71 107.771C890.129 105.612 891.708 103.879 893.582 102.466C895.723 100.867 898.159 99.7741 901.05 99.1077C903.512 98.5213 906.403 98.4946 909.963 98.9478C913.335 99.3743 916.761 100.227 919.839 101.4L921.231 102.013C924.737 103.693 928.163 105.479 931.429 107.344C934.614 109.29 937.451 111.503 940.476 113.849L940.984 114.248C947.301 118.913 952.601 125.071 958.864 132.641C967.456 144.77 976.262 157.245 983.301 170.813C983.917 171.986 984.559 173.158 985.229 174.331C986.353 176.357 987.504 178.463 988.521 180.622L995.373 195.923L1001.07 212.156C1002.33 215.995 1003.19 220.153 1003.99 224.178L1004.34 225.858C1004.79 228.203 1005.17 230.549 1005.49 232.868C1005.65 235.374 1005.73 237.693 1005.73 239.879C1005.73 244.677 1005.38 248.915 1004.66 252.487C1003.56 256.539 1002.04 259.817 1000.11 262.296C995.614 268.001 990.287 268.721 986.165 268.721C984.426 268.721 982.713 268.561 981.053 268.427C980.25 268.347 979.554 268.321 978.831 268.321C976.931 268.321 974.87 268.507 972.568 268.721C969.544 269.094 965.877 269.467 962.263 269.467ZM905.519 101.187C904.074 101.187 902.763 101.32 901.638 101.587C899.096 102.173 896.981 103.133 895.134 104.492C893.528 105.718 892.11 107.265 890.852 109.157C888.898 112.116 887.586 115.528 886.328 118.807L885.579 120.752C884.936 122.352 884.214 123.951 883.464 125.551C882.287 128.11 881.029 130.775 880.252 133.467C878.78 138.425 878.834 143.064 880.413 147.675C881.243 150.234 882.635 152.367 884.214 154.819L884.803 155.725C885.659 156.925 886.676 158.178 887.827 159.377C888.309 159.91 888.818 160.39 889.326 160.87C890.049 161.563 890.798 162.256 891.494 163.082C892.993 164.735 894.706 166.254 896.553 167.854C897.463 168.654 898.373 169.453 899.283 170.28C900.943 171.959 902.655 173.558 904.315 175.078C905.279 175.957 906.242 176.837 907.152 177.743C915.905 186.726 922.73 197.122 926.905 207.865C929.475 214.849 931.135 222.099 932.714 229.11C934.159 235.48 935.658 242.064 937.826 248.302C938.629 250.754 939.619 252.967 940.797 254.939C941.734 256.672 942.724 258.431 944.009 259.844C946.177 262.35 948.934 264.189 952.199 265.335C955.037 266.348 958.329 266.828 962.317 266.828C965.77 266.828 969.383 266.455 972.301 266.162C975.62 265.842 978.51 265.602 981.133 265.842C982.873 266.002 984.506 266.135 986.165 266.135C989.939 266.135 994.329 265.495 998.103 260.697C999.816 258.511 1001.18 255.526 1002.17 251.874C1002.84 248.542 1003.19 244.49 1003.19 239.852C1003.19 237.72 1003.11 235.454 1002.97 233.108C1002.68 230.922 1002.28 228.63 1001.85 226.337L1001.5 224.658C1000.7 220.713 999.896 216.635 998.665 212.956L993.017 196.856L986.219 181.662C985.255 179.609 984.104 177.53 983.007 175.557C982.338 174.358 981.695 173.158 981.053 171.959C974.094 158.551 965.315 146.129 956.857 134.161C950.781 126.803 945.588 120.752 939.485 116.248L938.95 115.848C935.979 113.555 933.195 111.37 930.198 109.53C927.013 107.718 923.64 105.958 920.214 104.306L918.929 103.719C916.119 102.653 912.907 101.853 909.722 101.453C908.089 101.294 906.751 101.187 905.519 101.187Z" fill="#26632A"/>
<path d="M972.274 256.165C974.576 255.739 976.744 255.392 978.617 255.472C980.812 255.579 983.167 255.632 985.469 254.966C987.798 254.273 989.993 252.86 991.679 249.848C992.883 247.742 993.686 245.023 994.168 241.878C994.57 238.759 994.998 235.16 994.489 231.482C993.713 224.072 992.214 215.861 989.511 208.798C981.08 184.274 969.169 163.829 954.1 142.61C952.012 139.358 949.549 136.666 947.167 134.08C944.785 131.495 942.43 129.069 940.074 126.803C934.962 122.645 929.93 118.94 924.496 115.821C924.148 115.661 923.747 115.448 923.399 115.288C918.099 113.182 912.96 111.396 908.919 111.716C899.39 112.995 897.275 119.606 894.519 125.311C893.073 128.349 891.012 131.255 889.915 134.56C888.737 137.919 888.71 141.358 890.37 146.236C894.385 156.098 906.188 165.455 915.209 175.317C917.029 177.397 918.849 179.476 920.669 181.582C922.328 183.794 923.854 186.167 925.433 188.459L927.708 191.924C928.458 193.097 929.02 194.403 929.662 195.656C930.893 198.162 932.098 200.694 933.249 203.226C937.853 215.462 940.449 228.363 944.705 240.598C950.7 259.951 962.263 258.138 972.274 256.165Z" fill="#C7E099"/>
<path d="M914.621 391.232C916.789 393.338 918.796 395.337 920.295 397.31C923.828 401.895 927.789 407.172 935.07 407.679C940.102 407.945 946.097 405.653 951.076 401.228C953.645 399.096 956.161 396.617 958.517 394.004C960.926 391.419 962.773 388.406 964.673 385.661C977.307 366.442 985.336 347.516 994.41 326.778C996.792 320.567 998.612 314.809 999.576 309.238C1000.27 303.613 1000.38 298.202 1000.08 292.791C1000.06 292.444 1000.03 292.098 1000 291.751C998.773 286.873 997.06 282.235 993.955 279.276C986.728 272.506 977.735 273.412 969.357 273.439C960.524 273.439 950.728 271.866 942.618 277.997C940.369 279.65 938.871 281.675 937.452 283.861C935.98 286.047 934.909 288.499 934.133 291.085C933.732 292.391 933.437 293.724 933.169 295.083C932.795 296.416 932.393 297.749 932.099 299.108C931.456 301.801 930.975 304.573 930.52 307.212C929.369 311.45 928.137 315.769 926.612 320.007C924.658 324.005 922.864 328.164 920.295 331.762C917.083 335.841 914.085 340.079 910.606 343.864C908.919 345.81 907.554 347.969 906.056 349.995C904.503 351.994 903.138 354.127 902.014 356.472C901.157 358.365 900.542 360.151 900.033 361.724C899.578 363.35 899.391 364.976 899.418 366.575C899.471 369.747 900.381 372.813 901.853 375.745C904.771 381.583 909.963 386.701 914.621 391.232Z" fill="#428B3D"/>
<path d="M935.872 408.959C935.578 408.959 935.284 408.959 934.989 408.932C927.227 408.399 922.891 402.774 919.411 398.243C917.859 396.19 915.905 394.271 913.71 392.112C909.267 387.82 903.753 382.462 900.675 376.278C899.016 372.999 898.159 369.721 898.106 366.575C898.079 364.816 898.293 363.057 898.775 361.377C899.337 359.671 899.953 357.859 900.809 355.94C901.933 353.567 903.298 351.381 905.011 349.196C905.466 348.582 905.948 347.889 906.43 347.223C907.42 345.81 908.437 344.371 909.615 343.011C912.131 340.292 914.433 337.28 916.655 334.375C917.538 333.229 918.394 332.109 919.278 330.963C921.312 328.137 922.891 324.832 924.417 321.606L925.461 319.421C926.933 315.236 928.164 310.891 929.261 306.839C929.636 304.493 930.145 301.641 930.814 298.789C931.055 297.696 931.376 296.603 931.67 295.51L931.884 294.71C932.152 293.324 932.473 291.965 932.848 290.685C933.704 287.78 934.855 285.301 936.328 283.115C937.934 280.636 939.459 278.61 941.815 276.904C947.623 272.506 954.287 271.919 960.042 271.919C961.648 271.919 963.281 271.973 964.887 272.026C967.242 272.106 969.544 272.133 971.873 272.106C972.89 272.079 973.88 272.079 974.897 272.079C981.294 272.079 988.628 272.559 994.784 278.317C998.398 281.756 1000.11 287.14 1001.21 291.432L1001.34 292.658C1001.66 298.416 1001.5 303.88 1000.83 309.371C999.897 314.676 998.237 320.327 995.587 327.231L994.035 330.803C985.63 349.995 977.708 368.121 965.717 386.354C965.288 386.967 964.887 387.58 964.459 388.193C962.933 390.459 961.381 392.778 959.427 394.857C956.83 397.683 954.287 400.162 951.852 402.188C947.087 406.48 941.226 408.959 935.872 408.959ZM960.096 274.505C954.502 274.505 948.613 275.038 943.394 278.983C941.36 280.476 939.995 282.262 938.522 284.528C937.184 286.527 936.14 288.766 935.364 291.432C935.016 292.631 934.695 293.884 934.427 295.297L934.186 296.203C933.892 297.243 933.597 298.309 933.356 299.375C932.687 302.147 932.206 304.973 931.804 307.399C930.653 311.61 929.422 316.035 927.843 320.407L926.745 322.699C925.166 326.005 923.533 329.417 921.339 332.482C920.429 333.655 919.572 334.775 918.689 335.894C916.44 338.853 914.085 341.918 911.542 344.691C910.472 345.917 909.481 347.33 908.544 348.662C908.063 349.355 907.581 350.022 907.072 350.688C905.466 352.741 904.208 354.793 903.164 356.952C902.361 358.738 901.773 360.471 901.264 362.044C900.863 363.457 900.675 364.949 900.702 366.469C900.756 369.241 901.532 372.146 903.004 375.079C905.895 380.89 911.248 386.061 915.53 390.219C917.805 392.432 919.813 394.458 921.339 396.457C924.979 401.175 928.592 405.866 935.177 406.32C935.391 406.32 935.658 406.346 935.899 406.346C940.557 406.346 945.91 404.054 950.246 400.189C952.628 398.216 955.09 395.817 957.606 393.072C959.427 391.126 960.925 388.887 962.398 386.701C962.826 386.088 963.227 385.448 963.656 384.835C975.513 366.815 983.382 348.769 991.733 329.683L993.259 326.165C995.828 319.501 997.461 313.983 998.344 308.918C998.987 303.64 999.147 298.336 998.853 292.765L998.773 291.778C997.809 288.02 996.23 283.088 993.098 280.103C986.755 274.185 979.126 274.505 971.98 274.612C969.598 274.638 967.269 274.612 964.86 274.532C963.254 274.558 961.675 274.505 960.096 274.505Z" fill="#26632A"/>
<path d="M924.337 382.649C926.183 384.168 927.923 385.634 929.235 387.074C932.34 390.486 935.846 394.351 941.574 394.271C945.616 394.191 949.898 391.765 953.94 388.327C957.741 384.675 961.14 379.877 964.031 375.452C966.413 371.587 968.34 367.588 970.454 363.776C971.472 361.83 972.569 359.964 973.506 358.019L976.156 352.128C977.869 348.183 979.983 344.424 981.616 340.426C983.275 336.427 985.069 332.429 987.049 328.35C989.324 323.526 990.449 318.887 991.439 314.516C991.867 312.303 992.295 310.171 992.456 308.012C992.536 305.826 992.51 303.667 992.429 301.481C992.402 301.214 992.376 300.921 992.376 300.628C991.626 296.683 990.663 292.951 988.388 290.419C982.874 284.661 975.647 284.874 969.089 284.528C965.61 284.341 961.943 283.728 958.329 283.835C954.743 283.941 951.236 284.741 947.703 287.14C943.822 289.752 941.868 293.697 940.343 298.122C939.459 300.308 938.79 302.627 938.255 304.973C937.666 307.319 937.398 309.744 936.649 311.904C935.552 315.555 934.561 319.314 933.196 322.939C931.563 326.458 929.824 329.896 927.87 333.202C925.3 336.88 922.356 340.346 919.92 344.077C917.03 347.489 914.674 351.195 912.854 355.326C909.669 361.511 910.606 366.762 913.229 371.24C915.825 375.692 920.322 379.37 924.337 382.649Z" fill="#C7E099"/>
<path d="M742.007 401.255C740.508 404.001 739.089 406.56 737.483 408.532C733.736 413.144 729.373 418.342 732.076 426.845C733.094 429.804 735.181 432.549 737.911 435.402C739.277 436.814 740.829 438.2 742.515 439.56C743.345 440.253 744.228 440.919 745.138 441.612C746.102 442.199 747.065 442.785 748.056 443.372C752.071 445.664 756.487 447.823 760.984 449.796C765.614 451.449 770.379 452.781 774.902 453.981C778.756 455.154 782.718 455.687 786.599 456.327C790.507 456.94 794.334 457.579 798.188 458.059C802.043 458.272 805.897 458.512 809.725 458.726L815.452 459.046C817.353 459.179 819.253 458.965 821.18 458.965C824.981 458.859 828.782 458.726 832.609 458.619L835.473 458.539L838.337 458.219L844.065 457.579C847.893 457.1 851.801 456.913 855.655 456.22C859.509 455.527 863.417 454.807 867.352 454.114C885.874 450.276 899.685 443.212 911.114 433.296C911.462 432.976 911.837 432.656 912.185 432.336C914.487 429.804 916.762 427.405 918.448 424.819C920.054 422.153 921.258 419.568 921.74 417.035C923.855 405.493 916.548 399.576 910.686 393.285C907.554 389.979 904.797 386.088 901.211 382.969C897.651 379.85 893.315 377.478 887.533 376.998C884.455 376.865 881.083 376.811 877.924 377.558C876.318 377.904 874.766 378.384 873.187 378.97C871.581 379.477 869.894 379.903 868.288 380.517C865.023 381.689 861.865 383.369 858.492 384.462C855.173 385.688 851.988 387.42 848.723 388.22C838.15 392.219 826.293 393.418 815.051 391.872C813.418 391.579 811.785 391.312 810.153 391.019L807.69 390.619C806.887 390.433 806.084 390.139 805.308 389.9C802.15 388.86 798.911 388.194 795.779 387.207C792.701 386.034 789.57 385.075 786.385 384.328C783.306 383.182 780.175 382.276 776.856 381.689C771.77 380.463 767.595 380.063 763.794 380.836C760.074 381.45 757.049 382.702 754.319 384.782C748.832 388.727 745.165 395.337 742.007 401.255Z" fill="#428B3D"/>
<path d="M816.817 460.351C816.335 460.351 815.854 460.351 815.372 460.298L798.134 459.312C795.244 458.965 792.46 458.512 789.623 458.059L784.885 457.313C781.486 456.78 777.953 456.22 774.527 455.18C770.298 454.061 765.373 452.701 760.528 450.968C755.577 448.809 751.187 446.65 747.386 444.464L744.442 442.705C743.425 441.959 742.515 441.266 741.658 440.546C739.918 439.107 738.312 437.667 736.947 436.281C733.655 432.869 731.782 430.07 730.818 427.245C727.927 418.181 732.531 412.504 736.252 407.919L736.412 407.706C737.911 405.893 739.249 403.521 740.829 400.642C743.692 395.311 747.6 388.007 753.489 383.662C756.38 381.476 759.565 380.143 763.526 379.477C767.193 378.73 771.368 378.944 777.096 380.356C780.174 380.89 783.36 381.769 786.786 383.049C789.703 383.688 792.835 384.648 796.207 385.928C797.626 386.381 799.125 386.781 800.624 387.18C802.31 387.634 803.996 388.06 805.682 388.62C805.95 388.7 806.271 388.806 806.593 388.886C807.048 389.02 807.503 389.18 807.958 389.286L815.238 390.539C826.212 392.058 838.15 390.779 848.24 386.967C850.382 386.434 852.362 385.581 854.45 384.675C855.628 384.168 856.832 383.662 858.037 383.182C859.91 382.569 861.73 381.796 863.497 381.023C864.942 380.383 866.388 379.77 867.86 379.237C868.877 378.837 869.948 378.517 871.018 378.224C871.607 378.037 872.223 377.877 872.811 377.691C874.391 377.078 876.05 376.598 877.683 376.251C879.61 375.798 881.778 375.585 884.455 375.585C885.525 375.585 886.596 375.612 887.613 375.665C893.073 376.118 897.784 378.171 902.093 381.956C904.395 383.955 906.349 386.274 908.25 388.513C909.374 389.819 910.471 391.126 911.622 392.352C912.265 393.045 912.907 393.711 913.549 394.378C918.902 399.949 925.005 406.266 922.998 417.195C922.543 419.674 921.392 422.366 919.545 425.405C917.859 427.964 915.744 430.283 913.496 432.736L913.148 433.136L911.97 434.202C899.658 444.918 885.552 451.608 867.592 455.34L855.842 457.446C853.379 457.899 850.917 458.139 848.508 458.352C847.063 458.486 845.617 458.619 844.199 458.805L835.58 459.765L821.18 460.218C820.484 460.218 819.842 460.245 819.172 460.271C818.423 460.298 817.62 460.351 816.817 460.351ZM767.889 381.636C766.497 381.636 765.239 381.743 764.008 382.009C760.448 382.596 757.611 383.795 755.041 385.714C749.608 389.713 745.861 396.723 743.104 401.841C741.444 404.88 740.052 407.332 738.42 409.332L738.259 409.545C734.592 414.076 730.791 418.741 733.254 426.445C734.084 428.897 735.796 431.376 738.794 434.495C740.079 435.828 741.605 437.187 743.264 438.547C744.094 439.213 744.95 439.88 745.834 440.546L748.564 442.172C752.365 444.358 756.674 446.49 761.438 448.569C766.096 450.222 770.994 451.582 775.196 452.701C778.488 453.714 781.941 454.247 785.233 454.78L789.971 455.527C792.755 455.98 795.538 456.406 798.295 456.753L815.452 457.739C816.683 457.819 817.834 457.766 819.012 457.713C819.708 457.686 820.404 457.659 821.073 457.632L835.339 457.206L843.824 456.246C845.269 456.06 846.715 455.927 848.187 455.767C850.542 455.553 852.978 455.313 855.307 454.887L867.03 452.781C884.508 449.183 898.239 442.652 910.177 432.256L911.515 431.003C913.683 428.631 915.744 426.392 917.297 424.046C918.956 421.3 919.973 418.901 920.401 416.715C922.168 407.066 917.056 401.761 911.622 396.137C910.953 395.47 910.311 394.777 909.668 394.084C908.49 392.831 907.34 391.499 906.189 390.139C904.342 387.98 902.441 385.741 900.3 383.848C896.446 380.463 892.217 378.597 887.372 378.197C886.435 378.171 885.418 378.117 884.374 378.117C881.885 378.117 879.931 378.304 878.165 378.73C876.639 379.05 875.113 379.503 873.588 380.09C872.919 380.303 872.303 380.49 871.687 380.676C870.697 380.97 869.68 381.263 868.716 381.636C867.271 382.142 865.879 382.755 864.487 383.369C862.667 384.142 860.794 384.968 858.84 385.608C857.715 386.034 856.565 386.514 855.414 387.02C853.326 387.927 851.158 388.86 848.963 389.393C838.685 393.311 826.346 394.644 814.81 393.071L807.422 391.792C806.807 391.659 806.298 391.472 805.763 391.312C805.468 391.205 805.174 391.125 804.879 391.046C803.22 390.512 801.56 390.059 799.928 389.633C798.375 389.233 796.85 388.806 795.324 388.327C792.005 387.074 788.981 386.141 786.036 385.474C782.61 384.222 779.559 383.369 776.561 382.835C773.108 382.009 770.351 381.636 767.889 381.636Z" fill="#26632A"/>
<path d="M751.562 407.412C750.652 409.545 749.795 411.544 748.698 413.064C746.128 416.662 743.184 420.74 746.343 427.138C748.484 431.829 754.051 435.854 760.85 439.533C764.195 441.532 768.077 442.812 771.958 444.091C775.865 445.264 779.747 446.677 783.601 447.29C796.77 449.769 809.484 450.915 822.171 450.622C828.514 450.355 834.858 450.489 841.228 449.529C844.413 449.209 847.652 448.863 850.89 448.516C854.129 448.143 857.341 447.37 860.633 446.863C864.488 446.09 868.235 445.611 871.607 444.411C875.007 443.292 878.219 442.092 881.297 440.839C882.849 440.199 884.348 439.586 885.82 438.92C887.239 438.12 888.63 437.321 890.022 436.521C892.779 434.895 895.429 433.189 898.025 431.403C898.347 431.19 898.694 430.923 899.016 430.71C903.245 426.925 906.831 422.74 908.223 418.955C909.802 414.583 909.187 411.171 907.715 408.212C906.269 405.28 904.021 402.881 901.96 400.455C899.792 397.896 897.999 394.804 895.456 392.432C892.886 390.006 889.514 388.14 884.508 387.82C881.752 387.554 879.048 388.22 876.05 388.7C873.053 389.233 870.028 390.139 867.004 391.365C860.74 393.231 854.316 396.164 848.053 397.736C842.968 399.629 837.561 400.109 832.208 401.068C829.504 401.468 826.774 401.282 824.044 401.361C821.341 401.335 818.611 401.548 815.934 400.962C812.829 400.482 809.724 400.002 806.593 399.496C803.515 398.722 800.49 397.843 797.412 397.176C794.307 396.67 791.39 395.444 788.365 394.724C785.341 393.951 782.236 393.445 779.265 392.538C769.602 390.539 763.928 391.312 759.752 394.564C755.63 397.683 753.462 402.828 751.562 407.412Z" fill="#C7E099"/>
<path d="M676.055 284.821C673.057 285.407 670.247 285.914 667.784 286.02C661.976 286.313 655.392 286.607 650.681 292.204C647.201 296.176 646.425 302.147 646.827 308.731C647.094 312.01 647.335 315.502 648.379 318.834C649.316 322.166 650.44 325.498 651.564 328.59C659.888 349.862 670.514 367.455 682.425 386.994C686.066 392.698 689.652 397.656 694.042 401.495C698.298 405.413 702.473 408.958 707.532 411.517C707.853 411.677 708.174 411.837 708.495 411.997C713.367 413.783 717.997 415.329 722.307 414.369C732.237 411.97 736.332 404 740.936 397.043C743.318 393.338 746.289 389.739 748.457 385.767C750.705 381.742 751.99 377.664 751.91 372.546C751.883 369.747 751.267 367.241 750.224 364.976C749.715 363.829 749.073 362.763 748.35 361.724C747.681 360.604 747.012 359.485 746.235 358.418C744.683 356.286 742.809 354.34 740.855 352.421C739.116 350.315 737.242 348.342 735.422 346.45L733.147 344.077L731.166 341.438L727.285 336.054C725.92 334.295 725.064 332.215 724.046 330.243C723.083 328.244 722.173 326.218 721.316 324.192C718.158 314.222 716.391 304.04 711.788 294.657C707.719 287.353 702.527 284.181 696.022 283.221C689.652 282.182 682.425 283.568 676.055 284.821Z" fill="#428B3D"/>
<path d="M719.496 415.942C715.803 415.942 711.975 414.636 708.067 413.197L706.97 412.637C701.483 409.865 696.986 405.919 693.186 402.427C688.287 398.136 684.46 392.565 681.355 387.687C669.792 368.734 658.898 350.848 650.387 329.043C649.048 325.418 648.005 322.193 647.148 319.154C646.158 315.982 645.863 312.703 645.622 309.558L645.569 308.838C645.087 300.841 646.425 295.137 649.744 291.378C654.75 285.407 661.869 285.061 667.597 284.767C670.113 284.661 672.817 284.154 675.841 283.568C680.445 282.662 686.173 281.542 691.526 281.542C693.212 281.542 694.845 281.649 696.317 281.862C703.705 282.928 709.031 286.767 713.019 293.937C716.231 300.441 718.105 307.372 719.898 314.062C720.754 317.235 721.638 320.513 722.655 323.739C723.404 325.551 724.314 327.577 725.305 329.63C725.546 330.083 725.787 330.563 726.027 331.069C726.75 332.588 727.446 334.001 728.41 335.227L734.271 343.278L736.439 345.543C738.233 347.409 740.133 349.435 741.926 351.594C743.746 353.38 745.7 355.406 747.333 357.645C748.163 358.765 748.859 359.938 749.528 361.031C750.251 362.07 750.92 363.216 751.455 364.389C752.606 366.922 753.222 369.64 753.248 372.466C753.302 377.451 752.205 381.716 749.635 386.327C748.243 388.86 746.53 391.259 744.897 393.578C743.934 394.937 742.97 396.297 742.06 397.683C741.552 398.429 741.07 399.202 740.588 399.948C736.386 406.506 732.023 413.303 722.655 415.542C721.638 415.809 720.594 415.942 719.496 415.942ZM691.473 284.101C686.36 284.101 681.007 285.141 676.296 286.074C673.165 286.687 670.381 287.193 667.838 287.3C661.923 287.593 655.981 287.886 651.672 293.004C648.834 296.256 647.683 301.347 648.112 308.625L648.165 309.318C648.406 312.33 648.674 315.475 649.611 318.407C650.467 321.42 651.484 324.592 652.769 328.11C661.2 349.675 672.04 367.455 683.523 386.301C686.521 391.019 690.215 396.403 694.899 400.482C699.476 404.693 703.437 407.945 708.121 410.318L709.085 410.798C713.635 412.477 718.292 413.916 722.039 413.063C730.39 411.064 734.459 404.693 738.393 398.562C738.875 397.789 739.384 397.016 739.892 396.27C740.802 394.884 741.766 393.498 742.783 392.085C744.389 389.819 746.048 387.473 747.387 385.074C749.742 380.863 750.759 376.998 750.679 372.493C750.652 370.014 750.117 367.641 749.1 365.429C748.618 364.389 748.029 363.376 747.333 362.39C746.664 361.244 745.995 360.151 745.219 359.138C743.693 357.032 741.793 355.086 739.972 353.3C738.152 351.114 736.279 349.115 734.512 347.303L732.237 344.93L730.149 342.158L726.268 336.747C725.171 335.334 724.395 333.735 723.645 332.162C723.404 331.682 723.19 331.202 722.949 330.749C721.932 328.617 720.995 326.564 720.192 324.592C719.122 321.233 718.239 317.928 717.355 314.729C715.508 307.852 713.742 301.374 710.69 295.137C707.104 288.686 702.527 285.38 695.889 284.421C694.551 284.208 693.052 284.101 691.473 284.101Z" fill="#26632A"/>
<path d="M677.608 297.642C675.279 298.282 673.084 298.868 671.157 299.082C666.58 299.641 661.388 300.281 658.069 304.999C656.891 306.652 656.168 308.705 655.767 310.997C655.58 312.143 655.446 313.343 655.419 314.596C655.472 315.822 655.606 317.101 655.794 318.381C656.623 323.525 658.176 329.176 660.317 333.975C662.244 338.053 664.118 342.051 665.992 345.997C667.812 349.942 670.221 353.594 672.201 357.379L675.253 363.056C676.377 364.896 677.501 366.762 678.652 368.601C680.954 372.306 682.961 376.278 685.343 380.143C688.207 384.675 691.125 388.54 694.149 391.925C697.388 395.15 700.894 397.789 704.535 400.268C704.775 400.428 705.016 400.562 705.257 400.722C708.817 402.561 712.725 403.68 716.178 403.174C724.127 401.948 727.874 395.897 731.916 390.646C736.199 385.128 742.007 379.796 741.766 371.666C741.739 370.547 741.579 369.534 741.338 368.468C741.15 367.375 740.829 366.308 740.454 365.296C739.678 363.243 738.527 361.324 737.135 359.511C735.717 357.725 734.245 355.859 732.746 354.02C731.22 352.207 729.587 350.448 728.008 348.795C725.573 345.917 723.405 342.744 721.156 339.599C719.978 338.053 719.175 336.294 718.319 334.588C717.489 332.855 716.686 331.096 715.964 329.336L714.706 326.218L713.769 322.966C713.153 320.806 712.484 318.647 711.735 316.541C710.878 314.462 710.316 312.303 709.54 310.224C708.737 308.145 707.8 306.119 706.569 304.173C705.552 302.654 704.642 301.347 703.732 300.228C702.768 299.108 701.724 298.229 700.627 297.509C698.405 296.07 695.943 295.377 693.346 295.163C688.181 294.683 682.56 296.256 677.608 297.642Z" fill="#C7E099"/>
<path d="M750.196 125.657C748.269 123.205 746.449 120.886 745.298 118.62C742.541 113.342 739.49 107.291 730.577 106.438C727.418 106.119 724.099 106.972 720.433 108.304C718.612 108.997 716.739 109.824 714.812 110.81C712.885 111.77 710.931 112.863 709.137 114.249C705.47 116.914 701.777 120.033 698.217 123.258C694.791 126.617 691.766 130.376 688.822 133.868C687.591 135.387 686.306 136.853 685.182 138.426C684.084 139.998 683.014 141.598 681.916 143.171C679.775 146.316 677.661 149.461 675.546 152.553C673.619 155.779 671.852 159.031 670.005 162.256C668.239 165.508 666.231 168.6 664.786 171.986C661.735 178.676 658.228 185.127 655.686 192.111C654.267 195.55 652.848 198.988 651.403 202.48C650.172 206.026 648.941 209.624 647.683 213.249C646.157 217.514 644.792 221.619 644.123 225.698C643.32 229.75 642.704 233.641 642.222 237.453C641.526 245.077 642.008 252.407 642.651 259.631C642.731 260.084 642.838 260.564 642.918 261.017C644.819 267.441 646.933 273.439 650.466 276.984C659.031 284.981 668.132 282.395 676.563 281.089C681.033 280.343 685.851 280.29 690.401 279.063C694.925 277.891 699.1 275.598 703.061 270.933C710.797 260.804 711.439 244.304 714.276 230.096L715.16 225.698C715.32 224.978 715.427 224.205 715.615 223.485L716.311 221.353L719.175 212.77C720.245 209.944 721.717 207.332 723.056 204.613C723.752 203.28 724.394 201.921 725.143 200.641L727.713 196.963C735.769 185.5 745.994 176.171 754.238 165.428C757.557 161.27 759.538 157.512 760.394 153.726C761.358 150.154 761.358 146.822 760.555 143.49C759.002 136.853 754.372 130.882 750.196 125.657Z" fill="#428B3D"/>
<path d="M664.733 283.781C658.737 283.781 653.946 281.889 649.637 277.864C646.077 274.292 643.909 268.694 641.741 261.337L641.447 259.844C640.831 253.074 640.242 245.317 640.992 237.293C641.473 233.375 642.116 229.403 642.919 225.404C643.615 221.166 645.06 216.821 646.532 212.769L650.253 202.027L654.562 191.604C656.302 186.806 658.55 182.168 660.745 177.663C661.735 175.611 662.752 173.532 663.689 171.452C664.733 169.053 666.045 166.734 667.329 164.495C667.865 163.562 668.427 162.603 668.935 161.643C669.578 160.497 670.22 159.377 670.836 158.258C672.013 156.125 673.218 154.019 674.476 151.914L684.138 137.706C684.941 136.613 685.771 135.6 686.628 134.587C687.029 134.081 687.457 133.601 687.859 133.094L688.903 131.841C691.553 128.669 694.256 125.417 697.334 122.405C701.215 118.86 704.935 115.794 708.388 113.262C710.369 111.716 712.564 110.543 714.25 109.717C716.231 108.704 718.185 107.824 720.005 107.158C724.689 105.479 727.713 104.919 730.738 105.212C740.213 106.145 743.612 112.622 746.342 117.847L746.476 118.087C747.627 120.326 749.554 122.778 751.241 124.911C755.015 129.629 760.18 136.106 761.867 143.197C762.75 146.822 762.696 150.367 761.706 154.046C760.85 157.938 758.815 161.83 755.309 166.201C751.642 170.973 747.52 175.557 743.532 179.982C738.5 185.554 733.281 191.338 728.837 197.682L726.268 201.361C725.786 202.187 725.304 203.147 724.823 204.08L724.261 205.199C723.886 205.945 723.511 206.718 723.11 207.492C722.173 209.357 721.209 211.277 720.46 213.223L716.927 223.885C716.846 224.258 716.739 224.711 716.659 225.191L715.615 230.362C714.946 233.748 714.384 237.346 713.822 240.812C712.055 252.087 710.235 263.763 704.159 271.733C700.332 276.238 696.103 278.957 690.803 280.343C687.859 281.116 684.834 281.436 681.917 281.755C680.204 281.942 678.517 282.129 676.858 282.395C676.001 282.529 675.145 282.662 674.288 282.822C671.157 283.248 667.972 283.781 664.733 283.781ZM729.212 107.664C726.964 107.664 724.448 108.224 720.834 109.53C719.121 110.17 717.275 110.996 715.374 111.983C713.795 112.782 711.761 113.875 709.914 115.315C706.488 117.82 702.874 120.806 699.074 124.271C696.129 127.15 693.453 130.375 690.857 133.494L689.813 134.747C689.411 135.227 689.01 135.733 688.582 136.24C687.779 137.226 686.976 138.186 686.199 139.225L676.617 153.326C675.413 155.352 674.235 157.458 673.057 159.564C672.415 160.683 671.799 161.83 671.157 162.949C670.622 163.909 670.086 164.868 669.524 165.828C668.213 168.094 666.981 170.253 665.991 172.545C665.027 174.678 664.01 176.757 662.993 178.836C660.852 183.288 658.63 187.873 656.891 192.591L652.608 203.013L648.914 213.702C647.496 217.648 646.077 221.859 645.408 225.938C644.632 229.909 643.989 233.828 643.508 237.64C642.785 245.423 643.347 253.02 643.936 259.551L644.203 260.804C646.238 267.654 648.245 272.959 651.404 276.104C655.178 279.623 659.433 281.302 664.706 281.302C667.731 281.302 670.809 280.769 673.807 280.263C674.663 280.103 675.546 279.97 676.403 279.836C678.089 279.57 679.829 279.383 681.596 279.197C684.433 278.903 687.35 278.583 690.107 277.864C694.952 276.611 698.646 274.212 702.125 270.133C707.773 262.75 709.539 251.394 711.252 240.438C711.814 236.947 712.376 233.321 713.046 229.883L714.089 224.711C714.197 224.205 714.277 223.698 714.411 223.219L717.997 212.396C718.8 210.264 719.817 208.291 720.781 206.372C721.156 205.599 721.557 204.853 721.932 204.08L722.494 202.96C723.002 201.974 723.511 200.987 724.046 200.028L726.696 196.269C731.22 189.819 736.493 183.981 741.578 178.33C745.539 173.931 749.635 169.4 753.248 164.682C756.487 160.603 758.36 157.058 759.163 153.486C760.047 150.181 760.1 147.035 759.324 143.837C757.772 137.279 752.82 131.068 749.18 126.537C747.038 123.818 745.325 121.552 744.148 119.286L744.041 119.073C741.337 113.929 738.527 108.597 730.47 107.798C730.042 107.664 729.64 107.664 729.212 107.664Z" fill="#26632A"/>
<path d="M740.695 131.921C739.089 130.242 737.617 128.669 736.626 127.043C734.325 123.258 731.755 118.967 724.635 119.286C714.384 119.473 700.466 132.295 691.312 144.396C675.841 165.508 666.071 186.993 657.185 211.143C655.927 214.742 654.856 218.181 653.893 221.513C653.036 224.871 652.608 228.15 652.153 231.349C651.725 234.547 651.404 237.666 651.189 240.732C651.189 243.824 651.35 246.889 651.537 249.955C651.564 250.328 651.618 250.754 651.645 251.128C652.1 253.846 652.635 256.512 653.304 258.858C654.027 261.23 655.178 263.309 656.436 264.882C662.404 272.106 669.176 270.48 675.52 269.814C682.211 269.147 689.786 270.427 695.434 262.137C697.013 259.897 698.538 257.258 699.529 254.353C700.037 252.887 700.492 251.367 700.867 249.795C701.028 248.995 701.215 248.195 701.376 247.396C701.59 246.596 701.831 245.77 702.045 244.943C702.901 241.638 703.517 238.199 704.025 234.707C704.775 231.269 705.551 227.857 706.274 224.605C706.568 223.245 706.809 221.859 707.184 220.5L708.495 216.528L711.199 208.531C712.35 205.972 713.634 203.466 714.866 200.934L716.793 197.202C717.435 195.949 718.319 194.856 719.095 193.684C720.968 191.045 722.842 188.379 724.716 185.713C726.857 183.234 728.945 180.755 730.952 178.196L732.424 176.277L734.057 174.491C735.128 173.292 736.171 172.092 737.189 170.839C738.206 169.586 739.169 168.334 740.106 167.001C741.07 165.721 742.167 164.575 743.104 163.296C748.992 155.139 750.572 149.701 749.26 144.556C748.056 139.518 744.148 135.493 740.695 131.921Z" fill="#C7E099"/>
<path d="M954.956 350.128C949.683 347.116 947.783 339.066 951.102 332.375C951.985 330.696 952.895 329.15 954.019 327.817C955.144 326.484 956.428 325.391 957.847 324.592C960.657 322.966 963.923 322.379 966.894 323.392C969.865 324.405 971.953 326.911 972.916 330.243C973.398 331.895 973.585 333.761 973.452 335.707C973.345 337.653 972.916 339.706 971.899 341.625C968.045 349.462 960.577 353.354 954.956 350.128Z" fill="#428B3D"/>
<path d="M960.658 340.212C958.731 339.279 958.115 336.587 959.293 334.161C960.363 331.709 962.665 330.269 964.673 331.042C966.627 331.816 967.51 334.641 966.386 337.227C965.154 339.812 962.585 341.118 960.658 340.212Z" fill="#1D693E"/>
<path d="M808.413 424.685C808.734 421.567 810.581 418.901 813.15 417.062C814.435 416.155 815.907 415.436 817.487 415.036C819.066 414.556 820.806 414.103 822.599 414.103C826.186 414.023 829.478 415.222 832.074 417.248C834.617 419.008 836.464 421.593 836.785 424.712C837.106 427.804 835.795 430.87 833.252 433.215C830.682 435.321 826.881 436.681 822.626 436.761C820.511 436.761 818.477 436.574 816.684 435.908C814.89 435.188 813.284 434.202 812.026 433.082C809.403 430.763 808.092 427.804 808.413 424.685Z" fill="#428B3D"/>
<path d="M819.414 426.098C819.468 423.966 821.636 422.206 824.232 422.153C826.828 422.1 829.023 423.779 829.13 425.912C829.237 428.044 827.096 429.803 824.312 429.857C821.555 429.937 819.361 428.231 819.414 426.098Z" fill="#1D693E"/>
<path d="M688.796 345.304C691.606 343.891 694.872 344.051 697.843 345.304C699.315 345.943 700.734 346.85 701.992 348.023C703.357 349.142 704.615 350.448 705.632 352.048C707.666 355.193 708.415 358.792 708.148 362.07C708.014 365.243 706.729 368.201 704.24 370.094C701.724 371.987 698.432 372.36 695.032 371.347C691.794 370.254 688.635 367.615 686.307 363.99C685.156 362.177 684.299 360.284 683.817 358.419C683.443 356.473 683.416 354.607 683.684 352.901C684.192 349.462 685.985 346.716 688.796 345.304Z" fill="#428B3D"/>
<path d="M693.641 355.62C695.488 354.553 698.164 355.513 699.61 357.752C701.055 360.018 700.814 362.817 699.048 364.016C697.281 365.216 694.604 364.256 693.079 361.884C691.553 359.511 691.794 356.713 693.641 355.62Z" fill="#1D693E"/>
<path d="M704.159 178.596C706.809 180.249 708.442 183.074 708.977 186.14C709.513 189.205 708.87 192.511 707.425 195.763C705.872 198.961 703.303 201.281 700.359 202.613C697.495 203.946 694.417 204.373 691.472 203.173C688.608 202 686.414 199.415 685.611 196.216C684.888 193.044 685.343 189.152 687.163 185.473C688.849 181.742 691.954 179.209 695.113 178.01C698.271 176.757 701.483 176.917 704.159 178.596Z" fill="#428B3D"/>
<path d="M698.083 187.526C699.957 188.539 700.599 191.204 699.475 193.497C698.378 195.789 695.888 196.909 693.934 196.029C691.981 195.149 691.365 192.457 692.543 190.058C693.72 187.659 696.21 186.513 698.083 187.526Z" fill="#1D693E"/>
<path d="M832.743 103.213C832.529 106.358 830.789 108.971 828.246 110.89C825.703 112.996 822.385 114.355 818.718 114.408C816.871 114.488 815.104 114.062 813.445 113.689C811.812 113.316 810.286 112.702 808.948 111.823C806.271 110.117 804.264 107.504 803.809 104.412C803.354 101.32 804.585 98.3081 807.101 95.9091C808.359 94.7095 809.938 93.6699 811.758 92.8703C813.552 92.0706 815.613 91.8307 817.781 91.7507C822.117 91.6441 826.051 92.8436 828.755 94.8695C831.485 97.0819 832.957 100.121 832.743 103.213Z" fill="#428B3D"/>
<path d="M821.474 102.387C821.501 104.519 819.36 106.278 816.71 106.332C814.06 106.278 811.758 104.866 811.571 102.787C811.356 100.654 813.471 98.6015 816.308 98.6282C819.119 98.5749 821.447 100.254 821.474 102.387Z" fill="#1D693E"/>
<path d="M961.327 204.533C958.383 205.626 955.117 205.172 952.307 203.653C950.888 202.907 949.577 201.867 948.453 200.614C947.329 199.361 946.418 197.842 945.508 196.269C942.163 189.872 943.929 181.955 949.122 178.809C954.662 175.451 962.13 178.996 966.065 186.54C967.082 188.379 967.537 190.378 967.671 192.297C967.831 194.217 967.671 196.029 967.216 197.655C966.332 200.934 964.271 203.44 961.327 204.533Z" fill="#428B3D"/>
<path d="M957.741 194.003C955.841 194.856 953.324 193.657 952.093 191.338C950.889 189.019 951.451 186.326 953.325 185.313C955.198 184.3 957.768 185.5 959.052 187.952C960.337 190.405 959.748 193.097 957.741 194.003Z" fill="#1D693E"/>
<path d="M819.948 326.991C815.826 309.611 807.85 291.299 808.706 273.146C809.59 254.38 816.388 236.947 820.055 218.687C822.009 209.038 823.267 199.495 823.294 190.059C822.303 179.849 821.179 164.949 813.711 157.005C805.146 147.915 789.569 150.421 779.424 155.033C770.511 159.084 762.776 166.335 756.727 173.932C751.32 180.702 746.797 188.459 742.862 196.19C737.268 207.199 722.761 237.16 722.038 269.041C720.941 316.062 754.398 373.133 785.794 379.664C808.198 384.328 818.636 372.2 823.24 353.647C823.427 343.971 821.581 333.842 819.948 326.991Z" fill="#00A64D"/>
<path d="M794.788 381.929C791.898 381.929 788.766 381.583 785.501 380.916C752.9 374.146 719.603 316.622 720.727 269.014C721.075 253.633 725.009 228.443 741.711 195.63C746.342 186.54 750.919 179.183 755.71 173.158C762.857 164.175 770.886 157.511 778.889 153.886C784.858 151.194 791.657 149.621 797.518 149.621C804.692 149.621 810.634 151.887 814.649 156.152C822.116 164.069 823.481 178.25 824.445 188.592L824.579 189.925C824.552 198.775 823.482 208.211 821.313 218.927C820.029 225.298 818.342 231.642 816.71 237.773C813.685 249.208 810.527 261.07 809.965 273.172C809.376 285.834 813.203 298.789 816.924 311.29C818.423 316.355 819.975 321.58 821.18 326.644C822.812 333.468 824.686 343.704 824.472 353.62C824.472 353.727 824.445 353.807 824.445 353.914C819.841 372.52 809.858 381.929 794.788 381.929ZM797.492 152.18C791.978 152.18 785.581 153.646 779.933 156.205C772.278 159.67 764.596 166.068 757.717 174.731C753.033 180.622 748.537 187.819 743.987 196.776C727.525 229.163 723.644 253.953 723.297 269.067C722.226 314.729 755.068 371.96 786.036 378.411C805.04 382.356 816.736 374.306 821.929 353.46C822.116 343.864 820.296 333.922 818.717 327.284C817.539 322.299 816.067 317.315 814.488 312.064C810.714 299.349 806.806 286.207 807.422 273.092C808.011 260.697 811.169 248.729 814.247 237.16C815.853 231.056 817.539 224.738 818.797 218.447C820.939 207.918 821.983 198.615 822.009 190.058L821.876 188.832C820.912 178.836 819.627 165.162 812.748 157.911C809.188 154.099 804.049 152.18 797.492 152.18Z" fill="#00410D"/>
<path d="M813.284 362.204C824.793 312.756 786.572 297.243 789.757 264.935C791.55 246.729 808.065 231.295 814.301 210.957C817.647 200.054 817.299 187.793 813.418 177.103C804.505 152.58 775.062 163.855 762.215 178.356C755.764 185.633 750.598 194.776 746.342 203.466C741.364 213.649 728.489 241.345 727.847 270.8C726.883 314.249 756.567 367.028 784.484 373.053C798.804 376.171 807.984 371.4 813.284 362.204Z" fill="#C7E099"/>
<path d="M787.642 240.998C787.642 248.595 780.87 254.753 772.546 254.753C764.195 254.753 757.423 248.595 757.423 240.998C757.423 233.401 764.195 227.244 772.546 227.244C780.87 227.244 787.642 233.401 787.642 240.998Z" fill="#428B3D"/>
<path d="M775.865 240.252C775.865 242.838 773.563 244.943 770.726 244.943C767.889 244.943 765.587 242.838 765.587 240.252C765.587 237.666 767.889 235.561 770.726 235.561C773.563 235.561 775.865 237.666 775.865 240.252Z" fill="#1D693E"/>
<path d="M784.135 313.423C784.028 313.236 783.948 313.05 783.841 312.863C781.512 308.118 780.308 302.92 778.461 298.016C776.052 291.698 769.896 287.033 762.134 287.38C749.339 287.94 748.108 301.721 747.974 310.437C747.707 329.15 755.442 351.728 774.58 361.404C792.245 370.334 801.132 352.101 798.348 338.533C797.358 333.788 795.35 329.257 792.807 325.045C790.345 320.94 786.41 317.661 784.135 313.423Z" fill="#9FDDF9"/>
<path d="M783.439 365.082C780.468 365.082 777.31 364.229 774.018 362.577C753.435 352.181 746.449 327.977 746.69 310.437C746.77 304.573 747.038 286.767 762.08 286.1C770.03 285.754 776.908 290.339 779.665 297.563C780.361 299.402 780.977 301.294 781.566 303.187C782.556 306.252 783.573 309.398 784.992 312.277C785.072 312.463 785.152 312.623 785.259 312.783C786.41 314.942 788.016 316.835 789.703 318.807C791.175 320.54 792.7 322.353 793.932 324.352C796.795 329.07 798.696 333.762 799.633 338.266C801.158 345.677 799.285 354.153 794.975 359.405C791.951 363.11 787.963 365.082 783.439 365.082ZM762.937 288.659C762.696 288.659 762.455 288.659 762.214 288.686C751.026 289.166 749.42 300.601 749.286 310.491C749.045 327.284 755.656 350.422 775.195 360.311C778.113 361.804 780.896 362.55 783.466 362.55C787.186 362.55 790.479 360.924 792.995 357.859C796.822 353.167 798.482 345.544 797.117 338.853C796.233 334.641 794.44 330.243 791.737 325.765C790.639 323.925 789.221 322.273 787.749 320.54C786.062 318.541 784.296 316.462 783.011 314.063C782.904 313.876 782.797 313.663 782.69 313.45C781.191 310.411 780.147 307.159 779.13 304.013C778.541 302.174 777.952 300.308 777.256 298.522C775.008 292.498 769.36 288.659 762.937 288.659Z" fill="#11BAED"/>
<path d="M760.179 304.067C760.179 304.04 760.179 303.987 760.179 303.96C760.179 302.947 760.447 301.961 760.527 300.948C760.661 299.668 759.992 298.389 758.573 297.882C756.272 297.056 754.826 299.375 754.05 300.921C752.337 304.2 751.721 308.758 754.264 311.877C756.593 314.756 759.778 312.17 760.474 309.585C760.715 308.678 760.768 307.719 760.688 306.786C760.608 305.853 760.206 305 760.179 304.067Z" fill="white"/>
<path d="M758.413 319.9C758.413 319.874 758.386 319.874 758.386 319.847C758.092 319.341 757.904 318.781 757.637 318.248C757.315 317.581 756.593 317.102 755.736 317.208C754.318 317.368 754.318 318.914 754.398 319.874C754.559 321.926 755.629 324.352 757.851 325.285C759.885 326.111 760.688 324.032 760.26 322.566C760.099 322.06 759.832 321.553 759.51 321.127C759.189 320.674 758.707 320.354 758.413 319.9Z" fill="white"/>
<path d="M797.519 217.727C796.877 219.86 794.468 221.113 792.139 220.526C789.811 219.94 788.419 217.754 789.061 215.621L792.808 203.146C793.451 201.014 795.86 199.761 798.188 200.348C800.517 200.934 801.909 203.12 801.266 205.252L797.519 217.727Z" fill="#9DBF45"/>
<path d="M793.29 221.966C792.808 221.966 792.299 221.912 791.818 221.779C790.319 221.406 789.007 220.446 788.285 219.167C787.589 217.967 787.428 216.581 787.83 215.275L791.577 202.8C792.38 200.081 795.565 198.402 798.509 199.121C800.035 199.495 801.32 200.454 802.042 201.734C802.738 202.933 802.899 204.319 802.497 205.626L798.75 218.101C798.054 220.366 795.806 221.966 793.29 221.966ZM797.037 201.52C795.618 201.52 794.387 202.347 794.039 203.546L790.292 216.021C790.105 216.661 790.185 217.328 790.506 217.914C790.908 218.58 791.604 219.114 792.433 219.3C794.066 219.7 795.833 218.82 796.261 217.381L800.008 204.906C800.196 204.266 800.115 203.6 799.794 203.013C799.392 202.32 798.697 201.814 797.867 201.6C797.599 201.547 797.305 201.52 797.037 201.52Z" fill="#2CA851"/>
<path d="M769.093 191.071C767.139 191.445 765.131 190.032 764.65 187.926C764.141 185.82 765.319 183.821 767.273 183.448L778.755 181.262C780.709 180.889 782.717 182.302 783.225 184.407C783.734 186.513 782.556 188.512 780.602 188.886L769.093 191.071Z" fill="#9DBF45"/>
<path d="M768.45 192.404C766.095 192.404 763.954 190.645 763.392 188.219C763.044 186.807 763.285 185.34 764.034 184.194C764.73 183.128 765.801 182.408 767.032 182.168L778.514 179.983C781.164 179.476 783.814 181.369 784.483 184.088C784.831 185.5 784.59 186.966 783.841 188.113C783.145 189.179 782.074 189.899 780.843 190.139L769.361 192.324C769.039 192.378 768.745 192.404 768.45 192.404ZM779.371 182.488C779.237 182.488 779.103 182.488 778.969 182.515L767.487 184.701C766.791 184.834 766.389 185.26 766.175 185.58C765.801 186.14 765.694 186.886 765.881 187.606C766.229 189.019 767.54 190.032 768.852 189.792L780.335 187.606C781.031 187.473 781.432 187.046 781.646 186.7C782.021 186.14 782.128 185.394 781.941 184.674C781.646 183.448 780.549 182.488 779.371 182.488Z" fill="#2CA851"/>
<path d="M751.588 227.564C750.223 229.323 747.546 229.616 745.565 228.257C743.585 226.871 743.103 224.338 744.441 222.579L752.391 212.263C753.756 210.504 756.433 210.21 758.413 211.57C760.394 212.956 760.876 215.488 759.537 217.248L751.588 227.564Z" fill="#9DBF45"/>
<path d="M748.296 230.389C747.065 230.389 745.86 230.016 744.843 229.296C743.559 228.39 742.702 227.057 742.461 225.591C742.247 224.232 742.595 222.872 743.425 221.806L751.374 211.49C753.087 209.251 756.701 208.824 759.163 210.53C760.448 211.437 761.304 212.77 761.545 214.236C761.759 215.595 761.411 216.955 760.582 218.021L752.632 228.337C751.615 229.643 750.036 230.389 748.296 230.389ZM755.683 211.996C754.747 211.996 753.917 212.37 753.408 213.036L745.459 223.352C745.057 223.858 744.897 224.525 745.004 225.191C745.138 225.964 745.593 226.684 746.315 227.19C747.68 228.15 749.688 227.937 750.571 226.791L758.521 216.475C758.922 215.968 759.083 215.302 758.976 214.635C758.869 213.862 758.387 213.143 757.664 212.636C757.102 212.236 756.406 211.996 755.683 211.996Z" fill="#2CA851"/>
<path d="M803.434 317.261C804.291 319.314 803.167 321.633 800.892 322.406C798.643 323.179 796.1 322.14 795.244 320.087L790.185 308.012C789.329 305.959 790.453 303.64 792.728 302.867C794.976 302.094 797.519 303.107 798.376 305.186L803.434 317.261Z" fill="#9DBF45"/>
<path d="M799.339 323.952C796.984 323.952 794.923 322.646 794.066 320.593L789.007 308.518C788.472 307.239 788.499 305.853 789.061 304.573C789.65 303.24 790.854 302.174 792.3 301.668C795.164 300.681 798.456 302.067 799.553 304.706L804.612 316.782C805.147 318.061 805.121 319.447 804.558 320.727C803.97 322.059 802.765 323.126 801.32 323.632C800.677 323.845 800.008 323.952 799.339 323.952ZM794.28 303.88C793.906 303.88 793.504 303.933 793.156 304.067C792.353 304.36 791.738 304.893 791.416 305.613C791.149 306.226 791.122 306.892 791.39 307.532L796.448 319.607C797.037 320.993 798.911 321.74 800.49 321.206C801.293 320.913 801.909 320.38 802.23 319.66C802.497 319.047 802.524 318.381 802.257 317.768L797.198 305.693C796.743 304.6 795.592 303.88 794.28 303.88Z" fill="#2CA851"/>
<path d="M741.096 279.943C739.597 281.675 736.84 281.942 734.94 280.556C733.039 279.169 732.745 276.664 734.244 274.958L743.13 264.855C744.629 263.149 747.386 262.856 749.286 264.242C751.187 265.628 751.481 268.134 749.955 269.84L741.096 279.943Z" fill="#9DBF45"/>
<path d="M737.67 282.742C736.385 282.742 735.181 282.342 734.191 281.622C732.959 280.742 732.21 279.463 732.049 278.023C731.889 276.611 732.344 275.251 733.281 274.158L742.167 264.056C744.067 261.923 747.681 261.523 750.063 263.229C751.294 264.109 752.043 265.388 752.204 266.828C752.365 268.241 751.91 269.627 750.973 270.72L742.087 280.822C740.962 282.022 739.383 282.742 737.67 282.742ZM746.53 264.669C745.566 264.669 744.656 265.042 744.067 265.735L735.181 275.838C734.699 276.371 734.485 277.064 734.565 277.73C734.646 278.45 735.047 279.09 735.663 279.543C736.974 280.502 739.062 280.289 740.079 279.116L748.939 269.014C749.42 268.454 749.635 267.787 749.554 267.094C749.474 266.375 749.072 265.735 748.457 265.282C747.948 264.882 747.279 264.669 746.53 264.669Z" fill="#2CA851"/>
<path d="M829.157 204.133C833.279 221.512 841.255 239.825 840.398 257.978C839.515 276.744 832.717 294.177 829.023 312.436C827.069 322.086 825.838 331.629 825.784 341.065C826.775 351.274 827.872 366.175 835.366 374.119C843.932 383.208 859.509 380.703 869.68 376.091C878.594 372.039 886.329 364.789 892.378 357.192C897.785 350.421 902.308 342.664 906.243 334.934C911.837 323.925 926.344 293.937 927.067 262.083C928.164 215.062 894.733 157.991 863.31 151.46C840.907 146.795 830.468 158.924 825.864 177.476C825.704 187.153 827.524 197.282 829.157 204.133Z" fill="#00A64D"/>
<path d="M851.613 381.502C844.44 381.502 838.498 379.237 834.483 374.972C827.015 367.055 825.677 352.874 824.687 342.531L824.553 341.172C824.58 332.322 825.65 322.859 827.818 312.17C829.103 305.799 830.789 299.455 832.422 293.324C835.446 281.889 838.605 270.027 839.167 257.898C839.756 245.21 835.928 232.282 832.208 219.78C830.709 214.715 829.156 209.464 827.952 204.426C826.319 197.602 824.446 187.366 824.66 177.45C824.66 177.37 824.687 177.263 824.687 177.183C830.174 155.059 843.262 145.969 863.631 150.207C896.232 156.978 929.529 214.502 928.405 262.11C928.057 277.49 924.122 302.68 907.447 335.494C902.816 344.584 898.239 351.941 893.448 357.965C886.302 366.948 878.272 373.612 870.269 377.238C864.247 379.956 857.475 381.502 851.613 381.502ZM827.176 177.663C826.988 187.259 828.809 197.175 830.388 203.839C831.565 208.824 833.038 213.809 834.617 219.06C838.391 231.775 842.299 244.917 841.683 258.031C841.094 270.426 837.936 282.395 834.858 293.99C833.252 300.095 831.565 306.386 830.307 312.676C828.166 323.206 827.122 332.509 827.096 341.065L827.229 342.291C828.193 352.287 829.478 365.935 836.357 373.212C839.943 376.998 845.082 378.917 851.613 378.917C857.127 378.917 863.524 377.451 869.172 374.892C876.827 371.426 884.509 365.029 891.387 356.366C896.071 350.475 900.568 343.278 905.118 334.348C921.579 301.961 925.46 277.144 925.808 262.056C926.879 216.368 894.037 159.164 863.069 152.713C844.092 148.768 832.395 156.818 827.176 177.663Z" fill="#00410D"/>
<path d="M835.821 168.92C824.285 218.367 862.533 233.881 859.348 266.188C857.555 284.394 841.04 299.828 834.804 320.167C831.458 331.069 831.806 343.331 835.687 354.02C844.6 378.544 874.043 367.268 886.89 352.767C893.341 345.49 898.507 336.347 902.762 327.631C907.741 317.448 920.615 289.752 921.258 260.297C922.221 216.821 892.511 164.069 864.621 158.044C850.301 154.952 841.147 159.724 835.821 168.92Z" fill="#C7E099"/>
<path d="M861.463 288.366C861.463 280.769 868.235 274.611 876.559 274.611C884.91 274.611 891.682 280.769 891.682 288.366C891.682 295.963 884.91 302.12 876.559 302.12C868.235 302.12 861.463 295.963 861.463 288.366Z" fill="#428B3D"/>
<path d="M873.24 289.112C873.24 286.526 875.542 284.447 878.379 284.447C881.217 284.447 883.518 286.553 883.518 289.112C883.518 291.698 881.217 293.804 878.379 293.804C875.542 293.804 873.24 291.698 873.24 289.112Z" fill="#1D693E"/>
<path d="M868.02 233.934C868.127 234.121 868.235 234.307 868.315 234.494C870.644 239.239 871.848 244.437 873.695 249.341C876.104 255.659 882.26 260.324 890.022 259.977C902.816 259.417 904.047 245.636 904.181 236.92C904.449 218.207 896.714 195.629 877.576 185.953C859.91 177.023 851.024 195.256 853.808 208.824C854.771 213.569 856.806 218.1 859.348 222.312C861.838 226.417 865.745 229.696 868.02 233.934Z" fill="#9FDDF9"/>
<path d="M889.246 261.283C881.725 261.283 875.167 256.778 872.517 249.795C871.821 247.955 871.206 246.063 870.59 244.17C869.6 241.131 868.583 237.959 867.164 235.08C867.084 234.92 867.003 234.734 866.896 234.574C865.745 232.415 864.139 230.522 862.453 228.523C860.981 226.79 859.455 224.978 858.224 222.952C855.36 218.234 853.46 213.542 852.523 209.037C850.997 201.654 852.871 193.15 857.18 187.899C862.186 181.795 869.841 180.569 878.138 184.78C898.721 195.203 905.707 219.38 905.466 236.92C905.386 242.784 905.118 260.59 890.076 261.23C889.808 261.257 889.514 261.283 889.246 261.283ZM868.716 184.86C864.996 184.86 861.677 186.486 859.161 189.552C855.333 194.217 853.674 201.867 855.039 208.558C855.896 212.769 857.716 217.167 860.419 221.646C861.516 223.485 862.935 225.138 864.407 226.87C866.093 228.87 867.86 230.949 869.145 233.348C869.252 233.534 869.359 233.721 869.466 233.934C870.965 237 872.009 240.225 873.026 243.37C873.615 245.21 874.203 247.076 874.899 248.888C877.255 255.072 883.197 259.044 889.969 258.698C901.157 258.218 902.763 246.782 902.897 236.893C903.137 220.073 896.526 196.962 876.987 187.073C874.07 185.607 871.286 184.86 868.716 184.86Z" fill="#11BAED"/>
<path d="M891.976 243.291C891.976 243.344 891.976 243.371 891.976 243.397C891.976 244.41 891.735 245.423 891.628 246.409C891.494 247.715 892.163 248.968 893.555 249.475C895.857 250.301 897.302 247.955 898.105 246.436C899.818 243.157 900.434 238.599 897.891 235.507C895.563 232.628 892.378 235.214 891.682 237.799C891.441 238.706 891.387 239.665 891.467 240.598C891.548 241.505 891.949 242.358 891.976 243.291Z" fill="white"/>
<path d="M893.743 227.457C893.743 227.483 893.77 227.51 893.77 227.51C894.064 228.017 894.251 228.576 894.519 229.109C894.84 229.776 895.563 230.256 896.419 230.149C897.838 229.989 897.811 228.443 897.758 227.483C897.597 225.431 896.526 223.005 894.305 222.072C892.271 221.246 891.468 223.325 891.896 224.791C892.056 225.298 892.324 225.804 892.645 226.231C892.993 226.684 893.448 227.004 893.743 227.457Z" fill="white"/>
<path d="M850.489 312.037C851.131 309.904 853.54 308.651 855.869 309.238C858.198 309.824 859.589 312.01 858.947 314.142L855.2 326.617C854.557 328.75 852.148 330.003 849.82 329.416C847.491 328.83 846.099 326.644 846.742 324.512L850.489 312.037Z" fill="#9DBF45"/>
<path d="M850.97 330.829C850.489 330.829 849.98 330.776 849.498 330.642C847.973 330.269 846.688 329.31 845.965 328.03C845.269 326.831 845.109 325.444 845.51 324.138L849.257 311.663C850.06 308.944 853.219 307.265 856.19 307.985C857.716 308.358 859 309.318 859.723 310.597C860.419 311.797 860.579 313.183 860.178 314.489L856.431 326.964C855.762 329.256 853.513 330.829 850.97 330.829ZM854.718 310.384C853.326 310.384 852.095 311.21 851.72 312.41L847.973 324.885C847.785 325.524 847.866 326.191 848.187 326.777C848.588 327.47 849.284 327.977 850.114 328.19C851.747 328.59 853.513 327.71 853.942 326.271L857.689 313.796C857.876 313.156 857.796 312.49 857.448 311.903C857.046 311.21 856.35 310.704 855.521 310.517C855.28 310.437 855.012 310.384 854.718 310.384Z" fill="#2CA851"/>
<path d="M896.955 295.137C897.597 293.004 900.006 291.751 902.335 292.338C904.663 292.924 906.055 295.11 905.413 297.242L901.666 309.718C901.023 311.85 898.614 313.103 896.286 312.516C893.957 311.93 892.565 309.744 893.208 307.612L896.955 295.137Z" fill="#9DBF45"/>
<path d="M897.436 313.929C896.955 313.929 896.446 313.876 895.964 313.743C894.439 313.369 893.154 312.41 892.431 311.13C891.735 309.931 891.575 308.545 891.976 307.238L895.723 294.763C896.526 292.044 899.711 290.365 902.656 291.085C904.155 291.458 905.466 292.418 906.189 293.697C906.885 294.897 907.045 296.283 906.644 297.589L902.897 310.064C902.201 312.356 899.979 313.929 897.436 313.929ZM901.157 293.484C899.765 293.484 898.534 294.31 898.159 295.51L894.412 307.985C894.224 308.625 894.305 309.291 894.653 309.877C895.027 310.544 895.75 311.077 896.58 311.263C898.213 311.663 899.979 310.784 900.407 309.344L904.155 296.869C904.342 296.229 904.262 295.563 903.94 294.977C903.539 294.31 902.843 293.777 902.013 293.59C901.746 293.511 901.451 293.484 901.157 293.484Z" fill="#2CA851"/>
<path d="M873.455 336.64C875.088 335.494 877.523 335.947 878.862 337.68C880.2 339.413 879.959 341.732 878.326 342.905L868.664 349.729C867.031 350.901 864.595 350.422 863.257 348.716C861.919 346.983 862.16 344.664 863.792 343.491L873.455 336.64Z" fill="#9DBF45"/>
<path d="M866.576 351.621C864.889 351.621 863.284 350.821 862.213 349.462C861.33 348.316 860.928 346.876 861.115 345.517C861.303 344.237 861.972 343.144 863.016 342.398L872.678 335.574C874.82 334.081 878.165 334.668 879.852 336.854C880.735 338 881.136 339.439 880.949 340.799C880.762 342.078 880.093 343.171 879.049 343.891L869.386 350.715C868.583 351.328 867.62 351.621 866.576 351.621ZM875.516 337.28C875.034 337.28 874.552 337.413 874.177 337.68L864.515 344.504C864.06 344.824 863.765 345.33 863.658 345.89C863.551 346.556 863.765 347.303 864.22 347.889C865.104 349.035 866.817 349.409 867.86 348.662L877.523 341.838C877.978 341.518 878.272 341.012 878.38 340.452C878.487 339.786 878.272 339.039 877.817 338.453C877.282 337.733 876.399 337.28 875.516 337.28Z" fill="#2CA851"/>
<path d="M843.905 172.652C844.842 170.626 847.304 169.906 849.419 171.052C851.533 172.199 852.47 174.758 851.533 176.783L846.019 188.672C845.083 190.698 842.62 191.418 840.506 190.271C838.418 189.125 837.454 186.566 838.391 184.54L843.905 172.652Z" fill="#9DBF45"/>
<path d="M842.62 192.111C841.71 192.111 840.773 191.871 839.917 191.418C837.24 189.952 836.035 186.646 837.24 184.007L842.754 172.119C843.958 169.506 847.357 168.494 850.034 169.933C852.711 171.399 853.915 174.704 852.711 177.317L847.197 189.205C846.367 190.991 844.627 192.111 842.62 192.111ZM847.331 171.799C846.34 171.799 845.484 172.332 845.082 173.185L839.595 185.074C838.926 186.486 839.649 188.326 841.148 189.152C842.566 189.925 844.253 189.445 844.868 188.139L850.382 176.25C851.051 174.838 850.329 172.998 848.83 172.172C848.321 171.932 847.813 171.799 847.331 171.799Z" fill="#2CA851"/>
<path d="M908.893 257.312C910.392 255.606 913.148 255.312 915.049 256.699C916.949 258.085 917.244 260.59 915.745 262.296L906.885 272.399C905.36 274.132 902.603 274.398 900.729 273.012C898.855 271.626 898.534 269.12 900.06 267.414L908.893 257.312Z" fill="#9DBF45"/>
<path d="M903.432 275.171C902.147 275.171 900.943 274.798 899.926 274.052C898.695 273.172 897.945 271.892 897.785 270.453C897.624 269.04 898.079 267.654 899.043 266.561L907.902 256.458C909.803 254.326 913.443 253.926 915.798 255.632C917.029 256.538 917.779 257.818 917.939 259.257C918.1 260.67 917.645 262.03 916.708 263.122L907.849 273.225C906.751 274.451 905.172 275.171 903.432 275.171ZM912.318 257.098C911.355 257.098 910.445 257.471 909.856 258.164L900.996 268.267C900.515 268.827 900.301 269.493 900.354 270.186C900.434 270.906 900.836 271.546 901.452 271.999C902.763 272.959 904.851 272.745 905.895 271.572L914.781 261.47C915.263 260.937 915.477 260.244 915.397 259.577C915.316 258.858 914.915 258.218 914.299 257.765C913.737 257.311 913.041 257.098 912.318 257.098Z" fill="#2CA851"/>
<defs>
<linearGradient id="paint0_linear_646_331" x1="314.442" y1="74.0197" x2="296.579" y2="7.26847" gradientUnits="userSpaceOnUse">
<stop stop-color="#00412A"/>
<stop offset="0.6417" stop-color="#94C93E"/>
<stop offset="1" stop-color="#D3D798"/>
</linearGradient>
<linearGradient id="paint1_linear_646_331" x1="30.2015" y1="316.414" x2="345.073" y2="316.414" gradientUnits="userSpaceOnUse">
<stop stop-color="#00412A"/>
<stop offset="0.6417" stop-color="#94C93E"/>
<stop offset="1" stop-color="#D3D798"/>
</linearGradient>
<radialGradient id="paint2_radial_646_331" cx="0" cy="0" r="1" gradientUnits="userSpaceOnUse" gradientTransform="translate(298.65 57.9016) scale(78.0134 77.6933)">
<stop offset="0.0306" stop-color="#E1E78A"/>
<stop offset="0.1607" stop-color="#DDE388"/>
<stop offset="0.2887" stop-color="#D2D782"/>
<stop offset="0.416" stop-color="#BEC378"/>
<stop offset="0.5429" stop-color="#A3A86A"/>
<stop offset="0.6696" stop-color="#808457"/>
<stop offset="0.7961" stop-color="#565841"/>
<stop offset="0.92" stop-color="#242527"/>
<stop offset="1" stop-color="#000014"/>
</radialGradient>
</defs>
</svg>
