<svg width="419" height="571" viewBox="0 0 419 571" fill="none" xmlns="http://www.w3.org/2000/svg">
<path d="M355.763 1.66553C293.479 13.5808 254.989 85.5523 254.989 85.5523C245.354 104.025 261.868 85.5523 261.868 85.5523C301.91 37.7579 337.991 19.8983 364.355 13.6874C362.749 8.86268 359.778 4.41111 355.763 1.66553Z" fill="url(#paint0_linear_646_333)" stroke="#007648" stroke-width="2" stroke-miterlimit="10" stroke-linecap="round" stroke-linejoin="round"/>
<path d="M405.147 183.967C393.798 157.098 417.218 186.1 407.743 160.803C393.771 123.484 343.317 63.6679 264.117 78.5687C264.117 78.5687 237.806 50.793 185.746 55.7244C142.733 59.8028 177.395 64.7875 173.889 69.2391C170.382 73.6906 149.987 61.3755 110.962 84.8596C71.9638 108.37 66.7711 121.085 77.5578 121.139C88.3713 121.192 119.607 122.818 98.6494 128.016C77.6917 133.24 38.2654 175.65 24.4006 194.789C10.5091 213.928 -7.93267 251.114 7.56482 245.223C23.0623 239.332 33.5278 236.72 25.1768 245.783C16.8258 254.846 1.48895 306.452 11.7938 346.889C22.0987 387.327 27.2646 340.998 30.4765 367.521C33.6884 394.017 42.7888 446.69 59.464 472.946C65.4596 482.382 70.0098 490.059 73.8641 497.23C76.1125 500.509 77.9326 504 79.7526 507.572C83.9281 515.889 87.4345 524.499 91.3691 532.922C97.6055 546.224 105.314 561.178 118.108 569.388C125.71 567.522 133.017 565.683 139.708 560.805C144.045 557.633 148.086 554.061 152.048 550.462C155.447 547.05 159.435 543.132 164.601 538.307C175.655 528.018 171.239 533.909 173.273 537.187C178.011 537.081 183.096 535.295 187.512 534.069C192.999 532.549 198.379 530.657 203.599 528.391C213.047 524.259 222.228 519.461 231.248 514.503C238.1 510.744 244.925 506.719 251.43 502.241C259.459 495.097 266.767 486.461 273.11 475.505C293.211 440.825 313.634 408.785 309.753 421.366C305.872 433.922 309.03 437.6 344.575 407.772C380.094 377.97 390.077 337.773 393.209 307.811C396.341 277.85 393.851 313.089 408.706 301.92C423.481 290.672 416.495 210.836 405.147 183.967Z" fill="#9FCC3C" stroke="#007648" stroke-width="2" stroke-miterlimit="10" stroke-linecap="round" stroke-linejoin="round"/>
<path d="M405.147 183.967C393.798 157.098 417.218 186.099 407.743 160.803C393.825 123.618 343.692 64.0944 264.973 78.4354C241.285 113.302 215.67 147.102 196.881 184.953C175.548 227.87 157.24 275.531 146.346 322.126C135.024 370.586 125.522 417.021 123.435 466.735C122.07 498.989 120.972 536.094 120.276 568.828C127.102 567.122 133.686 565.203 139.735 560.778C145.597 556.486 150.897 551.502 156.25 546.597C158.846 543.878 161.603 541.079 164.628 538.253C175.682 527.964 171.266 533.855 173.3 537.134C178.037 537.027 183.123 535.241 187.539 534.015C193.026 532.496 198.406 530.603 203.626 528.337C213.074 524.206 222.255 519.408 231.275 514.45C238.127 510.691 244.952 506.666 251.456 502.188C259.486 495.044 266.793 486.407 273.137 475.452C293.238 440.772 313.661 408.731 309.779 421.313C305.898 433.868 309.057 437.547 344.602 407.718C380.12 377.917 390.104 337.719 393.236 307.758C396.367 277.797 393.878 313.036 408.733 301.867C423.481 290.671 416.495 210.836 405.147 183.967Z" fill="#9CCB3D"/>
<path d="M343.96 238.079C343.933 236.906 343.799 235.626 343.612 234.24C343.451 232.828 343.211 231.335 342.863 229.735C342.247 226.537 341.176 222.965 339.517 219.286C337.911 215.554 335.77 211.716 333.254 207.851C331.996 205.932 330.711 203.959 329.373 201.986C328.703 201 328.115 200.041 327.499 199.054C326.937 197.988 326.348 196.868 325.786 195.776C323.43 191.244 320.459 186.899 316.953 182.714C313.42 178.529 309.592 174.397 305.096 170.639C302.874 168.746 300.278 166.907 297.815 165.388C295.38 163.868 293.105 162.162 290.722 160.483C286.012 157.044 281.033 153.792 276.055 150.993C271.076 148.194 266.258 145.662 262.297 142.73C258.229 139.824 255.07 136.412 252.474 133.08C247.335 126.283 245.301 119.326 244.658 114.528C244.471 113.355 244.391 112.315 244.31 111.409C244.337 111.356 244.391 111.302 244.417 111.249C252.367 100.48 266.713 77.9822 266.713 77.9822C264.197 73.9305 260.611 75.0234 260.611 75.0234L243.936 100.08C241.687 103.279 239.171 106.877 236.388 111.036C233.176 112.822 229.134 114.608 224.396 116.474C223.834 116.367 223.219 116.26 222.523 116.127C219.177 115.354 215.028 112.955 210.451 109.916C205.848 106.904 200.949 103.012 195.355 99.9202C192.545 98.3741 189.627 96.9347 186.496 95.9218C183.337 94.9088 180.072 94.1891 176.539 93.8959C172.845 93.6826 169.606 93.7626 165.699 94.4557C163.825 94.7489 162.032 95.3087 160.158 95.9751C159.061 96.3216 158.525 96.5082 157.401 96.8281C156.491 97.1746 155.581 97.5211 154.671 97.8677C151.058 99.1472 147.525 100.853 144.286 102.479C141.047 104.212 138.076 106.024 135.453 107.89C130.153 111.622 126.299 115.514 123.703 118.34C121.133 121.218 119.929 123.084 119.929 123.084C119.929 123.084 121.374 121.378 124.131 118.766C125.496 117.46 127.182 115.914 129.217 114.314C131.224 112.662 133.579 111.036 136.176 109.303C138.772 107.597 141.663 105.944 144.741 104.398C147.819 102.932 151.111 101.493 154.457 100.32C155.287 100.027 156.143 99.7336 156.973 99.4137C157.99 99.1205 158.499 98.9872 159.489 98.6673C161.202 98.1076 162.861 97.761 164.548 97.3612C167.84 96.8814 171.614 96.908 174.719 97.2546C177.984 97.5744 181.169 98.3208 184.221 99.3337C187.245 100.4 190.216 101.679 193.027 103.119C198.648 106.051 204.027 109.383 208.952 112.102C213.877 114.874 218.668 116.527 222.255 116.953C222.496 116.98 222.737 116.98 222.978 117.007C220.676 117.886 218.213 118.793 215.617 119.726C205.419 123.404 193.16 126.976 180.233 131.481C167.278 135.959 153.681 141.397 141.556 147.661C135.48 150.913 129.618 154.059 123.997 157.364C118.43 160.536 113.184 164.588 108.312 167.787C103.521 171.465 99.1049 174.904 95.197 178.422C91.2892 181.941 87.7561 185.06 84.7315 188.152C81.6535 191.137 79.0304 193.963 76.8088 196.495C74.5605 198.921 72.7136 201.187 71.2147 202.946C68.2169 206.571 66.6913 208.704 66.6913 208.704C66.6913 208.704 68.4043 206.838 71.5627 203.612C74.7211 200.387 79.3248 195.776 85.5078 190.258C88.5591 187.379 92.0922 184.527 96 181.301C99.8811 178.076 104.244 175.09 108.928 171.492C113.692 168.453 118.698 164.641 124.185 161.629C129.591 158.564 135.4 155.552 141.368 152.486C153.413 146.275 167.171 140.358 180.233 135.693C193.321 130.948 205.767 126.363 216.099 122.178C223.754 119.086 230.205 115.967 235.022 113.062C234.675 113.568 234.327 114.101 233.979 114.634C230.954 119.166 227.582 124.204 223.915 129.828C220.382 135.506 216.527 141.717 212.459 148.434C211.388 150.14 210.344 151.9 209.3 153.686C207.882 154.858 206.222 156.218 204.295 157.817C200.923 160.536 196.854 163.868 192.063 167.467C189.654 169.226 187.111 171.145 184.462 173.118C181.758 174.984 178.921 176.956 176.03 179.009C173.14 181.115 170.008 182.847 166.93 184.847C163.879 186.926 160.613 188.525 157.374 190.204C155.768 191.031 154.162 191.884 152.557 192.737C150.897 193.643 149.264 194.549 147.632 195.429C144.446 197.135 141.502 198.814 138.692 201.08C132.83 205.132 127.852 209.45 123.382 213.822C121.214 216.114 119.099 218.38 117.038 220.672C115.031 223.045 113.077 225.391 111.176 227.736C107.429 232.481 103.95 237.279 100.47 241.757C97.0439 246.396 93.5643 250.234 90.1918 254.446C88.5323 256.392 86.8996 258.711 85.5345 261.19C85.2936 261.67 85.0795 262.123 84.8386 262.576C84.8118 262.576 84.8118 262.576 84.7851 262.602C83.7947 263.002 82.7241 263.589 81.4393 263.882C80.1546 264.202 78.8163 264.788 77.2906 265.028C75.7649 265.321 74.1858 265.721 72.4995 265.988C69.1002 266.548 65.3798 267.134 61.4452 267.64C59.4912 267.934 57.4838 268.2 55.4763 268.52C53.4421 268.84 51.4347 269.107 49.3469 269.693C47.286 270.173 45.225 270.679 43.3781 271.612C42.4413 272.039 41.5045 272.385 40.6212 272.865C39.7647 273.398 38.935 273.905 38.1588 274.411C36.4993 275.291 35.268 276.65 34.0368 277.61C32.9394 278.783 31.9223 279.742 31.2531 280.702C30.5305 281.582 30.0219 282.381 29.7275 282.914C29.4063 283.448 29.2725 283.741 29.2725 283.741C29.2725 283.741 29.4598 283.474 29.8881 283.048C30.2896 282.568 30.932 281.981 31.7885 281.235C32.5647 280.435 33.7156 279.716 34.9201 278.809C36.2584 278.116 37.5967 277.103 39.2294 276.437C40.0324 276.09 40.8354 275.691 41.6919 275.291C42.5751 275.024 43.4584 274.731 44.3685 274.438C46.1618 273.745 48.1425 273.531 50.0964 273.158C51.9968 272.732 54.1648 272.678 56.1723 272.385C58.2065 272.119 60.2407 271.879 62.2214 271.666C64.2021 271.399 66.1292 270.999 68.0028 270.733C69.8764 270.466 71.643 269.906 73.356 269.56C75.069 269.187 76.6482 268.52 78.1471 268.04C79.646 267.614 80.9843 266.761 82.2155 266.201C82.7241 265.988 83.1791 265.721 83.6074 265.401C83.1256 266.654 82.617 267.854 82.2423 269.133C80.4758 274.731 79.8066 280.702 79.3784 286.087C78.9233 291.471 78.7092 296.402 78.1739 300.614C77.6386 304.826 76.9427 308.398 76.1932 311.17C75.7917 312.556 75.4438 313.809 75.1226 314.902C74.7478 315.941 74.4267 316.821 74.159 317.541C73.6237 318.954 73.3292 319.727 73.3292 319.727C73.3292 319.727 73.6772 319.007 74.2928 317.647C74.5872 316.981 74.9887 316.128 75.4438 315.142C75.8185 314.102 76.2467 312.903 76.7285 311.543C77.6386 308.824 78.5218 305.332 79.2445 301.147C79.994 296.989 80.449 292.057 81.0111 286.78C81.5732 281.528 82.3494 275.904 84.1427 270.786C84.571 269.506 85.1598 268.334 85.6684 267.054C86.2304 265.855 86.8996 264.762 87.4884 263.589C88.8535 261.456 90.2721 259.324 92.0119 257.351C95.2773 253.379 99.0513 249.408 102.477 244.823C106.064 240.371 109.651 235.626 113.478 230.908C115.379 228.509 117.333 226.11 119.313 223.711C121.347 221.392 123.435 219.073 125.603 216.754C130.02 212.302 134.784 208.037 140.217 204.279C142.787 202.146 145.812 200.547 148.943 198.708C150.469 197.801 152.021 196.895 153.574 195.989C155.18 195.056 156.839 194.15 158.472 193.243C161.737 191.431 165.029 189.645 168.108 187.459C171.212 185.326 174.371 183.46 177.235 181.248C180.125 179.062 182.936 176.956 185.639 174.957C188.236 172.798 190.725 170.745 193.08 168.853C197.764 164.961 201.726 161.389 204.964 158.484C206.329 157.257 207.534 156.138 208.604 155.125C205.848 159.87 203.117 164.854 200.361 169.972C196.158 177.489 192.25 185.433 188.637 193.19C181.357 208.677 176.566 222.165 171.293 237.306C167.733 247.408 164.253 257.911 160.827 268.52C160.747 268.627 160.667 268.733 160.56 268.84C159.516 269.666 158.445 270.866 156.946 271.826C155.367 272.678 153.788 273.851 151.807 274.544C150.843 274.944 149.853 275.344 148.863 275.771C147.819 276.064 146.748 276.384 145.651 276.704C143.536 277.423 141.181 277.717 138.906 278.17C136.631 278.703 134.249 278.676 131.973 279.023C129.698 279.343 127.316 279.263 125.068 279.369C122.846 279.502 120.571 279.556 118.376 279.902C116.208 280.249 114.174 280.969 112.354 281.848C108.687 283.714 105.877 286.7 103.976 289.792C102.986 291.284 102.29 292.911 101.701 294.35C101.112 295.789 100.711 297.149 100.416 298.268C99.8276 300.534 99.6937 301.947 99.6937 301.947C99.6937 301.947 100.042 300.667 100.898 298.722C101.326 297.735 101.862 296.589 102.584 295.39C103.307 294.19 104.164 292.884 105.208 291.658C106.225 290.405 107.456 289.232 108.821 288.139C110.186 287.046 111.792 286.193 113.478 285.447C115.218 284.727 117.092 284.301 119.126 283.981C121.107 283.741 123.275 283.714 125.576 283.661C127.852 283.528 130.153 283.554 132.509 283.154C134.891 282.808 137.3 282.568 139.655 281.902C142.011 281.315 144.339 280.755 146.561 279.769C147.685 279.343 148.756 278.916 149.826 278.463C150.843 277.876 151.834 277.317 152.824 276.784C154.832 275.851 156.384 274.251 157.883 273.105C158.793 272.305 159.489 271.426 160.131 270.626C158.659 275.211 157.214 279.796 155.795 284.381C154.671 288.032 153.574 291.658 152.503 295.283C152.155 295.789 151.78 296.322 151.379 296.909C149.773 299.441 147.444 302.08 145.035 305.146C142.519 308.104 139.762 311.33 136.791 314.635C130.93 321.326 124.211 328.23 117.814 335.08C111.39 341.931 104.913 348.835 98.1681 356.512C94.8491 360.43 91.4766 364.562 88.1041 368.934C84.7583 373.465 81.3858 377.97 78.7895 383.621C76.3806 389.272 75.0155 395.403 74.2393 401.321C73.6504 407.265 73.4095 412.996 73.704 418.274C73.8646 423.552 74.4534 428.43 75.0958 432.695C75.7382 437.013 76.5144 440.852 77.2906 443.997C78.843 450.342 80.1278 453.887 80.1278 453.887C80.1278 453.887 79.1642 450.262 77.9865 443.864C76.8356 437.467 75.7917 428.643 75.7382 418.248C75.6311 413.076 76.0594 407.532 76.8088 401.881C77.7189 396.256 79.2445 390.579 81.4393 385.354C83.768 380.343 87.2208 375.704 90.4595 371.493C93.7784 367.254 97.151 363.256 100.497 359.444C107.081 351.714 113.425 344.703 119.768 337.773C122.953 334.307 126.031 330.842 129.163 327.217C132.295 323.592 135.346 319.966 138.21 316.448C141.101 312.956 143.724 309.464 146.106 306.265C148.274 303.093 150.362 300.348 151.861 297.762C148.515 309.117 145.41 320.233 142.546 330.869C134.57 360.404 132.723 380.689 129.645 404.6C128.119 416.542 125.764 428.697 124.158 442.665C123.783 445.49 123.515 448.316 123.248 451.141C123.087 451.568 122.712 452.474 122.257 453.807C121.588 455.726 120.625 458.472 119.393 461.617C118.831 463.243 118.028 464.816 117.279 466.548C116.476 468.228 115.512 469.907 114.522 471.64C113.398 473.212 112.381 475.025 111.069 476.518C109.811 478.064 108.634 479.69 107.081 481.129C105.663 482.649 104.217 484.142 102.799 485.608C101.326 487.127 99.8543 488.566 98.516 490.112C95.8394 493.178 93.4573 496.323 91.6372 499.202C89.7903 502.054 88.5056 504.667 87.7026 506.533C86.8728 508.399 86.6319 509.571 86.6319 509.571C86.6319 509.571 87.194 508.585 88.345 507.039C88.8803 506.239 89.603 505.333 90.4327 504.294C91.2089 503.227 92.2796 502.188 93.2699 500.935C94.287 499.682 95.5718 498.536 96.7227 497.15C97.9272 495.817 99.3458 494.591 100.657 493.151C101.996 491.738 103.548 490.512 104.94 489.073C106.412 487.633 107.884 486.141 109.356 484.675C110.802 483.262 112.113 481.369 113.451 479.69C114.843 478.037 115.78 475.931 116.877 474.172C117.841 472.253 118.724 470.307 119.42 468.388C120.089 466.442 120.732 464.603 121.106 462.817C122.043 459.325 122.418 456.259 122.846 454.207C122.953 453.514 123.06 452.927 123.141 452.447C122.82 456.099 122.525 459.724 122.257 463.296C121.722 470.014 121.321 476.545 121.08 482.862C120.384 495.47 120.143 507.146 119.822 517.488C119.822 517.488 120.464 590.02 121.374 536.148C121.535 525.912 122.043 514.876 122.712 503.707C123.034 504.96 123.328 506.213 123.703 507.492C124.292 509.145 124.854 510.824 125.496 512.477C126.272 514.05 126.915 515.702 127.771 517.168C128.574 518.688 129.431 520.074 130.341 521.38C132.107 523.992 134.008 526.098 135.747 527.644C139.2 530.816 141.877 531.643 141.877 531.669C141.877 531.669 139.682 529.51 136.925 525.805C135.56 523.912 134.034 521.673 132.589 519.088C131.813 517.835 131.144 516.449 130.421 515.063C129.672 513.703 129.136 512.157 128.44 510.718C127.825 509.225 127.263 507.706 126.701 506.213C126.246 504.64 125.683 503.174 125.228 501.681C124.854 500.162 124.452 498.722 124.051 497.336C123.783 496.297 123.569 495.284 123.355 494.297C126.46 449.728 132.081 406.066 132.081 406.066C132.241 404.92 132.402 403.8 132.536 402.654C132.991 402.68 133.419 402.6 133.446 402.334C133.553 400.841 133.713 399.348 133.847 397.856C134.061 398.362 134.329 398.949 134.623 399.615C135.881 402.281 137.648 406.146 140.03 410.757C141.288 413.05 142.546 415.555 143.991 418.248C145.49 420.887 146.909 423.819 148.649 426.751C150.442 429.656 151.914 432.882 153.975 436.081C154.965 437.733 155.956 439.359 157 441.039C157.589 441.972 157.883 442.451 158.472 443.411C159.087 444.424 159.382 444.904 159.997 445.917C161.095 447.569 161.684 449.195 162.594 450.848C163.316 452.581 164.066 454.34 164.682 456.126C165.832 459.751 166.903 463.376 167.438 467.028C168.108 470.654 168.456 474.225 168.696 477.637C168.911 481.049 168.937 484.275 168.857 487.26C168.643 493.231 168.268 498.216 167.867 501.708C167.465 505.2 167.251 507.199 167.251 507.199C167.251 507.199 167.786 505.306 168.536 501.921C169.232 498.536 170.329 493.684 170.864 487.633C171.132 484.621 171.319 481.316 171.319 477.824C171.293 474.305 171.186 470.574 170.57 466.708C170.088 462.843 169.151 458.872 167.893 454.953C167.224 453.007 166.448 451.088 165.672 449.142C164.708 447.329 163.852 445.224 162.808 443.624C161.55 441.625 160.908 440.639 159.676 438.666C158.659 437.067 157.642 435.441 156.678 433.921C154.671 430.963 152.985 427.87 151.138 425.098C147.605 419.447 144.286 414.329 141.582 409.958C138.906 405.559 136.604 401.987 135.105 399.402C134.597 398.549 134.168 397.829 133.82 397.243C135.855 377.97 140.833 359.178 145.223 340.305C145.276 340.438 145.33 340.545 145.383 340.652C146.213 342.411 147.498 344.383 148.89 346.649C150.308 348.915 151.968 351.394 153.895 353.953C155.768 356.565 158.124 359.151 160.506 361.817C163.022 364.429 165.137 367.228 167.037 370.187C168.83 373.199 170.222 376.397 171.507 379.65C172.792 382.928 173.943 386.287 174.96 389.699C176.03 393.084 177.315 396.656 178.386 400.121C179.51 403.613 180.581 407.132 181.517 410.731C182.534 414.302 183.712 417.901 184.595 421.446C185.532 424.992 186.255 428.564 186.951 431.922C188.476 438.613 190.243 444.211 191.394 448.156C192.679 452.074 193.508 454.34 193.508 454.34C193.508 454.34 192.973 452.048 192.17 448.022C191.34 444.024 190.377 438.293 189.199 431.549C188.236 424.805 186.924 417.501 185.024 410.357C184.194 406.785 183.257 403.214 182.24 399.695C181.196 396.15 180.045 392.791 178.975 389.299C177.904 385.86 176.699 382.448 175.334 379.09C173.996 375.704 172.31 372.399 170.249 369.174C168.081 366.002 165.377 363.016 162.674 360.484C159.997 357.871 157.535 355.446 155.528 352.94C153.467 350.461 151.593 348.142 149.987 346.009C148.408 343.877 146.962 342.011 145.945 340.332C145.758 340.012 145.571 339.745 145.41 339.452C147.043 332.388 148.595 325.298 149.853 318.154C149.853 318.074 149.853 318.021 149.8 317.967C152.797 307.705 156.009 297.122 159.462 286.406C164.628 270.466 170.088 254.392 175.629 239.225C181.116 224.058 186.094 210.596 193.375 195.349C194.338 193.323 195.489 191.191 196.72 189.005C196.453 190.418 196.239 191.937 196.105 193.563C195.302 202.12 195.837 214.621 198.166 229.735C200.441 244.876 203.947 262.709 208.364 280.942C210.478 290.085 213.048 299.281 215.028 308.398C216.072 312.956 217.25 317.194 218.535 321.353C219.846 325.511 221.265 329.536 222.255 333.508C223.433 337.48 224.691 341.345 225.949 345.13C226.538 347.022 227.287 348.888 227.796 350.781C228.251 352.674 228.706 354.539 229.134 356.405C230.901 363.896 232.962 371.173 233.577 378.717C234.273 386.207 235.692 393.831 235.022 401.268C234.166 408.758 231.57 416.302 228.706 422.886C225.869 429.443 222.55 435.201 219.364 440.079C216.206 444.984 213.155 449.009 210.505 452.207C205.312 458.632 201.94 461.75 201.94 461.75C201.94 461.75 202.85 461.031 204.456 459.565C206.062 458.045 208.417 455.833 211.174 452.741C214.011 449.675 217.303 445.783 220.783 440.959C224.289 436.187 228.01 430.509 231.115 423.819C234.273 417.155 237.217 409.424 238.422 401.587C239.412 393.644 238.368 386.074 237.753 378.53C237.298 370.986 235.37 363.469 233.711 355.792C233.309 353.873 232.881 351.954 232.48 350.008C231.998 348.089 231.275 346.196 230.713 344.25C229.509 340.385 228.331 336.44 227.207 332.415C226.163 328.363 224.691 324.311 223.326 320.126C221.987 315.941 220.756 311.65 219.632 307.092C217.518 297.922 214.841 288.832 212.619 279.742C208.042 261.616 203.599 244.156 200.949 229.202C198.219 214.275 196.72 202.013 197.149 193.536C197.202 191.297 197.416 189.245 197.711 187.432C200.896 181.968 204.509 176.37 207.293 171.412C211.361 163.975 215.376 156.751 219.498 150.167C223.54 143.556 227.367 137.399 230.901 131.748C232.399 129.508 233.818 127.376 235.21 125.297C235.103 126.896 234.969 128.602 234.969 130.441C235.049 132.734 235.049 135.24 235.237 137.905C235.665 143.236 236.441 149.207 237.886 155.498C240.697 168.133 245.836 182.607 252.099 195.402C255.231 201.8 258.229 208.571 260.504 215.688C263.02 222.672 262.779 230.535 265.723 238.265C271.183 253.273 281.113 266.041 289.411 277.903C293.506 283.874 297.521 289.525 300.144 295.256C300.492 296.109 300.653 296.536 301.027 297.389C301.188 297.789 301.268 298.002 301.429 298.402C301.536 298.855 301.589 299.095 301.723 299.548C302.152 301.067 302.5 302.533 302.553 303.999C302.901 306.905 302.767 309.944 302.5 312.743C301.268 324.125 298.19 333.374 295.888 339.665C293.56 345.983 291.9 349.421 291.9 349.421C291.9 349.421 293.961 346.063 296.825 339.799C299.528 333.561 303.597 324.365 305.283 312.609C306.086 306.745 306.166 300.161 303.597 293.923C301.134 287.766 297.387 281.822 293.319 275.824C285.235 263.802 275.76 251.06 270.755 236.666C267.945 229.842 267.971 221.659 265.241 214.355C262.779 207.051 259.808 200.494 256.382 193.83C249.503 180.528 243.828 166.987 240.563 154.645C238.93 148.488 237.753 142.703 236.95 137.532C236.575 134.973 236.441 132.521 236.2 130.282C236.066 128.042 236.147 125.963 236.12 124.097C236.12 124.017 236.12 123.964 236.147 123.884C237.833 121.378 239.439 118.979 240.965 116.714C242.062 115.061 243.106 113.515 244.123 112.022C244.123 112.795 244.123 113.648 244.176 114.608C244.471 119.539 245.943 126.923 250.761 134.387C253.277 138.012 256.408 141.744 260.53 144.942C264.599 148.194 269.363 150.94 274.047 153.925C278.758 156.831 283.442 160.003 287.966 163.468C290.241 165.201 292.65 166.96 295.192 168.56C297.708 170.132 299.876 171.678 301.991 173.491C306.193 177.116 310.074 181.035 313.607 185.06C317.087 189.138 320.058 193.27 322.494 197.482C323.109 198.574 323.725 199.667 324.341 200.734C325.063 201.827 325.786 202.893 326.509 203.879C327.981 205.825 329.426 207.691 330.791 209.557C333.521 213.209 335.823 216.781 337.59 220.273C339.383 223.765 340.641 227.097 341.578 230.162C342.06 231.681 342.434 233.121 342.702 234.48C343.023 235.84 343.264 237.066 343.398 238.212C343.773 240.478 343.933 242.291 344.04 243.543C344.147 244.796 344.201 245.436 344.201 245.436C344.201 245.436 344.228 244.77 344.254 243.543C344.067 242.211 344.147 240.398 343.96 238.079Z" fill="url(#paint1_linear_646_333)"/>
<path d="M405.147 183.967C393.798 157.098 417.218 186.1 407.743 160.803C393.771 123.484 343.317 63.6679 264.117 78.5687C264.117 78.5687 237.806 50.793 185.746 55.7244C142.733 59.8028 177.395 64.7875 173.889 69.2391C170.382 73.6906 149.987 61.3755 110.962 84.8596C71.9638 108.37 66.7711 121.085 77.5578 121.139C88.3713 121.192 119.607 122.818 98.6494 128.016C77.6917 133.24 38.2654 175.65 24.4006 194.789C10.5091 213.928 -7.93267 251.114 7.56482 245.223C23.0623 239.332 33.5278 236.72 25.1768 245.783C16.8258 254.846 1.48895 306.452 11.7938 346.889C22.0987 387.327 27.2646 340.998 30.4765 367.521C33.6884 394.017 42.7888 446.69 59.464 472.946C65.4596 482.382 70.0098 490.059 73.8641 497.23C76.1125 500.509 77.9326 504 79.7526 507.572C83.9281 515.889 87.4345 524.499 91.3691 532.922C97.6055 546.224 105.314 561.178 118.108 569.388C125.71 567.522 133.017 565.683 139.708 560.805C144.045 557.633 148.086 554.061 152.048 550.462C155.447 547.05 159.435 543.132 164.601 538.307C175.655 528.018 171.239 533.909 173.273 537.187C178.011 537.081 183.096 535.295 187.512 534.069C192.999 532.549 198.379 530.657 203.599 528.391C213.047 524.259 222.228 519.461 231.248 514.503C238.1 510.744 244.925 506.719 251.43 502.241C259.459 495.097 266.767 486.461 273.11 475.505C293.211 440.825 313.634 408.785 309.753 421.366C305.872 433.922 309.03 437.6 344.575 407.772C380.094 377.97 390.077 337.773 393.209 307.811C396.341 277.85 393.851 313.089 408.706 301.92C423.481 290.672 416.495 210.836 405.147 183.967ZM400.489 257.325C399.981 262.523 399.258 268.12 396.341 272.599C396.046 273.052 395.243 273.158 394.975 272.599C389.221 259.99 383.306 247.302 376.239 235.36C383.386 263.482 384.483 293.151 375.222 320.953C368.959 339.799 358.306 356.246 345.94 371.653C340.078 378.957 333.976 386.02 327.873 393.111C323.617 398.042 318.559 404.413 311.814 405.879C311.198 406.013 310.716 405.506 310.85 404.92C313.098 393.991 311.68 383.035 310.556 372.079C293.051 401.641 279.32 433.495 258.683 461.164C248.994 474.146 237.752 485.794 225.119 495.977C213.716 505.173 201.003 514.05 186.576 517.728C186.121 517.835 185.532 517.488 185.585 516.982C186.629 504.827 189.386 492.938 191.956 481.023C187.084 489.633 181.49 497.87 175.147 505.493C168.321 513.677 160.666 520.847 152.636 527.858C145.65 533.962 138.317 540.12 129.564 543.505C129.189 543.638 128.681 543.345 128.601 542.945C120.838 505.866 122.311 467.748 126.941 430.19C123.381 443.731 119.902 457.272 117.653 471.08C113.264 498.163 113.612 526.711 117.225 553.847C117.332 554.594 116.342 554.78 115.887 554.407C114.013 552.808 112.193 551.075 110.614 549.183C104.11 541.452 99.8807 532.363 95.1698 523.513C89.4955 512.797 83.3125 502.348 77.6649 491.605C67.6277 472.493 58.9823 452.821 52.1569 432.349C40.5673 397.616 30.9315 355.526 47.4461 320.793C37.5427 327.777 29.8073 337.186 23.6779 347.582C23.3835 348.062 22.6073 348.115 22.3129 347.582C16.237 336.227 16.7456 322.312 18.3783 309.917C20.0378 297.122 22.6341 284.274 27.211 272.145C33.7687 254.739 43.9398 239.678 56.1451 226.19C43.9665 228.083 31.8416 232.614 19.4757 233.787C18.9404 233.841 18.6459 233.254 18.7262 232.801C21.4296 217.98 29.1114 204.359 38.1048 192.417C47.6067 179.782 58.7146 168.293 70.7325 158.031C83.2858 147.315 96.9364 137.745 111.363 129.669C117.6 126.177 124.157 122.925 130.902 120.392C121.24 114.608 110.801 109.596 99.4256 110.289C98.6762 110.343 98.4888 109.437 98.8636 108.957C110.828 93.896 132.107 86.2457 150.254 82.034C167.732 77.9823 188.342 75.5033 205.526 82.3272C202.528 76.1697 196.452 72.0913 190.724 68.626C190.162 68.2795 190.216 67.3465 190.912 67.2132C202.796 64.6542 216.768 67.613 228.143 71.0517C234.353 72.9176 242.811 75.6365 248.753 80.328C249.101 80.0081 249.69 79.9282 249.984 80.4613C250.332 81.101 250.707 81.7408 251.055 82.3805C253.036 84.4064 254.561 86.7255 255.364 89.4178C255.391 89.4977 255.391 89.5777 255.391 89.6577C255.552 89.9242 255.712 90.1641 255.873 90.4307C259.834 89.6843 263.795 88.3782 267.569 87.7118C274.475 86.5389 281.515 87.3119 288.393 88.4581C303.275 90.9638 318.559 95.442 332.102 102.186C356.861 114.475 377.203 134.973 388.739 160.083C388.953 160.536 388.712 161.336 388.07 161.256C383.118 160.616 378.327 159.39 373.563 158.031C379.853 165.494 384.938 173.891 388.123 183.301C393.985 200.494 399.767 218.727 400.703 237.013C400.971 243.703 401.158 250.554 400.489 257.325Z" fill="#8DC640"/>
<path opacity="0.8" fill-rule="evenodd" clip-rule="evenodd" d="M357.423 1.3457C357.423 1.3457 304.132 4.94428 242.276 103.012C242.276 103.012 231.087 122.738 244.39 105.171C257.746 87.6049 286.466 28.2684 357.423 1.3457Z" fill="url(#paint2_radial_646_333)"/>
<defs>
<linearGradient id="paint0_linear_646_333" x1="313.442" y1="73.0197" x2="295.579" y2="6.26847" gradientUnits="userSpaceOnUse">
<stop stop-color="#00412A"/>
<stop offset="0.6417" stop-color="#94C93E"/>
<stop offset="1" stop-color="#D3D798"/>
</linearGradient>
<linearGradient id="paint1_linear_646_333" x1="29.2015" y1="315.414" x2="344.073" y2="315.414" gradientUnits="userSpaceOnUse">
<stop stop-color="#00412A"/>
<stop offset="0.6417" stop-color="#94C93E"/>
<stop offset="1" stop-color="#D3D798"/>
</linearGradient>
<radialGradient id="paint2_radial_646_333" cx="0" cy="0" r="1" gradientUnits="userSpaceOnUse" gradientTransform="translate(297.65 56.9016) scale(78.0134 77.6933)">
<stop offset="0.0306" stop-color="#E1E78A"/>
<stop offset="0.1607" stop-color="#DDE388"/>
<stop offset="0.2887" stop-color="#D2D782"/>
<stop offset="0.416" stop-color="#BEC378"/>
<stop offset="0.5429" stop-color="#A3A86A"/>
<stop offset="0.6696" stop-color="#808457"/>
<stop offset="0.7961" stop-color="#565841"/>
<stop offset="0.92" stop-color="#242527"/>
<stop offset="1" stop-color="#000014"/>
</radialGradient>
</defs>
</svg>
