<svg width="470" height="467" viewBox="0 0 470 467" fill="none" xmlns="http://www.w3.org/2000/svg">
<path d="M456.403 307.465C415.263 429.23 282.772 494.724 160.505 453.754C38.2378 412.783 -27.5262 280.835 13.6131 159.07C54.7524 37.3052 187.244 -28.1889 309.511 12.7815C431.778 53.752 497.542 185.7 456.403 307.465Z" fill="white" stroke="#466677" stroke-miterlimit="10"/>
<path d="M388.337 236.746C385.259 325.138 316.47 394.524 234.674 391.698C152.877 388.873 89.0668 314.929 92.1449 226.537C95.223 138.119 164.012 68.7595 245.808 71.5584C327.578 74.4106 391.388 148.355 388.337 236.746Z" fill="white"/>
<path d="M297.815 83.7403C298.832 80.8881 299.795 78.1958 300.946 76.0367C303.623 70.892 306.728 65.1077 304.051 58.2037C303.088 55.8047 301.455 53.4323 299.207 51.5397C296.931 49.6738 294.094 48.0211 290.989 46.555C284.833 43.3829 277.258 42.1034 270.433 41.1438C268.961 40.9572 267.516 40.744 266.07 40.5574C264.625 40.4241 263.153 40.3974 261.707 40.3441C258.817 40.2375 255.953 40.1309 253.116 40.0243C247.441 39.6244 241.847 40.1042 236.253 40.3175L227.875 40.6907C225.092 41.0105 222.281 41.3038 219.471 41.6236C216.633 41.8902 213.796 42.1568 210.932 42.4233C208.068 42.7432 205.231 43.303 202.287 43.7028C198.834 44.1826 195.595 44.7957 192.491 45.5154C189.466 46.3951 186.629 47.5146 183.925 48.6342C181.222 49.7804 178.626 51.0332 176.137 52.3661C173.701 53.7788 171.426 55.5115 169.177 57.2175C168.91 57.4307 168.615 57.6706 168.348 57.9105C164.761 61.6424 161.442 65.2676 160.8 69.7725C159.167 79.7685 165.002 86.6192 169.713 93.4964C174.611 100.8 178.893 109.73 188.181 112.929C190.778 113.995 193.32 114.448 195.81 114.421C198.326 114.448 200.681 113.675 203.25 113.302C205.766 112.769 208.256 111.916 210.691 110.903C213.154 109.997 215.697 109.33 218.052 108.424C225.948 105.572 234.62 104.452 243.025 105.252C244.256 105.278 245.46 105.518 246.692 105.812L250.332 106.585L253.972 107.278L255.792 107.571L257.559 108.051C262.269 109.357 267.087 109.73 272.039 110.077C275.974 110.103 279.346 109.064 282.076 107.864C284.86 106.505 287.215 104.399 289.223 101.84C293.211 96.7751 295.673 89.8712 297.815 83.7403Z" fill="#428B3D"/>
<path d="M195.489 115.674C192.812 115.674 190.162 115.141 187.646 114.102C179.509 111.303 175.173 104.425 170.944 97.8147C170.168 96.5886 169.392 95.3624 168.616 94.2162C168.107 93.4964 167.598 92.7501 167.063 92.0037C162.593 85.6062 157.963 78.9955 159.488 69.5592C160.157 64.8411 163.45 61.0826 167.384 57.0042L168.723 55.9113C170.864 54.2853 173.059 52.606 175.468 51.2198C178.037 49.8337 180.687 48.5809 183.39 47.4347C186.067 46.3151 188.958 45.1689 192.116 44.2626C195.328 43.5162 198.674 42.9031 202.1 42.4233C203.385 42.2634 204.642 42.0501 205.9 41.8635C207.533 41.597 209.166 41.3304 210.772 41.1705L227.715 39.4378L236.2 39.0646C237.404 39.0113 238.609 38.958 239.813 38.8781C244.31 38.6381 249.208 38.4516 253.223 38.7448L263.233 39.118C264.224 39.1446 265.241 39.1979 266.231 39.2779L270.647 39.891C277.499 40.8506 285.315 42.1568 291.632 45.4355C294.978 47.0082 297.815 48.7408 300.063 50.5534C302.365 52.4727 304.158 54.9517 305.309 57.7506C308.147 65.081 304.881 71.3452 302.285 76.3832L302.151 76.6498C301.08 78.7023 300.17 81.1813 299.1 84.1935C297.199 89.6846 294.576 97.2283 290.267 102.666C288.019 105.545 285.449 107.678 282.665 109.037C279.079 110.636 275.679 111.383 272.227 111.383C272.2 111.383 271.986 111.383 271.959 111.383C267.409 111.063 262.243 110.69 257.238 109.304L255.471 108.824L250.118 107.864L246.451 107.091C245.407 106.825 244.203 106.585 243.052 106.558C241.232 106.371 239.465 106.291 237.698 106.291C231.221 106.291 224.61 107.464 218.534 109.65C217.33 110.103 216.072 110.503 214.787 110.903C213.582 111.276 212.378 111.649 211.2 112.102C208.47 113.249 205.954 114.075 203.572 114.555C202.635 114.688 201.805 114.875 201.002 115.035C199.396 115.354 197.764 115.701 196.024 115.701H195.489V115.674ZM248.325 41.1438C245.514 41.1438 242.65 41.2771 239.893 41.437C238.689 41.4903 237.458 41.5703 236.253 41.6236L227.875 41.9968L210.986 43.7295C209.434 43.9161 207.854 44.156 206.248 44.4225C204.964 44.6358 203.679 44.8224 202.394 45.009C199.048 45.4888 195.783 46.1019 192.705 46.7949C189.761 47.6746 186.923 48.7941 184.327 49.8604C181.704 50.9799 179.108 52.2061 176.645 53.5389C174.424 54.8184 172.282 56.4444 170.195 58.0171L169.124 58.8701C165.511 62.6553 162.62 65.934 162.031 69.9324C160.666 78.3558 164.975 84.54 169.178 90.511C169.713 91.2573 170.222 92.0037 170.73 92.7767C171.533 93.9763 172.309 95.2024 173.112 96.4553C177.074 102.719 181.196 109.197 188.556 111.729C190.858 112.689 193.16 113.142 195.489 113.142H195.729C197.362 113.142 198.808 112.849 200.36 112.529C201.217 112.342 202.1 112.182 203.01 112.049C205.151 111.596 207.507 110.823 210.13 109.73C211.414 109.25 212.672 108.85 213.904 108.477C215.135 108.077 216.366 107.704 217.544 107.251C225.654 104.319 234.647 103.173 243.105 103.999C244.417 104.026 245.782 104.319 246.933 104.585L257.827 106.851C262.591 108.184 267.623 108.531 272.066 108.85C275.224 108.85 278.276 108.157 281.488 106.745C283.87 105.572 286.118 103.679 288.152 101.12C292.194 96.0288 294.737 88.725 296.584 83.3938C297.681 80.275 298.618 77.6894 299.769 75.5036L299.903 75.2637C302.526 70.199 305.256 64.9744 302.82 58.7369C302.151 57.0842 300.813 54.6585 298.35 52.5793C296.289 50.9 293.613 49.2739 290.427 47.7812C284.432 44.6624 276.857 43.4096 270.219 42.4766L265.856 41.8902C264.973 41.8102 264.009 41.7836 263.073 41.7303L253.035 41.3571C251.537 41.1705 250.011 41.1438 248.325 41.1438Z" fill="#26632A"/>
<path d="M285.851 78.7289C286.413 76.3832 287.002 74.224 287.751 72.4114C289.491 68.1464 291.499 63.3483 288.876 58.1237C285.262 50.5001 272.174 47.1414 261.36 46.395C256.703 46.2351 252.153 46.0752 247.656 45.9419C243.159 46.0485 238.743 46.4217 234.326 46.5816C232.105 46.7416 229.91 46.6883 227.715 46.9282C225.521 47.1681 223.299 47.4346 221.077 47.6745C218.856 47.8878 216.607 48.0744 214.332 48.2876C213.208 48.3676 212.057 48.4742 210.906 48.5542C209.782 48.7141 208.631 48.9007 207.48 49.0607C202.047 49.8603 197.175 50.7933 192.812 52.3927C188.503 54.1786 184.595 56.2578 180.821 58.6302C180.58 58.7901 180.34 58.9501 180.125 59.11C177.021 61.749 174.478 64.9744 173.568 68.2797C171.587 76.01 175.763 81.7944 179.082 87.5521C182.534 93.6297 185.264 100.987 192.866 103.999C196.908 105.465 201.351 105.598 205.714 104.559C206.811 104.292 207.882 103.972 208.979 103.599C210.077 103.253 211.228 103.066 212.325 102.746C214.546 102.133 216.741 101.387 218.829 100.667C225.868 98.6944 233.39 97.2816 240.804 98.0813C245.113 98.1079 249.396 99.494 253.651 99.9739C254.722 100.107 255.793 100.214 256.863 100.294C257.907 100.48 258.951 100.694 260.022 100.827C262.136 101.093 264.278 101.173 266.472 101.013C267.329 100.96 268.159 100.827 268.935 100.694C269.711 100.587 270.434 100.507 271.13 100.347C272.521 100.027 273.753 99.5474 274.904 98.9076C277.152 97.6548 278.972 95.8155 280.391 93.683C283.255 89.3647 284.646 83.7136 285.851 78.7289Z" fill="#C7E099"/>
<path d="M389.381 233.494C392.486 233.201 395.403 232.934 397.946 233.174C403.915 233.707 410.687 234.347 416.013 227.55C417.887 225.151 419.305 221.979 420.322 218.274C421.072 214.595 421.366 210.383 421.366 205.932C421.366 203.693 421.286 201.4 421.152 199.108C420.831 196.815 420.43 194.496 420.001 192.177C419.064 187.566 418.208 182.901 416.789 178.636C415.531 174.984 414.273 171.385 413.015 167.814C412.373 166.028 411.757 164.268 411.115 162.509L408.813 157.364C407.287 153.952 405.762 150.594 404.263 147.208C402.71 143.876 400.783 140.704 399.07 137.426C392.272 124.337 383.814 112.236 374.767 99.4672C368.905 92.3501 363.498 85.9793 357.101 81.2611C353.97 78.8354 350.972 76.463 347.706 74.4905C344.387 72.5979 341.015 70.8386 337.616 69.2126C337.187 69.026 336.732 68.8127 336.304 68.6261C333.146 67.3999 329.827 66.6269 326.722 66.2537C323.644 65.8272 320.753 65.8006 318.264 66.387C315.4 67.0534 313.125 68.1463 311.278 69.5324C309.377 70.9985 307.905 72.6778 306.701 74.5171C304.292 78.1957 302.873 82.3807 301.294 86.3524C299.635 90.5374 297.226 94.7225 295.941 99.2007C294.629 103.652 294.228 108.69 296.102 114.181C297.092 117.22 298.832 119.699 300.652 122.525C301.589 123.858 302.659 125.137 303.81 126.363C304.934 127.589 306.273 128.656 307.424 130.015C309.779 132.654 312.643 134.867 315.32 137.346C317.862 139.958 320.646 142.357 323.189 144.783C331.326 153.153 338.285 163.335 342.621 174.451C347.466 187.646 348.938 201.667 353.515 214.862C354.371 217.474 355.415 219.766 356.593 221.712C357.663 223.685 358.68 225.391 359.938 226.83C362.428 229.709 365.399 231.548 368.664 232.695C375.222 234.907 382.743 234.187 389.381 233.494Z" fill="#428B3D"/>
<path d="M379.263 235.467C374.981 235.467 371.394 234.934 368.289 233.841C364.596 232.561 361.491 230.456 359.028 227.603C357.61 225.977 356.486 224.085 355.522 222.272C354.291 220.193 353.22 217.821 352.364 215.208C350.169 208.838 348.643 202.2 347.198 195.749C345.619 188.819 343.986 181.622 341.497 174.851C337.455 164.455 330.817 154.352 322.332 145.636C321.449 144.783 320.512 143.93 319.548 143.05C317.862 141.504 316.122 139.905 314.463 138.199C313.633 137.426 312.723 136.653 311.84 135.853C310.047 134.28 308.173 132.628 306.54 130.842C305.898 130.069 305.202 129.429 304.533 128.789C303.971 128.256 303.435 127.75 302.927 127.19C301.722 125.937 300.625 124.604 299.661 123.245L299.046 122.285C297.413 119.779 295.887 117.434 294.951 114.555C293.211 109.437 293.157 104.292 294.763 98.8011C295.593 95.9222 296.878 93.1766 298.109 90.511C298.832 88.9383 299.554 87.3922 300.17 85.8462L300.919 83.9003C302.231 80.4883 303.596 76.943 305.71 73.771C307.129 71.6118 308.708 69.8792 310.582 68.4664C312.723 66.867 315.159 65.7741 318.05 65.1077C320.512 64.5213 323.403 64.4946 326.963 64.9478C330.335 65.3743 333.761 66.2273 336.839 67.4002L338.231 68.0132C341.737 69.6926 345.163 71.4785 348.429 73.3445C351.614 75.2904 354.451 77.5028 357.476 79.8486L357.984 80.2484C364.301 84.9132 369.601 91.0708 375.864 98.6411C384.456 110.77 393.262 123.245 400.301 136.813C400.917 137.986 401.559 139.158 402.229 140.331C403.353 142.357 404.504 144.463 405.521 146.622L412.373 161.923L418.074 178.156C419.332 181.995 420.189 186.153 420.991 190.178L421.339 191.858C421.794 194.203 422.169 196.549 422.49 198.868C422.651 201.374 422.731 203.693 422.731 205.879C422.731 210.677 422.383 214.915 421.661 218.487C420.563 222.539 419.038 225.817 417.11 228.296C412.614 234.001 407.287 234.721 403.165 234.721C401.426 234.721 399.713 234.561 398.053 234.427C397.25 234.347 396.554 234.321 395.831 234.321C393.931 234.321 391.87 234.507 389.568 234.721C386.544 235.094 382.877 235.467 379.263 235.467ZM322.519 67.1869C321.074 67.1869 319.763 67.3202 318.638 67.5867C316.096 68.1732 313.981 69.1328 312.134 70.4923C310.528 71.7184 309.11 73.2645 307.852 75.1571C305.898 78.1159 304.586 81.5279 303.328 84.8066L302.579 86.7525C301.936 88.3519 301.214 89.9512 300.464 91.5506C299.287 94.1096 298.029 96.7752 297.252 99.4675C295.78 104.425 295.834 109.064 297.413 113.675C298.243 116.234 299.635 118.367 301.214 120.819L301.803 121.725C302.659 122.925 303.676 124.178 304.827 125.377C305.309 125.91 305.818 126.39 306.326 126.87C307.049 127.563 307.798 128.256 308.494 129.082C309.993 130.735 311.706 132.254 313.553 133.854C314.463 134.654 315.373 135.453 316.283 136.28C317.943 137.959 319.655 139.558 321.315 141.078C322.279 141.957 323.242 142.837 324.152 143.743C332.905 152.726 339.73 163.122 343.905 173.865C346.475 180.849 348.135 188.099 349.714 195.11C351.159 201.48 352.658 208.064 354.826 214.302C355.629 216.754 356.619 218.967 357.797 220.939C358.734 222.672 359.724 224.431 361.009 225.844C363.177 228.35 365.934 230.189 369.199 231.335C372.037 232.348 375.329 232.828 379.317 232.828C382.77 232.828 386.383 232.455 389.301 232.162C392.62 231.842 395.51 231.602 398.133 231.842C399.873 232.002 401.506 232.135 403.165 232.135C406.939 232.135 411.329 231.495 415.103 226.697C416.816 224.511 418.181 221.526 419.171 217.874C419.841 214.542 420.188 210.49 420.188 205.852C420.188 203.72 420.108 201.454 419.974 199.108C419.68 196.922 419.278 194.63 418.85 192.337L418.502 190.658C417.699 186.713 416.896 182.635 415.665 178.956L410.017 162.856L403.219 147.662C402.255 145.609 401.104 143.53 400.007 141.557C399.338 140.358 398.695 139.158 398.053 137.959C391.094 124.551 382.315 112.129 373.857 100.161C367.781 92.8034 362.588 86.7525 356.485 82.2476L355.95 81.8478C352.979 79.5553 350.195 77.3695 347.198 75.5303C344.013 73.7177 340.64 71.9584 337.214 70.3057L335.929 69.7192C333.119 68.653 329.907 67.8533 326.722 67.4535C325.089 67.2935 323.751 67.1869 322.519 67.1869Z" fill="#26632A"/>
<path d="M389.274 222.165C391.576 221.739 393.744 221.392 395.617 221.472C397.812 221.579 400.167 221.632 402.469 220.966C404.798 220.273 406.993 218.86 408.679 215.848C409.883 213.742 410.686 211.023 411.168 207.878C411.57 204.759 411.998 201.16 411.489 197.482C410.713 190.072 409.214 181.861 406.511 174.798C398.08 150.274 386.169 129.829 371.1 108.61C369.012 105.358 366.549 102.666 364.167 100.08C361.785 97.4948 359.43 95.0691 357.074 92.8033C351.962 88.645 346.93 84.9398 341.496 81.821C341.148 81.6611 340.747 81.4478 340.399 81.2879C335.099 79.1821 329.96 77.3961 325.919 77.716C316.39 78.9955 314.275 85.6062 311.519 91.3106C310.073 94.3494 308.012 97.2549 306.915 100.56C305.737 103.919 305.71 107.358 307.37 112.236C311.385 122.098 323.188 131.455 332.209 141.317C334.029 143.397 335.849 145.476 337.669 147.582C339.328 149.794 340.854 152.167 342.433 154.459L344.708 157.924C345.458 159.097 346.02 160.403 346.662 161.656C347.893 164.162 349.098 166.694 350.249 169.226C354.853 181.462 357.449 194.363 361.705 206.598C367.7 225.951 379.263 224.138 389.274 222.165Z" fill="#C7E099"/>
<path d="M331.621 357.232C333.789 359.338 335.796 361.337 337.295 363.31C340.828 367.895 344.789 373.172 352.07 373.679C357.102 373.945 363.097 371.653 368.076 367.228C370.645 365.096 373.161 362.617 375.517 360.004C377.926 357.419 379.773 354.406 381.673 351.661C394.307 332.442 402.336 313.516 411.41 292.778C413.792 286.567 415.612 280.809 416.576 275.238C417.272 269.613 417.379 264.202 417.084 258.791C417.058 258.444 417.031 258.098 417.004 257.751C415.773 252.873 414.06 248.235 410.955 245.276C403.728 238.506 394.735 239.412 386.357 239.439C377.524 239.439 367.728 237.866 359.618 243.997C357.369 245.65 355.871 247.675 354.452 249.861C352.98 252.047 351.909 254.499 351.133 257.085C350.732 258.391 350.437 259.724 350.169 261.083C349.795 262.416 349.393 263.749 349.099 265.108C348.456 267.801 347.975 270.573 347.52 273.212C346.369 277.45 345.137 281.769 343.612 286.007C341.658 290.005 339.864 294.164 337.295 297.762C334.083 301.841 331.085 306.079 327.606 309.864C325.919 311.81 324.554 313.969 323.056 315.995C321.503 317.994 320.138 320.127 319.014 322.472C318.157 324.365 317.542 326.151 317.033 327.724C316.578 329.35 316.391 330.976 316.418 332.575C316.471 335.747 317.381 338.813 318.853 341.745C321.771 347.583 326.963 352.701 331.621 357.232Z" fill="#428B3D"/>
<path d="M352.872 374.959C352.578 374.959 352.284 374.959 351.989 374.932C344.227 374.399 339.891 368.774 336.411 364.243C334.859 362.19 332.905 360.271 330.71 358.112C326.267 353.82 320.753 348.462 317.675 342.278C316.016 338.999 315.159 335.721 315.106 332.575C315.079 330.816 315.293 329.057 315.775 327.377C316.337 325.671 316.953 323.859 317.809 321.94C318.933 319.567 320.298 317.381 322.011 315.196C322.466 314.582 322.948 313.889 323.43 313.223C324.42 311.81 325.437 310.371 326.615 309.011C329.131 306.292 331.433 303.28 333.655 300.375C334.538 299.229 335.394 298.109 336.278 296.963C338.312 294.137 339.891 290.832 341.417 287.606L342.461 285.421C343.933 281.236 345.164 276.891 346.261 272.839C346.636 270.493 347.145 267.641 347.814 264.789C348.055 263.696 348.376 262.603 348.67 261.51L348.884 260.71C349.152 259.324 349.473 257.965 349.848 256.685C350.704 253.78 351.855 251.301 353.328 249.115C354.934 246.636 356.459 244.61 358.815 242.904C364.623 238.506 371.287 237.919 377.042 237.919C378.648 237.919 380.281 237.973 381.887 238.026C384.242 238.106 386.544 238.133 388.873 238.106C389.89 238.079 390.88 238.079 391.897 238.079C398.294 238.079 405.628 238.559 411.784 244.317C415.398 247.756 417.111 253.14 418.208 257.432L418.342 258.658C418.663 264.416 418.503 269.88 417.834 275.371C416.897 280.676 415.237 286.327 412.587 293.231L411.035 296.803C402.63 315.995 394.708 334.121 382.717 352.354C382.288 352.967 381.887 353.58 381.459 354.193C379.933 356.459 378.381 358.778 376.427 360.857C373.83 363.683 371.287 366.162 368.852 368.188C364.087 372.48 358.226 374.959 352.872 374.959ZM377.096 240.505C371.502 240.505 365.613 241.038 360.394 244.983C358.36 246.476 356.995 248.262 355.522 250.528C354.184 252.527 353.14 254.766 352.364 257.432C352.016 258.631 351.695 259.884 351.427 261.297L351.186 262.203C350.892 263.243 350.597 264.309 350.356 265.375C349.687 268.147 349.206 270.973 348.804 273.399C347.653 277.61 346.422 282.035 344.843 286.407L343.745 288.699C342.166 292.005 340.533 295.417 338.339 298.482C337.429 299.655 336.572 300.775 335.689 301.894C333.44 304.853 331.085 307.918 328.542 310.691C327.472 311.917 326.481 313.33 325.544 314.662C325.063 315.355 324.581 316.022 324.072 316.688C322.466 318.741 321.208 320.793 320.164 322.952C319.361 324.738 318.773 326.471 318.264 328.044C317.863 329.457 317.675 330.949 317.702 332.469C317.756 335.241 318.532 338.146 320.004 341.079C322.895 346.89 328.248 352.061 332.53 356.219C334.805 358.432 336.813 360.458 338.339 362.457C341.979 367.175 345.592 371.866 352.177 372.32C352.391 372.32 352.658 372.346 352.899 372.346C357.557 372.346 362.91 370.054 367.246 366.189C369.628 364.216 372.09 361.817 374.606 359.072C376.427 357.126 377.925 354.887 379.398 352.701C379.826 352.088 380.227 351.448 380.656 350.835C392.513 332.815 400.382 314.769 408.733 295.683L410.259 292.165C412.828 285.501 414.461 279.983 415.344 274.918C415.987 269.64 416.147 264.336 415.853 258.765L415.773 257.778C414.809 254.02 413.23 249.088 410.098 246.103C403.755 240.185 396.126 240.505 388.98 240.612C386.598 240.638 384.269 240.612 381.86 240.532C380.254 240.558 378.675 240.505 377.096 240.505Z" fill="#26632A"/>
<path d="M341.337 348.649C343.183 350.168 344.923 351.634 346.235 353.074C349.34 356.486 352.846 360.351 358.574 360.271C362.616 360.191 366.898 357.765 370.94 354.327C374.741 350.675 378.14 345.877 381.031 341.452C383.413 337.587 385.34 333.588 387.454 329.776C388.472 327.83 389.569 325.964 390.506 324.019L393.156 318.128C394.869 314.183 396.983 310.424 398.616 306.426C400.275 302.427 402.069 298.429 404.049 294.35C406.324 289.526 407.449 284.887 408.439 280.516C408.867 278.303 409.295 276.171 409.456 274.012C409.536 271.826 409.51 269.667 409.429 267.481C409.402 267.214 409.376 266.921 409.376 266.628C408.626 262.683 407.663 258.951 405.388 256.419C399.874 250.661 392.647 250.874 386.089 250.528C382.61 250.341 378.943 249.728 375.329 249.835C371.743 249.941 368.236 250.741 364.703 253.14C360.822 255.752 358.868 259.697 357.343 264.122C356.459 266.308 355.79 268.627 355.255 270.973C354.666 273.319 354.398 275.744 353.649 277.904C352.552 281.555 351.561 285.314 350.196 288.939C348.563 292.458 346.824 295.896 344.87 299.202C342.3 302.88 339.356 306.346 336.92 310.077C334.03 313.489 331.674 317.195 329.854 321.326C326.669 327.511 327.606 332.762 330.229 337.24C332.825 341.692 337.322 345.37 341.337 348.649Z" fill="#C7E099"/>
<path d="M159.007 367.255C157.508 370.001 156.089 372.56 154.483 374.532C150.736 379.144 146.373 384.342 149.076 392.845C150.094 395.804 152.181 398.549 154.911 401.402C156.277 402.814 157.829 404.2 159.515 405.56C160.345 406.253 161.228 406.919 162.138 407.612C163.102 408.199 164.065 408.785 165.056 409.372C169.071 411.664 173.487 413.823 177.984 415.796C182.614 417.449 187.379 418.781 191.902 419.981C195.756 421.154 199.718 421.687 203.599 422.327C207.507 422.94 211.334 423.579 215.188 424.059C219.043 424.272 222.897 424.512 226.725 424.726L232.452 425.046C234.353 425.179 236.253 424.965 238.18 424.965C241.981 424.859 245.782 424.726 249.609 424.619L252.473 424.539L255.337 424.219L261.065 423.579C264.893 423.1 268.801 422.913 272.655 422.22C276.509 421.527 280.417 420.807 284.352 420.114C302.874 416.276 316.685 409.212 328.114 399.296C328.462 398.976 328.837 398.656 329.185 398.336C331.487 395.804 333.762 393.405 335.448 390.819C337.054 388.153 338.258 385.568 338.74 383.035C340.855 371.493 333.548 365.576 327.686 359.285C324.554 355.979 321.797 352.088 318.211 348.969C314.651 345.85 310.315 343.478 304.533 342.998C301.455 342.865 298.083 342.811 294.924 343.558C293.318 343.904 291.766 344.384 290.187 344.97C288.581 345.477 286.894 345.903 285.288 346.517C282.023 347.689 278.865 349.369 275.492 350.462C272.173 351.688 268.988 353.42 265.723 354.22C255.15 358.219 243.293 359.418 232.051 357.872C230.418 357.579 228.785 357.312 227.153 357.019L224.69 356.619C223.887 356.433 223.084 356.139 222.308 355.9C219.15 354.86 215.911 354.194 212.779 353.207C209.701 352.034 206.57 351.075 203.385 350.328C200.306 349.182 197.175 348.276 193.856 347.689C188.77 346.463 184.595 346.063 180.794 346.836C177.074 347.45 174.049 348.702 171.319 350.782C165.832 354.727 162.165 361.337 159.007 367.255Z" fill="#428B3D"/>
<path d="M233.817 426.351C233.335 426.351 232.854 426.351 232.372 426.298L215.134 425.312C212.244 424.965 209.46 424.512 206.623 424.059L201.885 423.313C198.486 422.78 194.953 422.22 191.527 421.18C187.298 420.061 182.373 418.701 177.528 416.968C172.577 414.809 168.187 412.65 164.386 410.464L161.442 408.705C160.425 407.959 159.515 407.266 158.658 406.546C156.918 405.107 155.312 403.667 153.947 402.281C150.655 398.869 148.782 396.07 147.818 393.245C144.927 384.181 149.531 378.504 153.252 373.919L153.412 373.706C154.911 371.893 156.249 369.521 157.829 366.642C160.692 361.311 164.6 354.007 170.489 349.662C173.38 347.476 176.565 346.143 180.526 345.477C184.193 344.73 188.368 344.944 194.096 346.356C197.174 346.89 200.36 347.769 203.786 349.049C206.703 349.688 209.835 350.648 213.207 351.928C214.626 352.381 216.125 352.781 217.624 353.18C219.31 353.634 220.996 354.06 222.682 354.62C222.95 354.7 223.271 354.806 223.593 354.886C224.048 355.02 224.503 355.18 224.958 355.286L232.238 356.539C243.212 358.058 255.15 356.779 265.24 352.967C267.382 352.434 269.362 351.581 271.45 350.675C272.628 350.168 273.832 349.662 275.037 349.182C276.91 348.569 278.73 347.796 280.497 347.023C281.942 346.383 283.388 345.77 284.86 345.237C285.877 344.837 286.948 344.517 288.018 344.224C288.607 344.037 289.223 343.877 289.811 343.691C291.391 343.078 293.05 342.598 294.683 342.251C296.61 341.798 298.778 341.585 301.455 341.585C302.525 341.585 303.596 341.612 304.613 341.665C310.073 342.118 314.784 344.171 319.093 347.956C321.395 349.955 323.349 352.274 325.25 354.513C326.374 355.819 327.471 357.126 328.622 358.352C329.265 359.045 329.907 359.711 330.549 360.378C335.902 365.949 342.005 372.266 339.998 383.195C339.543 385.674 338.392 388.366 336.545 391.405C334.859 393.964 332.744 396.283 330.496 398.736L330.148 399.136L328.97 400.202C316.658 410.918 302.552 417.608 284.592 421.34L272.842 423.446C270.379 423.899 267.917 424.139 265.508 424.352C264.063 424.486 262.617 424.619 261.199 424.805L252.58 425.765L238.18 426.218C237.484 426.218 236.842 426.245 236.172 426.271C235.423 426.298 234.62 426.351 233.817 426.351ZM184.889 347.636C183.497 347.636 182.239 347.743 181.008 348.009C177.448 348.596 174.611 349.795 172.041 351.714C166.608 355.713 162.861 362.723 160.104 367.841C158.444 370.88 157.052 373.332 155.42 375.332L155.259 375.545C151.592 380.076 147.791 384.741 150.254 392.445C151.084 394.897 152.796 397.376 155.794 400.495C157.079 401.828 158.605 403.187 160.264 404.547C161.094 405.213 161.95 405.88 162.834 406.546L165.564 408.172C169.365 410.358 173.674 412.49 178.438 414.569C183.096 416.222 187.994 417.582 192.196 418.701C195.488 419.714 198.941 420.247 202.233 420.78L206.971 421.527C209.755 421.98 212.538 422.406 215.295 422.753L232.452 423.739C233.683 423.819 234.834 423.766 236.012 423.713C236.708 423.686 237.404 423.659 238.073 423.632L252.339 423.206L260.824 422.246C262.269 422.06 263.715 421.927 265.187 421.767C267.542 421.553 269.978 421.313 272.307 420.887L284.03 418.781C301.508 415.183 315.239 408.652 327.177 398.256L328.515 397.003C330.683 394.631 332.744 392.392 334.297 390.046C335.956 387.3 336.973 384.901 337.401 382.715C339.168 373.066 334.056 367.761 328.622 362.137C327.953 361.47 327.311 360.777 326.668 360.084C325.49 358.831 324.34 357.499 323.189 356.139C321.342 353.98 319.441 351.741 317.3 349.848C313.446 346.463 309.217 344.597 304.372 344.197C303.435 344.171 302.418 344.117 301.374 344.117C298.885 344.117 296.931 344.304 295.165 344.73C293.639 345.05 292.113 345.503 290.588 346.09C289.919 346.303 289.303 346.49 288.687 346.676C287.697 346.97 286.68 347.263 285.716 347.636C284.271 348.142 282.879 348.755 281.487 349.369C279.667 350.142 277.794 350.968 275.84 351.608C274.715 352.034 273.565 352.514 272.414 353.02C270.326 353.927 268.158 354.86 265.963 355.393C255.685 359.311 243.346 360.644 231.81 359.071L224.422 357.792C223.807 357.659 223.298 357.472 222.763 357.312C222.468 357.205 222.174 357.125 221.879 357.046C220.22 356.512 218.56 356.059 216.928 355.633C215.375 355.233 213.85 354.806 212.324 354.327C209.005 353.074 205.981 352.141 203.036 351.474C199.61 350.222 196.559 349.369 193.561 348.835C190.108 348.009 187.351 347.636 184.889 347.636Z" fill="#26632A"/>
<path d="M168.562 373.412C167.652 375.545 166.795 377.544 165.698 379.064C163.128 382.662 160.184 386.74 163.343 393.138C165.484 397.829 171.051 401.854 177.85 405.533C181.195 407.532 185.077 408.812 188.958 410.091C192.865 411.264 196.747 412.677 200.601 413.29C213.77 415.769 226.484 416.915 239.171 416.622C245.514 416.355 251.858 416.489 258.228 415.529C261.413 415.209 264.652 414.863 267.89 414.516C271.129 414.143 274.341 413.37 277.633 412.863C281.488 412.09 285.235 411.611 288.607 410.411C292.007 409.292 295.219 408.092 298.297 406.839C299.849 406.199 301.348 405.586 302.82 404.92C304.239 404.12 305.63 403.321 307.022 402.521C309.779 400.895 312.429 399.189 315.025 397.403C315.347 397.19 315.694 396.923 316.016 396.71C320.245 392.925 323.831 388.74 325.223 384.955C326.802 380.583 326.187 377.171 324.715 374.212C323.269 371.28 321.021 368.881 318.96 366.455C316.792 363.896 314.999 360.804 312.456 358.432C309.886 356.006 306.514 354.14 301.508 353.82C298.752 353.554 296.048 354.22 293.05 354.7C290.053 355.233 287.028 356.139 284.004 357.365C277.74 359.231 271.316 362.164 265.053 363.736C259.968 365.629 254.561 366.109 249.208 367.068C246.504 367.468 243.774 367.282 241.044 367.361C238.341 367.335 235.611 367.548 232.934 366.962C229.829 366.482 226.724 366.002 223.593 365.496C220.515 364.722 217.49 363.843 214.412 363.176C211.307 362.67 208.39 361.444 205.365 360.724C202.341 359.951 199.236 359.445 196.265 358.538C186.602 356.539 180.928 357.312 176.752 360.564C172.63 363.683 170.462 368.828 168.562 373.412Z" fill="#C7E099"/>
<path d="M93.055 250.821C90.0572 251.407 87.2468 251.914 84.7844 252.02C78.9761 252.313 72.3917 252.607 67.6809 258.204C64.2013 262.176 63.4251 268.147 63.8266 274.731C64.0943 278.01 64.3352 281.502 65.379 284.834C66.3158 288.166 67.44 291.498 68.5641 294.59C76.8884 315.862 87.5145 333.455 99.4254 352.994C103.066 358.698 106.652 363.656 111.042 367.495C115.298 371.413 119.473 374.958 124.532 377.517C124.853 377.677 125.174 377.837 125.495 377.997C130.367 379.783 134.997 381.329 139.307 380.369C149.237 377.97 153.332 370 157.936 363.043C160.318 359.338 163.289 355.739 165.457 351.767C167.705 347.742 168.99 343.664 168.91 338.546C168.883 335.747 168.267 333.241 167.224 330.976C166.715 329.829 166.073 328.763 165.35 327.724C164.681 326.604 164.012 325.485 163.235 324.418C161.683 322.286 159.809 320.34 157.855 318.421C156.116 316.315 154.242 314.342 152.422 312.45L150.147 310.077L148.166 307.438L144.285 302.054C142.92 300.295 142.064 298.215 141.046 296.243C140.083 294.244 139.173 292.218 138.316 290.192C135.158 280.222 133.391 270.04 128.788 260.657C124.719 253.353 119.527 250.181 113.022 249.221C106.652 248.182 99.4253 249.568 93.055 250.821Z" fill="#428B3D"/>
<path d="M136.496 381.942C132.803 381.942 128.975 380.636 125.067 379.197L123.97 378.637C118.483 375.865 113.986 371.919 110.186 368.427C105.287 364.136 101.46 358.565 98.355 353.687C86.7921 334.734 75.8984 316.848 67.3868 295.043C66.0485 291.418 65.0046 288.193 64.1481 285.154C63.1578 281.982 62.8634 278.703 62.6225 275.558L62.5689 274.838C62.0871 266.841 63.4254 261.137 66.7444 257.378C71.7496 251.407 78.8694 251.061 84.5973 250.767C87.1133 250.661 89.8167 250.154 92.8412 249.568C97.445 248.662 103.173 247.542 108.526 247.542C110.212 247.542 111.845 247.649 113.317 247.862C120.705 248.928 126.031 252.767 130.019 259.937C133.231 266.441 135.105 273.372 136.898 280.062C137.754 283.235 138.638 286.513 139.655 289.739C140.404 291.551 141.314 293.577 142.305 295.63C142.546 296.083 142.787 296.563 143.027 297.069C143.75 298.588 144.446 300.001 145.41 301.227L151.271 309.278L153.439 311.543C155.233 313.409 157.133 315.435 158.926 317.594C160.746 319.38 162.7 321.406 164.333 323.645C165.163 324.765 165.859 325.938 166.528 327.031C167.251 328.07 167.92 329.216 168.455 330.389C169.606 332.922 170.222 335.64 170.248 338.466C170.302 343.451 169.205 347.716 166.635 352.327C165.243 354.86 163.53 357.259 161.897 359.578C160.934 360.937 159.97 362.297 159.06 363.683C158.552 364.429 158.07 365.202 157.588 365.948C153.386 372.506 149.023 379.303 139.655 381.542C138.638 381.809 137.594 381.942 136.496 381.942ZM108.473 250.101C103.36 250.101 98.007 251.141 93.2962 252.074C90.1646 252.687 87.3809 253.193 84.8382 253.3C78.9229 253.593 72.9809 253.886 68.6716 259.004C65.8344 262.256 64.6834 267.347 65.1117 274.625L65.1652 275.318C65.4061 278.33 65.6738 281.475 66.6106 284.407C67.4671 287.42 68.4842 290.592 69.769 294.11C78.2002 315.675 89.0404 333.455 100.523 352.301C103.521 357.019 107.215 362.403 111.899 366.482C116.476 370.693 120.437 373.945 125.121 376.318L126.085 376.798C130.635 378.477 135.292 379.916 139.039 379.063C147.39 377.064 151.459 370.693 155.393 364.562C155.875 363.789 156.384 363.016 156.892 362.27C157.802 360.884 158.766 359.498 159.783 358.085C161.389 355.819 163.048 353.473 164.387 351.074C166.742 346.863 167.759 342.998 167.679 338.493C167.652 336.014 167.117 333.641 166.1 331.429C165.618 330.389 165.029 329.376 164.333 328.39C163.664 327.244 162.995 326.151 162.219 325.138C160.693 323.032 158.793 321.086 156.972 319.3C155.152 317.114 153.279 315.115 151.512 313.303L149.237 310.93L147.149 308.158L143.268 302.747C142.171 301.334 141.395 299.735 140.645 298.162C140.404 297.682 140.19 297.202 139.949 296.749C138.932 294.617 137.995 292.564 137.192 290.592C136.122 287.233 135.239 283.928 134.355 280.729C132.508 273.852 130.742 267.374 127.69 261.137C124.104 254.686 119.527 251.38 112.889 250.421C111.551 250.208 110.052 250.101 108.473 250.101Z" fill="#26632A"/>
<path d="M94.608 263.642C92.2793 264.282 90.0845 264.868 88.1573 265.082C83.5804 265.641 78.3878 266.281 75.0688 270.999C73.8911 272.652 73.1684 274.705 72.7669 276.997C72.5796 278.143 72.4457 279.343 72.4189 280.596C72.4725 281.822 72.6063 283.101 72.7937 284.381C73.6234 289.525 75.1758 295.176 77.3171 299.975C79.2443 304.053 81.1179 308.051 82.9915 311.997C84.8116 315.942 87.2205 319.594 89.2012 323.379L92.2525 329.056C93.3767 330.896 94.5009 332.762 95.6518 334.601C97.9537 338.306 99.9611 342.278 102.343 346.143C105.207 350.675 108.125 354.54 111.149 357.925C114.388 361.15 117.894 363.789 121.535 366.268C121.775 366.428 122.016 366.562 122.257 366.722C125.817 368.561 129.725 369.68 133.178 369.174C141.127 367.948 144.874 361.897 148.916 356.646C153.199 351.128 159.007 345.796 158.766 337.666C158.739 336.547 158.579 335.534 158.338 334.468C158.15 333.375 157.829 332.308 157.454 331.296C156.678 329.243 155.527 327.324 154.135 325.511C152.717 323.725 151.245 321.859 149.746 320.02C148.22 318.207 146.587 316.448 145.008 314.795C142.573 311.917 140.405 308.744 138.156 305.599C136.978 304.053 136.175 302.294 135.319 300.588C134.489 298.855 133.686 297.096 132.964 295.336L131.706 292.218L130.769 288.966C130.153 286.806 129.484 284.647 128.735 282.541C127.878 280.462 127.316 278.303 126.54 276.224C125.737 274.145 124.8 272.119 123.569 270.173C122.552 268.654 121.642 267.347 120.732 266.228C119.768 265.108 118.724 264.229 117.627 263.509C115.405 262.07 112.943 261.377 110.346 261.163C105.181 260.683 99.5597 262.256 94.608 263.642Z" fill="#C7E099"/>
<path d="M167.196 91.6575C165.269 89.2051 163.449 86.886 162.298 84.6202C159.541 79.3423 156.49 73.2914 147.577 72.4384C144.418 72.1185 141.099 72.9715 137.433 74.3043C135.612 74.9974 133.739 75.8237 131.812 76.81C129.885 77.7696 127.931 78.8625 126.137 80.2486C122.47 82.9143 118.777 86.033 115.217 89.2584C111.791 92.6171 108.766 96.3756 105.822 99.8675C104.591 101.387 103.306 102.853 102.182 104.426C101.084 105.998 100.014 107.598 98.9163 109.171C96.775 112.316 94.6605 115.461 92.546 118.553C90.6189 121.779 88.8523 125.031 87.0055 128.256C85.2389 131.508 83.2314 134.6 81.7861 137.986C78.7348 144.676 75.2284 151.127 72.6857 158.111C71.2671 161.55 69.8485 164.988 68.4031 168.48C67.1719 172.026 65.9406 175.624 64.6826 179.249C63.157 183.514 61.7919 187.619 61.1227 191.698C60.3198 195.75 59.7042 199.641 59.2224 203.453C58.5265 211.077 59.0083 218.407 59.6506 225.631C59.7309 226.084 59.838 226.564 59.9183 227.017C61.8187 233.441 63.9332 239.439 67.4663 242.984C76.0314 250.981 85.1318 248.395 93.5631 247.089C98.033 246.343 102.851 246.29 107.401 245.063C111.925 243.891 116.1 241.598 120.061 236.933C127.797 226.804 128.439 210.304 131.276 196.096L132.16 191.698C132.32 190.978 132.427 190.205 132.615 189.485L133.311 187.353L136.175 178.77C137.245 175.944 138.717 173.332 140.056 170.613C140.752 169.28 141.394 167.921 142.143 166.641L144.713 162.963C152.769 151.5 162.994 142.171 171.238 131.428C174.557 127.27 176.538 123.512 177.394 119.726C178.358 116.154 178.358 112.822 177.555 109.49C176.002 102.853 171.372 96.8821 167.196 91.6575Z" fill="#428B3D"/>
<path d="M81.733 249.781C75.7374 249.781 70.9463 247.889 66.637 243.864C63.0771 240.292 60.9091 234.694 58.741 227.337L58.4466 225.844C57.831 219.074 57.2421 211.317 57.9916 203.293C58.4734 199.375 59.1158 195.403 59.9187 191.404C60.6146 187.166 62.06 182.821 63.5322 178.769L67.2526 168.027L71.5619 157.604C73.3017 152.806 75.5501 148.168 77.7449 143.663C78.7352 141.611 79.7523 139.532 80.6891 137.452C81.733 135.053 83.0446 132.734 84.3293 130.495C84.8646 129.562 85.4267 128.603 85.9353 127.643C86.5776 126.497 87.22 125.377 87.8357 124.258C89.0134 122.125 90.2178 120.019 91.4758 117.914L101.138 103.706C101.941 102.613 102.771 101.6 103.628 100.587C104.029 100.081 104.457 99.6008 104.859 99.0943L105.903 97.8415C108.553 94.6694 111.256 91.4173 114.334 88.4052C118.215 84.8599 121.935 81.7945 125.388 79.2621C127.369 77.7161 129.564 76.5432 131.25 75.7169C133.231 74.7039 135.185 73.8243 137.005 73.1579C141.689 71.4785 144.713 70.9188 147.738 71.212C157.213 72.145 160.612 78.6224 163.342 83.847L163.476 84.0869C164.627 86.326 166.554 88.7784 168.241 90.9109C172.015 95.629 177.18 102.106 178.867 109.197C179.75 112.822 179.696 116.367 178.706 120.046C177.85 123.938 175.815 127.83 172.309 132.201C168.642 136.973 164.52 141.557 160.532 145.982C155.5 151.554 150.281 157.338 145.837 163.682L143.268 167.361C142.786 168.187 142.304 169.147 141.823 170.08L141.261 171.199C140.886 171.945 140.511 172.718 140.11 173.492C139.173 175.357 138.209 177.277 137.46 179.223L133.927 189.885C133.846 190.258 133.739 190.711 133.659 191.191L132.615 196.362C131.946 199.748 131.384 203.346 130.822 206.812C129.055 218.087 127.235 229.763 121.159 237.733C117.332 242.238 113.103 244.957 107.803 246.343C104.859 247.116 101.834 247.436 98.9168 247.755C97.2037 247.942 95.5175 248.129 93.858 248.395C93.0015 248.529 92.145 248.662 91.2884 248.822C88.1568 249.248 84.9717 249.781 81.733 249.781ZM146.212 73.6643C143.964 73.6643 141.448 74.2241 137.834 75.5303C136.121 76.17 134.275 76.9964 132.374 77.9826C130.795 78.7823 128.761 79.8752 126.914 81.3147C123.488 83.8203 119.874 86.8058 116.074 90.2711C113.129 93.15 110.453 96.3754 107.857 99.4941L106.813 100.747C106.411 101.227 106.01 101.733 105.582 102.24C104.779 103.226 103.976 104.186 103.199 105.225L93.6171 119.326C92.4126 121.352 91.2349 123.458 90.0572 125.564C89.4149 126.683 88.7992 127.83 88.1568 128.949C87.6215 129.909 87.0862 130.868 86.5241 131.828C85.2126 134.094 83.9814 136.253 82.991 138.545C82.0274 140.678 81.0103 142.757 79.9932 144.836C77.8519 149.288 75.6304 153.873 73.8906 158.591L69.608 169.013L65.9143 179.702C64.4957 183.648 63.0771 187.859 62.408 191.938C61.6318 195.909 60.9894 199.828 60.5076 203.64C59.7849 211.423 60.347 219.02 60.9359 225.551L61.2035 226.804C63.2377 233.654 65.2452 238.959 68.4035 242.104C72.1775 245.623 76.4333 247.302 81.7062 247.302C84.7308 247.302 87.8089 246.769 90.8067 246.263C91.6632 246.103 92.5465 245.97 93.403 245.836C95.0892 245.57 96.829 245.383 98.5955 245.197C101.433 244.903 104.35 244.583 107.107 243.864C111.952 242.611 115.646 240.212 119.125 236.133C124.773 228.75 126.539 217.394 128.252 206.438C128.814 202.947 129.376 199.321 130.046 195.883L131.089 190.711C131.197 190.205 131.277 189.698 131.411 189.219L134.997 178.396C135.8 176.264 136.817 174.291 137.781 172.372C138.156 171.599 138.557 170.853 138.932 170.08L139.494 168.96C140.002 167.974 140.511 166.987 141.046 166.028L143.696 162.269C148.22 155.819 153.493 149.981 158.578 144.33C162.539 139.931 166.635 135.4 170.248 130.682C173.487 126.603 175.36 123.058 176.163 119.486C177.047 116.181 177.1 113.035 176.324 109.837C174.772 103.279 169.82 97.0684 166.18 92.5369C164.038 89.818 162.325 87.5522 161.148 85.2864L161.041 85.0732C158.337 79.9285 155.527 74.5973 147.47 73.7976C147.042 73.6643 146.64 73.6643 146.212 73.6643Z" fill="#26632A"/>
<path d="M157.695 97.9214C156.089 96.2421 154.617 94.6693 153.626 93.0433C151.325 89.2582 148.755 84.9665 141.635 85.2864C131.384 85.473 117.466 98.2946 108.312 110.396C92.8409 131.508 83.0713 152.993 74.185 177.143C72.927 180.742 71.8564 184.181 70.8928 187.513C70.0363 190.871 69.6081 194.15 69.153 197.349C68.7248 200.547 68.4036 203.666 68.1895 206.732C68.1895 209.824 68.3501 212.889 68.5374 215.955C68.5642 216.328 68.6177 216.754 68.6445 217.128C69.0995 219.846 69.6348 222.512 70.304 224.858C71.0267 227.23 72.1776 229.309 73.4356 230.882C79.4044 238.106 86.1762 236.48 92.5198 235.814C99.2112 235.147 106.786 236.427 112.434 228.137C114.013 225.897 115.538 223.258 116.529 220.353C117.037 218.887 117.492 217.367 117.867 215.795C118.028 214.995 118.215 214.195 118.376 213.396C118.59 212.596 118.831 211.77 119.045 210.943C119.901 207.638 120.517 204.199 121.025 200.707C121.775 197.269 122.551 193.857 123.274 190.605C123.568 189.245 123.809 187.859 124.184 186.5L125.495 182.528L128.199 174.531C129.35 171.972 130.634 169.466 131.866 166.934L133.793 163.202C134.435 161.949 135.319 160.856 136.095 159.684C137.968 157.045 139.842 154.379 141.716 151.713C143.857 149.234 145.945 146.755 147.952 144.196L149.424 142.277L151.057 140.491C152.128 139.292 153.171 138.092 154.189 136.839C155.206 135.586 156.169 134.334 157.106 133.001C158.07 131.721 159.167 130.575 160.104 129.296C165.992 121.139 167.572 115.701 166.26 110.556C165.056 105.518 161.148 101.493 157.695 97.9214Z" fill="#C7E099"/>
<path d="M371.956 316.128C366.683 313.116 364.783 305.066 368.102 298.375C368.985 296.696 369.895 295.15 371.019 293.817C372.144 292.484 373.428 291.391 374.847 290.592C377.657 288.966 380.923 288.379 383.894 289.392C386.865 290.405 388.953 292.911 389.916 296.243C390.398 297.895 390.585 299.761 390.452 301.707C390.345 303.653 389.916 305.706 388.899 307.625C385.045 315.462 377.577 319.354 371.956 316.128Z" fill="#428B3D"/>
<path d="M377.658 306.212C375.731 305.279 375.115 302.587 376.293 300.161C377.363 297.709 379.665 296.269 381.673 297.042C383.627 297.816 384.51 300.641 383.386 303.227C382.154 305.812 379.585 307.118 377.658 306.212Z" fill="#1D693E"/>
<path d="M225.413 390.685C225.734 387.567 227.581 384.901 230.15 383.062C231.435 382.155 232.907 381.436 234.487 381.036C236.066 380.556 237.806 380.103 239.599 380.103C243.186 380.023 246.478 381.222 249.074 383.248C251.617 385.008 253.464 387.593 253.785 390.712C254.106 393.804 252.795 396.87 250.252 399.215C247.682 401.321 243.881 402.681 239.626 402.761C237.511 402.761 235.477 402.574 233.684 401.908C231.89 401.188 230.284 400.202 229.026 399.082C226.403 396.763 225.092 393.804 225.413 390.685Z" fill="#428B3D"/>
<path d="M236.414 392.098C236.468 389.966 238.636 388.206 241.232 388.153C243.828 388.1 246.023 389.779 246.13 391.912C246.237 394.044 244.096 395.803 241.312 395.857C238.555 395.937 236.361 394.231 236.414 392.098Z" fill="#1D693E"/>
<path d="M105.796 311.304C108.606 309.891 111.872 310.051 114.843 311.304C116.315 311.943 117.734 312.85 118.992 314.023C120.357 315.142 121.615 316.448 122.632 318.048C124.666 321.193 125.415 324.792 125.148 328.07C125.014 331.243 123.729 334.201 121.24 336.094C118.724 337.987 115.432 338.36 112.032 337.347C108.794 336.254 105.635 333.615 103.307 329.99C102.156 328.177 101.299 326.284 100.817 324.419C100.443 322.473 100.416 320.607 100.684 318.901C101.192 315.462 102.985 312.716 105.796 311.304Z" fill="#428B3D"/>
<path d="M110.641 321.62C112.488 320.553 115.164 321.513 116.61 323.752C118.055 326.018 117.814 328.817 116.048 330.016C114.281 331.216 111.604 330.256 110.079 327.884C108.553 325.511 108.794 322.713 110.641 321.62Z" fill="#1D693E"/>
<path d="M121.159 144.596C123.809 146.249 125.442 149.074 125.977 152.14C126.513 155.205 125.87 158.511 124.425 161.763C122.872 164.961 120.303 167.281 117.359 168.613C114.495 169.946 111.417 170.373 108.472 169.173C105.608 168 103.414 165.415 102.611 162.216C101.888 159.044 102.343 155.152 104.163 151.473C105.849 147.742 108.954 145.209 112.113 144.01C115.271 142.757 118.483 142.917 121.159 144.596Z" fill="#428B3D"/>
<path d="M115.083 153.526C116.957 154.539 117.599 157.204 116.475 159.497C115.378 161.789 112.888 162.909 110.934 162.029C108.981 161.149 108.365 158.457 109.543 156.058C110.72 153.659 113.21 152.513 115.083 153.526Z" fill="#1D693E"/>
<path d="M249.743 69.2128C249.529 72.3583 247.789 74.9706 245.246 76.8898C242.703 78.9956 239.385 80.3551 235.718 80.4084C233.871 80.4884 232.104 80.0619 230.445 79.6887C228.812 79.3155 227.286 78.7024 225.948 77.8228C223.271 76.1168 221.264 73.5045 220.809 70.4124C220.354 67.3202 221.585 64.3081 224.101 61.9091C225.359 60.7095 226.938 59.6699 228.758 58.8703C230.552 58.0706 232.613 57.8307 234.781 57.7507C239.117 57.6441 243.051 58.8436 245.755 60.8695C248.485 63.0819 249.957 66.1207 249.743 69.2128Z" fill="#428B3D"/>
<path d="M238.474 68.3867C238.501 70.5192 236.36 72.2785 233.71 72.3318C231.06 72.2785 228.758 70.8657 228.571 68.7865C228.356 66.6541 230.471 64.6015 233.308 64.6282C236.119 64.5749 238.447 66.2542 238.474 68.3867Z" fill="#1D693E"/>
<path d="M378.327 170.533C375.383 171.626 372.117 171.172 369.307 169.653C367.888 168.907 366.577 167.867 365.453 166.614C364.329 165.361 363.418 163.842 362.508 162.269C359.163 155.872 360.929 147.955 366.122 144.809C371.662 141.451 379.13 144.996 383.065 152.54C384.082 154.379 384.537 156.378 384.671 158.297C384.831 160.217 384.671 162.029 384.216 163.655C383.332 166.934 381.271 169.44 378.327 170.533Z" fill="#428B3D"/>
<path d="M374.741 160.003C372.841 160.856 370.324 159.657 369.093 157.338C367.889 155.019 368.451 152.326 370.325 151.313C372.198 150.3 374.768 151.5 376.052 153.952C377.337 156.405 376.748 159.097 374.741 160.003Z" fill="#1D693E"/>
<path d="M236.948 292.991C232.826 275.611 224.85 257.299 225.706 239.146C226.59 220.38 233.388 202.947 237.055 184.687C239.009 175.038 240.267 165.495 240.294 156.059C239.303 145.849 238.179 130.949 230.711 123.005C222.146 113.915 206.569 116.421 196.424 121.033C187.511 125.084 179.776 132.335 173.727 139.932C168.32 146.702 163.797 154.459 159.862 162.19C154.268 173.199 139.761 203.16 139.038 235.041C137.941 282.062 171.398 339.133 202.794 345.664C225.198 350.328 235.636 338.2 240.24 319.647C240.427 309.971 238.581 299.842 236.948 292.991Z" fill="#00A64D"/>
<path d="M211.788 347.929C208.898 347.929 205.766 347.583 202.501 346.916C169.9 340.146 136.603 282.622 137.727 235.014C138.075 219.633 142.009 194.443 158.711 161.63C163.342 152.54 167.919 145.183 172.71 139.158C179.857 130.175 187.886 123.511 195.889 119.886C201.858 117.194 208.657 115.621 214.518 115.621C221.692 115.621 227.634 117.887 231.649 122.152C239.116 130.069 240.481 144.25 241.445 154.592L241.579 155.925C241.552 164.775 240.482 174.211 238.313 184.927C237.029 191.298 235.342 197.642 233.71 203.773C230.685 215.208 227.527 227.07 226.965 239.172C226.376 251.834 230.203 264.789 233.924 277.29C235.423 282.355 236.975 287.58 238.18 292.644C239.812 299.468 241.686 309.704 241.472 319.62C241.472 319.727 241.445 319.807 241.445 319.914C236.841 338.52 226.858 347.929 211.788 347.929ZM214.492 118.18C208.978 118.18 202.581 119.646 196.933 122.205C189.278 125.67 181.596 132.068 174.717 140.731C170.033 146.622 165.537 153.819 160.987 162.776C144.525 195.163 140.644 219.953 140.297 235.067C139.226 280.729 172.068 337.96 203.036 344.411C222.04 348.356 233.736 340.306 238.929 319.46C239.116 309.864 237.296 299.922 235.717 293.284C234.539 288.299 233.067 283.315 231.488 278.064C227.714 265.349 223.806 252.207 224.422 239.092C225.011 226.697 228.169 214.729 231.247 203.16C232.853 197.056 234.539 190.738 235.797 184.447C237.939 173.918 238.983 164.615 239.009 156.058L238.876 154.832C237.912 144.836 236.627 131.162 229.748 123.911C226.188 120.099 221.049 118.18 214.492 118.18Z" fill="#00410D"/>
<path d="M230.284 328.204C241.793 278.756 203.572 263.243 206.757 230.935C208.55 212.729 225.065 197.295 231.301 176.957C234.647 166.054 234.299 153.793 230.418 143.103C221.505 118.58 192.062 129.855 179.215 144.356C172.764 151.633 167.598 160.776 163.342 169.466C158.364 179.649 145.489 207.345 144.847 236.8C143.883 280.249 173.567 333.028 201.484 339.053C215.804 342.171 224.984 337.4 230.284 328.204Z" fill="#C7E099"/>
<path d="M204.642 206.998C204.642 214.595 197.87 220.753 189.546 220.753C181.195 220.753 174.423 214.595 174.423 206.998C174.423 199.401 181.195 193.244 189.546 193.244C197.87 193.244 204.642 199.401 204.642 206.998Z" fill="#428B3D"/>
<path d="M192.865 206.252C192.865 208.838 190.563 210.943 187.726 210.943C184.889 210.943 182.587 208.838 182.587 206.252C182.587 203.666 184.889 201.561 187.726 201.561C190.563 201.561 192.865 203.666 192.865 206.252Z" fill="#1D693E"/>
<path d="M201.135 279.423C201.028 279.236 200.948 279.05 200.841 278.863C198.512 274.118 197.308 268.92 195.461 264.016C193.052 257.698 186.896 253.033 179.134 253.38C166.339 253.94 165.108 267.721 164.974 276.437C164.707 295.15 172.442 317.728 191.58 327.404C209.245 336.334 218.132 318.101 215.348 304.533C214.358 299.788 212.35 295.257 209.807 291.045C207.345 286.94 203.41 283.661 201.135 279.423Z" fill="#9FDDF9"/>
<path d="M200.439 331.082C197.468 331.082 194.31 330.229 191.018 328.577C170.435 318.181 163.449 293.977 163.69 276.437C163.77 270.573 164.038 252.767 179.08 252.1C187.03 251.754 193.908 256.339 196.665 263.563C197.361 265.402 197.977 267.294 198.566 269.187C199.556 272.252 200.573 275.398 201.992 278.277C202.072 278.463 202.152 278.623 202.259 278.783C203.41 280.942 205.016 282.835 206.703 284.807C208.175 286.54 209.7 288.353 210.932 290.352C213.795 295.07 215.696 299.762 216.633 304.266C218.158 311.677 216.285 320.153 211.975 325.405C208.951 329.11 204.963 331.082 200.439 331.082ZM179.937 254.659C179.696 254.659 179.455 254.659 179.214 254.686C168.026 255.166 166.42 266.601 166.286 276.491C166.045 293.284 172.656 316.422 192.195 326.311C195.113 327.804 197.896 328.55 200.466 328.55C204.186 328.55 207.479 326.924 209.995 323.859C213.822 319.167 215.482 311.544 214.117 304.853C213.233 300.641 211.44 296.243 208.737 291.765C207.639 289.925 206.221 288.273 204.749 286.54C203.062 284.541 201.296 282.462 200.011 280.063C199.904 279.876 199.797 279.663 199.69 279.45C198.191 276.411 197.147 273.159 196.13 270.013C195.541 268.174 194.952 266.308 194.256 264.522C192.008 258.498 186.36 254.659 179.937 254.659Z" fill="#11BAED"/>
<path d="M177.179 270.067C177.179 270.04 177.179 269.987 177.179 269.96C177.179 268.947 177.447 267.961 177.527 266.948C177.661 265.668 176.992 264.389 175.573 263.882C173.272 263.056 171.826 265.375 171.05 266.921C169.337 270.2 168.721 274.758 171.264 277.877C173.593 280.756 176.778 278.17 177.474 275.585C177.715 274.678 177.768 273.719 177.688 272.786C177.608 271.853 177.206 271 177.179 270.067Z" fill="white"/>
<path d="M175.413 285.9C175.413 285.874 175.386 285.874 175.386 285.847C175.092 285.341 174.904 284.781 174.637 284.248C174.315 283.581 173.593 283.102 172.736 283.208C171.318 283.368 171.318 284.914 171.398 285.874C171.559 287.926 172.629 290.352 174.851 291.285C176.885 292.111 177.688 290.032 177.26 288.566C177.099 288.06 176.832 287.553 176.51 287.127C176.189 286.674 175.707 286.354 175.413 285.9Z" fill="white"/>
<path d="M214.519 183.727C213.877 185.86 211.468 187.113 209.139 186.526C206.811 185.94 205.419 183.754 206.061 181.621L209.808 169.146C210.451 167.014 212.86 165.761 215.188 166.348C217.517 166.934 218.909 169.12 218.266 171.252L214.519 183.727Z" fill="#9DBF45"/>
<path d="M210.29 187.966C209.808 187.966 209.299 187.912 208.818 187.779C207.319 187.406 206.007 186.446 205.285 185.167C204.589 183.967 204.428 182.581 204.83 181.275L208.577 168.8C209.38 166.081 212.565 164.402 215.509 165.121C217.035 165.495 218.32 166.454 219.042 167.734C219.738 168.933 219.899 170.319 219.497 171.626L215.75 184.101C215.054 186.366 212.806 187.966 210.29 187.966ZM214.037 167.52C212.618 167.52 211.387 168.347 211.039 169.546L207.292 182.021C207.105 182.661 207.185 183.328 207.506 183.914C207.908 184.58 208.604 185.114 209.433 185.3C211.066 185.7 212.833 184.82 213.261 183.381L217.008 170.906C217.196 170.266 217.115 169.6 216.794 169.013C216.392 168.32 215.697 167.814 214.867 167.6C214.599 167.547 214.305 167.52 214.037 167.52Z" fill="#2CA851"/>
<path d="M186.093 157.071C184.139 157.445 182.131 156.032 181.65 153.926C181.141 151.82 182.319 149.821 184.273 149.448L195.755 147.262C197.709 146.889 199.717 148.302 200.225 150.407C200.734 152.513 199.556 154.512 197.602 154.886L186.093 157.071Z" fill="#9DBF45"/>
<path d="M185.45 158.404C183.095 158.404 180.954 156.645 180.392 154.219C180.044 152.807 180.285 151.34 181.034 150.194C181.73 149.128 182.801 148.408 184.032 148.168L195.514 145.983C198.164 145.476 200.814 147.369 201.483 150.088C201.831 151.5 201.59 152.966 200.841 154.113C200.145 155.179 199.074 155.899 197.843 156.139L186.361 158.324C186.039 158.378 185.745 158.404 185.45 158.404ZM196.371 148.488C196.237 148.488 196.103 148.488 195.969 148.515L184.487 150.701C183.791 150.834 183.389 151.26 183.175 151.58C182.801 152.14 182.694 152.886 182.881 153.606C183.229 155.019 184.54 156.032 185.852 155.792L197.335 153.606C198.031 153.473 198.432 153.046 198.646 152.7C199.021 152.14 199.128 151.394 198.941 150.674C198.646 149.448 197.549 148.488 196.371 148.488Z" fill="#2CA851"/>
<path d="M168.588 193.564C167.223 195.323 164.546 195.616 162.565 194.257C160.585 192.871 160.103 190.338 161.441 188.579L169.391 178.263C170.756 176.504 173.433 176.21 175.413 177.57C177.394 178.956 177.876 181.488 176.537 183.248L168.588 193.564Z" fill="#9DBF45"/>
<path d="M165.296 196.389C164.065 196.389 162.86 196.016 161.843 195.296C160.559 194.39 159.702 193.057 159.461 191.591C159.247 190.232 159.595 188.872 160.425 187.806L168.374 177.49C170.087 175.251 173.701 174.824 176.163 176.53C177.448 177.437 178.304 178.77 178.545 180.236C178.759 181.595 178.411 182.955 177.582 184.021L169.632 194.337C168.615 195.643 167.036 196.389 165.296 196.389ZM172.683 177.996C171.747 177.996 170.917 178.37 170.408 179.036L162.459 189.352C162.057 189.858 161.897 190.525 162.004 191.191C162.138 191.964 162.593 192.684 163.315 193.19C164.68 194.15 166.688 193.937 167.571 192.791L175.521 182.475C175.922 181.968 176.083 181.302 175.976 180.635C175.869 179.862 175.387 179.143 174.664 178.636C174.102 178.236 173.406 177.996 172.683 177.996Z" fill="#2CA851"/>
<path d="M220.434 283.261C221.291 285.314 220.167 287.633 217.892 288.406C215.643 289.179 213.1 288.14 212.244 286.087L207.185 274.012C206.329 271.959 207.453 269.64 209.728 268.867C211.976 268.094 214.519 269.107 215.376 271.186L220.434 283.261Z" fill="#9DBF45"/>
<path d="M216.339 289.952C213.984 289.952 211.923 288.646 211.066 286.593L206.007 274.518C205.472 273.239 205.499 271.853 206.061 270.573C206.65 269.24 207.854 268.174 209.3 267.668C212.164 266.681 215.456 268.067 216.553 270.706L221.612 282.782C222.147 284.061 222.121 285.447 221.558 286.727C220.97 288.059 219.765 289.126 218.32 289.632C217.677 289.845 217.008 289.952 216.339 289.952ZM211.28 269.88C210.906 269.88 210.504 269.933 210.156 270.067C209.353 270.36 208.738 270.893 208.416 271.613C208.149 272.226 208.122 272.892 208.39 273.532L213.448 285.607C214.037 286.993 215.911 287.74 217.49 287.206C218.293 286.913 218.909 286.38 219.23 285.66C219.497 285.047 219.524 284.381 219.257 283.768L214.198 271.693C213.743 270.6 212.592 269.88 211.28 269.88Z" fill="#2CA851"/>
<path d="M158.096 245.943C156.597 247.675 153.84 247.942 151.94 246.556C150.039 245.169 149.745 242.664 151.244 240.958L160.13 230.855C161.629 229.149 164.386 228.856 166.286 230.242C168.187 231.628 168.481 234.134 166.955 235.84L158.096 245.943Z" fill="#9DBF45"/>
<path d="M154.67 248.742C153.385 248.742 152.181 248.342 151.191 247.622C149.959 246.742 149.21 245.463 149.049 244.023C148.889 242.611 149.344 241.251 150.281 240.158L159.167 230.056C161.067 227.923 164.681 227.523 167.063 229.229C168.294 230.109 169.043 231.388 169.204 232.828C169.365 234.241 168.91 235.627 167.973 236.72L159.087 246.822C157.962 248.022 156.383 248.742 154.67 248.742ZM163.53 230.669C162.566 230.669 161.656 231.042 161.067 231.735L152.181 241.838C151.699 242.371 151.485 243.064 151.565 243.73C151.646 244.45 152.047 245.09 152.663 245.543C153.974 246.502 156.062 246.289 157.079 245.116L165.939 235.014C166.42 234.454 166.635 233.787 166.554 233.094C166.474 232.375 166.072 231.735 165.457 231.282C164.948 230.882 164.279 230.669 163.53 230.669Z" fill="#2CA851"/>
<path d="M246.157 170.133C250.279 187.512 258.255 205.825 257.398 223.978C256.515 242.744 249.717 260.177 246.023 278.436C244.069 288.086 242.838 297.629 242.784 307.065C243.775 317.274 244.872 332.175 252.366 340.119C260.932 349.208 276.509 346.703 286.68 342.091C295.594 338.039 303.329 330.789 309.378 323.192C314.785 316.421 319.308 308.664 323.243 300.934C328.837 289.925 343.344 259.937 344.067 228.083C345.164 181.062 311.733 123.991 280.31 117.46C257.907 112.795 247.468 124.924 242.864 143.476C242.704 153.153 244.524 163.282 246.157 170.133Z" fill="#00A64D"/>
<path d="M268.613 347.502C261.44 347.502 255.498 345.237 251.483 340.972C244.015 333.055 242.677 318.874 241.687 308.531L241.553 307.172C241.58 298.322 242.65 288.859 244.818 278.17C246.103 271.799 247.789 265.455 249.422 259.324C252.446 247.889 255.605 236.027 256.167 223.898C256.756 211.21 252.928 198.282 249.208 185.78C247.709 180.715 246.156 175.464 244.952 170.426C243.319 163.602 241.446 153.366 241.66 143.45C241.66 143.37 241.687 143.263 241.687 143.183C247.174 121.059 260.262 111.969 280.631 116.207C313.232 122.978 346.529 180.502 345.405 228.11C345.057 243.49 341.122 268.68 324.447 301.494C319.816 310.584 315.239 317.941 310.448 323.965C303.302 332.948 295.272 339.612 287.269 343.238C281.247 345.956 274.475 347.502 268.613 347.502ZM244.176 143.663C243.988 153.259 245.809 163.175 247.388 169.839C248.565 174.824 250.038 179.809 251.617 185.06C255.391 197.775 259.299 210.917 258.683 224.031C258.094 236.426 254.936 248.395 251.858 259.99C250.252 266.095 248.565 272.386 247.307 278.676C245.166 289.206 244.122 298.509 244.096 307.065L244.229 308.291C245.193 318.287 246.478 331.935 253.357 339.212C256.943 342.998 262.082 344.917 268.613 344.917C274.127 344.917 280.524 343.451 286.172 340.892C293.827 337.426 301.509 331.029 308.387 322.366C313.071 316.475 317.568 309.278 322.118 300.348C338.579 267.961 342.46 243.144 342.808 228.056C343.879 182.368 311.037 125.164 280.069 118.713C261.092 114.768 249.395 122.818 244.176 143.663Z" fill="#00410D"/>
<path d="M252.821 134.92C241.285 184.367 279.533 199.881 276.348 232.188C274.555 250.394 258.04 265.828 251.804 286.167C248.458 297.069 248.806 309.331 252.687 320.02C261.6 344.544 291.043 333.268 303.89 318.767C310.341 311.49 315.507 302.347 319.762 293.631C324.741 283.448 337.615 255.752 338.258 226.297C339.221 182.821 309.511 130.069 281.621 124.044C267.301 120.952 258.147 125.724 252.821 134.92Z" fill="#C7E099"/>
<path d="M278.463 254.366C278.463 246.769 285.235 240.611 293.559 240.611C301.91 240.611 308.682 246.769 308.682 254.366C308.682 261.963 301.91 268.12 293.559 268.12C285.235 268.12 278.463 261.963 278.463 254.366Z" fill="#428B3D"/>
<path d="M290.24 255.112C290.24 252.526 292.542 250.447 295.379 250.447C298.217 250.447 300.518 252.553 300.518 255.112C300.518 257.698 298.217 259.804 295.379 259.804C292.542 259.804 290.24 257.698 290.24 255.112Z" fill="#1D693E"/>
<path d="M285.02 199.934C285.127 200.121 285.235 200.307 285.315 200.494C287.644 205.239 288.848 210.437 290.695 215.341C293.104 221.659 299.26 226.324 307.022 225.977C319.816 225.417 321.047 211.636 321.181 202.92C321.449 184.207 313.714 161.629 294.576 151.953C276.91 143.023 268.024 161.256 270.808 174.824C271.771 179.569 273.806 184.1 276.348 188.312C278.838 192.417 282.745 195.696 285.02 199.934Z" fill="#9FDDF9"/>
<path d="M306.246 227.283C298.725 227.283 292.167 222.778 289.517 215.795C288.821 213.955 288.206 212.063 287.59 210.17C286.6 207.131 285.583 203.959 284.164 201.08C284.084 200.92 284.003 200.734 283.896 200.574C282.745 198.415 281.139 196.522 279.453 194.523C277.981 192.79 276.455 190.978 275.224 188.952C272.36 184.234 270.46 179.542 269.523 175.037C267.997 167.654 269.871 159.15 274.18 153.899C279.186 147.795 286.841 146.569 295.138 150.78C315.721 161.203 322.707 185.38 322.466 202.92C322.386 208.784 322.118 226.59 307.076 227.23C306.808 227.257 306.514 227.283 306.246 227.283ZM285.716 150.86C281.996 150.86 278.677 152.486 276.161 155.552C272.333 160.217 270.674 167.867 272.039 174.558C272.896 178.769 274.716 183.167 277.419 187.646C278.516 189.485 279.935 191.138 281.407 192.87C283.093 194.87 284.86 196.949 286.145 199.348C286.252 199.534 286.359 199.721 286.466 199.934C287.965 203 289.009 206.225 290.026 209.37C290.615 211.21 291.203 213.076 291.899 214.888C294.255 221.072 300.197 225.044 306.969 224.698C318.157 224.218 319.763 212.782 319.897 202.893C320.137 186.073 313.526 162.962 293.987 153.073C291.07 151.607 288.286 150.86 285.716 150.86Z" fill="#11BAED"/>
<path d="M308.976 209.291C308.976 209.344 308.976 209.371 308.976 209.397C308.976 210.41 308.735 211.423 308.628 212.409C308.494 213.715 309.163 214.968 310.555 215.475C312.857 216.301 314.302 213.955 315.105 212.436C316.818 209.157 317.434 204.599 314.891 201.507C312.563 198.628 309.378 201.214 308.682 203.799C308.441 204.706 308.387 205.665 308.467 206.598C308.548 207.505 308.949 208.358 308.976 209.291Z" fill="white"/>
<path d="M310.743 193.457C310.743 193.483 310.77 193.51 310.77 193.51C311.064 194.017 311.251 194.576 311.519 195.109C311.84 195.776 312.563 196.256 313.419 196.149C314.838 195.989 314.811 194.443 314.758 193.483C314.597 191.431 313.526 189.005 311.305 188.072C309.271 187.246 308.468 189.325 308.896 190.791C309.056 191.298 309.324 191.804 309.645 192.231C309.993 192.684 310.448 193.004 310.743 193.457Z" fill="white"/>
<path d="M267.489 278.037C268.131 275.904 270.54 274.651 272.869 275.238C275.198 275.824 276.589 278.01 275.947 280.142L272.2 292.617C271.557 294.75 269.148 296.003 266.82 295.416C264.491 294.83 263.099 292.644 263.742 290.512L267.489 278.037Z" fill="#9DBF45"/>
<path d="M267.97 296.829C267.489 296.829 266.98 296.776 266.498 296.642C264.973 296.269 263.688 295.31 262.965 294.03C262.269 292.831 262.109 291.444 262.51 290.138L266.257 277.663C267.06 274.944 270.219 273.265 273.19 273.985C274.716 274.358 276 275.318 276.723 276.597C277.419 277.797 277.579 279.183 277.178 280.489L273.431 292.964C272.762 295.256 270.513 296.829 267.97 296.829ZM271.718 276.384C270.326 276.384 269.095 277.21 268.72 278.41L264.973 290.885C264.785 291.524 264.866 292.191 265.187 292.777C265.588 293.47 266.284 293.977 267.114 294.19C268.747 294.59 270.513 293.71 270.942 292.271L274.689 279.796C274.876 279.156 274.796 278.49 274.448 277.903C274.046 277.21 273.35 276.704 272.521 276.517C272.28 276.437 272.012 276.384 271.718 276.384Z" fill="#2CA851"/>
<path d="M313.955 261.137C314.597 259.004 317.006 257.751 319.335 258.338C321.663 258.924 323.055 261.11 322.413 263.242L318.666 275.718C318.023 277.85 315.614 279.103 313.286 278.516C310.957 277.93 309.565 275.744 310.208 273.612L313.955 261.137Z" fill="#9DBF45"/>
<path d="M314.436 279.929C313.955 279.929 313.446 279.876 312.964 279.743C311.439 279.369 310.154 278.41 309.431 277.13C308.735 275.931 308.575 274.545 308.976 273.238L312.723 260.763C313.526 258.044 316.711 256.365 319.656 257.085C321.155 257.458 322.466 258.418 323.189 259.697C323.885 260.897 324.045 262.283 323.644 263.589L319.897 276.064C319.201 278.356 316.979 279.929 314.436 279.929ZM318.157 259.484C316.765 259.484 315.534 260.31 315.159 261.51L311.412 273.985C311.224 274.625 311.305 275.291 311.653 275.877C312.027 276.544 312.75 277.077 313.58 277.263C315.213 277.663 316.979 276.784 317.407 275.344L321.155 262.869C321.342 262.229 321.262 261.563 320.94 260.977C320.539 260.31 319.843 259.777 319.013 259.59C318.746 259.511 318.451 259.484 318.157 259.484Z" fill="#2CA851"/>
<path d="M290.455 302.64C292.088 301.494 294.523 301.947 295.862 303.68C297.2 305.413 296.959 307.732 295.326 308.905L285.664 315.729C284.031 316.901 281.595 316.422 280.257 314.716C278.919 312.983 279.16 310.664 280.792 309.491L290.455 302.64Z" fill="#9DBF45"/>
<path d="M283.576 317.621C281.889 317.621 280.284 316.821 279.213 315.462C278.33 314.316 277.928 312.876 278.115 311.517C278.303 310.237 278.972 309.144 280.016 308.398L289.678 301.574C291.82 300.081 295.165 300.668 296.852 302.854C297.735 304 298.136 305.439 297.949 306.799C297.762 308.078 297.093 309.171 296.049 309.891L286.386 316.715C285.583 317.328 284.62 317.621 283.576 317.621ZM292.516 303.28C292.034 303.28 291.552 303.413 291.177 303.68L281.515 310.504C281.06 310.824 280.765 311.33 280.658 311.89C280.551 312.556 280.765 313.303 281.22 313.889C282.104 315.035 283.817 315.409 284.86 314.662L294.523 307.838C294.978 307.518 295.272 307.012 295.38 306.452C295.487 305.786 295.272 305.039 294.817 304.453C294.282 303.733 293.399 303.28 292.516 303.28Z" fill="#2CA851"/>
<path d="M260.905 138.652C261.842 136.626 264.304 135.906 266.419 137.052C268.533 138.199 269.47 140.758 268.533 142.783L263.019 154.672C262.083 156.698 259.62 157.418 257.506 156.271C255.418 155.125 254.454 152.566 255.391 150.54L260.905 138.652Z" fill="#9DBF45"/>
<path d="M259.62 158.111C258.71 158.111 257.773 157.871 256.917 157.418C254.24 155.952 253.035 152.646 254.24 150.007L259.754 138.119C260.958 135.506 264.357 134.494 267.034 135.933C269.711 137.399 270.915 140.704 269.711 143.317L264.197 155.205C263.367 156.991 261.627 158.111 259.62 158.111ZM264.331 137.799C263.34 137.799 262.484 138.332 262.082 139.185L256.595 151.074C255.926 152.486 256.649 154.326 258.148 155.152C259.566 155.925 261.253 155.445 261.868 154.139L267.382 142.25C268.051 140.838 267.329 138.998 265.83 138.172C265.321 137.932 264.813 137.799 264.331 137.799Z" fill="#2CA851"/>
<path d="M325.893 223.312C327.392 221.606 330.148 221.312 332.049 222.699C333.949 224.085 334.244 226.59 332.745 228.296L323.885 238.399C322.36 240.132 319.603 240.398 317.729 239.012C315.855 237.626 315.534 235.12 317.06 233.414L325.893 223.312Z" fill="#9DBF45"/>
<path d="M320.432 241.171C319.147 241.171 317.943 240.798 316.926 240.052C315.695 239.172 314.945 237.892 314.785 236.453C314.624 235.04 315.079 233.654 316.043 232.561L324.902 222.458C326.803 220.326 330.443 219.926 332.798 221.632C334.029 222.538 334.779 223.818 334.939 225.257C335.1 226.67 334.645 228.03 333.708 229.122L324.849 239.225C323.751 240.451 322.172 241.171 320.432 241.171ZM329.318 223.098C328.355 223.098 327.445 223.471 326.856 224.164L317.996 234.267C317.515 234.827 317.301 235.493 317.354 236.186C317.434 236.906 317.836 237.546 318.452 237.999C319.763 238.959 321.851 238.745 322.895 237.572L331.781 227.47C332.263 226.937 332.477 226.244 332.397 225.577C332.316 224.858 331.915 224.218 331.299 223.765C330.737 223.311 330.041 223.098 329.318 223.098Z" fill="#2CA851"/>
</svg>
